SolveigDisplay.ufo
<glyph name="exclam" format="1">
  <advance width="195"/>
  <unicode hex="0021"/>
  <outline>
    <contour>
      <point x="110" y="147" type="curve"/>
      <point x="88" y="144" type="line"/>
      <point x="86" y="284"/>
      <point x="72" y="530"/>
      <point x="66" y="578" type="curve"/>
      <point x="92" y="580"/>
      <point x="118" y="583"/>
      <point x="148" y="588" type="curve"/>
      <point x="136" y="505"/>
      <point x="113" y="218"/>
    </contour>
    <contour>
      <point x="101" y="63" type="curve" smooth="yes"/>
      <point x="128" y="63"/>
      <point x="142" y="51"/>
      <point x="142" y="32" type="curve" smooth="yes"/>
      <point x="142" y="7"/>
      <point x="112" y="-7"/>
      <point x="86" y="-7" type="curve" smooth="yes"/>
      <point x="66" y="-7"/>
      <point x="50" y="4"/>
      <point x="50" y="22" type="curve" smooth="yes"/>
      <point x="50" y="43"/>
      <point x="75" y="63"/>
    </contour>
  </outline>
</glyph>
<glyph name="quotedbl" format="1">
  <advance width="299"/>
  <unicode hex="0022"/>
  <outline>
    <contour>
      <point x="95" y="350" type="curve"/>
      <point x="72" y="348" type="line"/>
      <point x="70" y="424"/>
      <point x="57" y="551"/>
      <point x="50" y="578" type="curve"/>
      <point x="77" y="578"/>
      <point x="102" y="583"/>
      <point x="132" y="588" type="curve"/>
      <point x="121" y="543"/>
      <point x="97" y="389"/>
    </contour>
    <contour>
      <point x="225" y="350" type="curve"/>
      <point x="201" y="348" type="line"/>
      <point x="200" y="424"/>
      <point x="186" y="551"/>
      <point x="180" y="578" type="curve"/>
      <point x="206" y="578"/>
      <point x="232" y="583"/>
      <point x="262" y="588" type="curve"/>
      <point x="251" y="543"/>
      <point x="227" y="389"/>
    </contour>
  </outline>
</glyph>
<glyph name="numbersign" format="1">
  <advance width="416"/>
  <unicode hex="0023"/>
  <outline>
    <contour>
      <point x="285" y="582" type="curve"/>
      <point x="284" y="524"/>
      <point x="283" y="473"/>
      <point x="283" y="424" type="curve"/>
      <point x="308" y="424"/>
      <point x="335" y="425"/>
      <point x="354" y="425" type="curve"/>
      <point x="355" y="414"/>
      <point x="353" y="402"/>
      <point x="348" y="392" type="curve"/>
      <point x="326" y="392"/>
      <point x="305" y="393"/>
      <point x="283" y="394" type="curve"/>
      <point x="282" y="330"/>
      <point x="282" y="266"/>
      <point x="282" y="204" type="curve"/>
      <point x="307" y="204"/>
      <point x="335" y="205"/>
      <point x="354" y="205" type="curve"/>
      <point x="355" y="194"/>
      <point x="353" y="181"/>
      <point x="348" y="171" type="curve"/>
      <point x="325" y="171"/>
      <point x="304" y="172"/>
      <point x="282" y="173" type="curve"/>
      <point x="282" y="119"/>
      <point x="282" y="67"/>
      <point x="283" y="2" type="curve"/>
      <point x="272" y="-2"/>
      <point x="262" y="-6"/>
      <point x="251" y="-3" type="curve"/>
      <point x="251" y="62"/>
      <point x="251" y="119"/>
      <point x="252" y="173" type="curve"/>
      <point x="214" y="174"/>
      <point x="175" y="174"/>
      <point x="132" y="174" type="curve"/>
      <point x="132" y="120"/>
      <point x="132" y="67"/>
      <point x="133" y="2" type="curve"/>
      <point x="122" y="-2"/>
      <point x="112" y="-6"/>
      <point x="101" y="-3" type="curve"/>
      <point x="101" y="62"/>
      <point x="102" y="120"/>
      <point x="102" y="174" type="curve"/>
      <point x="35" y="174" type="line"/>
      <point x="32" y="182"/>
      <point x="36" y="201"/>
      <point x="38" y="206" type="curve"/>
      <point x="58" y="206"/>
      <point x="80" y="206"/>
      <point x="102" y="205" type="curve"/>
      <point x="102" y="269"/>
      <point x="103" y="330"/>
      <point x="103" y="395" type="curve"/>
      <point x="35" y="395" type="line"/>
      <point x="32" y="403"/>
      <point x="36" y="421"/>
      <point x="38" y="427" type="curve"/>
      <point x="103" y="425" type="line"/>
      <point x="103" y="581" type="line"/>
      <point x="112" y="584"/>
      <point x="129" y="584"/>
      <point x="135" y="582" type="curve"/>
      <point x="134" y="524"/>
      <point x="133" y="474"/>
      <point x="133" y="425" type="curve"/>
      <point x="176" y="424"/>
      <point x="214" y="424"/>
      <point x="253" y="424" type="curve"/>
      <point x="253" y="581" type="line"/>
      <point x="261" y="584"/>
      <point x="279" y="584"/>
    </contour>
    <contour>
      <point x="132" y="205" type="curve"/>
      <point x="175" y="204"/>
      <point x="212" y="204"/>
      <point x="252" y="204" type="curve"/>
      <point x="252" y="268"/>
      <point x="253" y="330"/>
      <point x="253" y="394" type="curve"/>
      <point x="216" y="395"/>
      <point x="176" y="395"/>
      <point x="133" y="395" type="curve"/>
      <point x="132" y="331"/>
      <point x="132" y="267"/>
    </contour>
  </outline>
</glyph>
<glyph name="dollar" format="1">
  <advance width="338"/>
  <unicode hex="0024"/>
  <outline>
    <contour>
      <point x="154" y="-16" type="curve"/>
      <point x="153" y="20"/>
      <point x="151" y="60"/>
      <point x="150" y="71" type="curve"/>
      <point x="117" y="72"/>
      <point x="62" y="74"/>
      <point x="38" y="82" type="curve"/>
      <point x="39" y="92"/>
      <point x="40" y="97"/>
      <point x="42" y="105" type="curve"/>
      <point x="62" y="101"/>
      <point x="135" y="98"/>
      <point x="161" y="104" type="curve" smooth="yes"/>
      <point x="201" y="113"/>
      <point x="234" y="146"/>
      <point x="235" y="175" type="curve" smooth="yes"/>
      <point x="236" y="218"/>
      <point x="178" y="257"/>
      <point x="136" y="284" type="curve" smooth="yes"/>
      <point x="78" y="320"/>
      <point x="44" y="349"/>
      <point x="44" y="386" type="curve" smooth="yes"/>
      <point x="44" y="444"/>
      <point x="82" y="484"/>
      <point x="154" y="510" type="curve"/>
      <point x="156" y="536"/>
      <point x="158" y="574"/>
      <point x="158" y="593" type="curve"/>
      <point x="168" y="596"/>
      <point x="176" y="595"/>
      <point x="183" y="594" type="curve"/>
      <point x="182" y="574"/>
      <point x="186" y="531"/>
      <point x="186" y="517" type="curve"/>
      <point x="195" y="518"/>
      <point x="242" y="521"/>
      <point x="269" y="521" type="curve"/>
      <point x="271" y="514"/>
      <point x="272" y="503"/>
      <point x="269" y="496" type="curve"/>
      <point x="182" y="496"/>
      <point x="104" y="471"/>
      <point x="104" y="409" type="curve" smooth="yes"/>
      <point x="104" y="382"/>
      <point x="145" y="351"/>
      <point x="191" y="329" type="curve"/>
      <point x="247" y="300"/>
      <point x="300" y="262"/>
      <point x="300" y="208" type="curve" smooth="yes"/>
      <point x="300" y="163"/>
      <point x="260" y="102"/>
      <point x="184" y="77" type="curve"/>
      <point x="181" y="65"/>
      <point x="177" y="3"/>
      <point x="177" y="-16" type="curve"/>
      <point x="170" y="-17"/>
      <point x="162" y="-18"/>
    </contour>
  </outline>
</glyph>
<glyph name="percent" format="1">
  <advance width="794"/>
  <unicode hex="0025"/>
  <outline>
    <contour>
      <point x="647" y="579" type="curve"/>
      <point x="489" y="381"/>
      <point x="333" y="184"/>
      <point x="180" y="-14" type="curve"/>
      <point x="170" y="-10"/>
      <point x="163" y="-5"/>
      <point x="154" y="3" type="curve"/>
      <point x="313" y="201"/>
      <point x="471" y="398"/>
      <point x="623" y="596" type="curve"/>
      <point x="633" y="593"/>
      <point x="641" y="586"/>
    </contour>
    <contour>
      <point x="217" y="589" type="curve" smooth="yes"/>
      <point x="319" y="589"/>
      <point x="363" y="520"/>
      <point x="363" y="434" type="curve" smooth="yes"/>
      <point x="363" y="389"/>
      <point x="341" y="330"/>
      <point x="301" y="298" type="curve" smooth="yes"/>
      <point x="281" y="282"/>
      <point x="224" y="260"/>
      <point x="184" y="260" type="curve" smooth="yes"/>
      <point x="80" y="260"/>
      <point x="40" y="350"/>
      <point x="42" y="414" type="curve"/>
      <point x="42" y="472"/>
      <point x="71" y="527"/>
      <point x="112" y="553" type="curve" smooth="yes"/>
      <point x="139" y="571"/>
      <point x="189" y="589"/>
    </contour>
    <contour>
      <point x="206" y="560" type="curve" smooth="yes"/>
      <point x="177" y="560"/>
      <point x="111" y="540"/>
      <point x="111" y="417" type="curve" smooth="yes"/>
      <point x="111" y="368"/>
      <point x="135" y="289"/>
      <point x="194" y="289" type="curve" smooth="yes"/>
      <point x="268" y="289"/>
      <point x="301" y="359"/>
      <point x="298" y="432" type="curve"/>
      <point x="297" y="504"/>
      <point x="260" y="560"/>
    </contour>
    <contour>
      <point x="605" y="320" type="curve" smooth="yes"/>
      <point x="709" y="320"/>
      <point x="753" y="251"/>
      <point x="753" y="164" type="curve" smooth="yes"/>
      <point x="753" y="119"/>
      <point x="730" y="60"/>
      <point x="690" y="28" type="curve" smooth="yes"/>
      <point x="670" y="12"/>
      <point x="614" y="-10"/>
      <point x="573" y="-10" type="curve" smooth="yes"/>
      <point x="469" y="-10"/>
      <point x="430" y="80"/>
      <point x="431" y="144" type="curve" smooth="yes"/>
      <point x="431" y="201"/>
      <point x="461" y="256"/>
      <point x="501" y="284" type="curve"/>
      <point x="528" y="301"/>
      <point x="579" y="320"/>
    </contour>
    <contour>
      <point x="595" y="290" type="curve" smooth="yes"/>
      <point x="566" y="290"/>
      <point x="500" y="270"/>
      <point x="500" y="147" type="curve" smooth="yes"/>
      <point x="500" y="98"/>
      <point x="524" y="19"/>
      <point x="582" y="19" type="curve" smooth="yes"/>
      <point x="657" y="19"/>
      <point x="690" y="89"/>
      <point x="687" y="162" type="curve" smooth="yes"/>
      <point x="685" y="234"/>
      <point x="649" y="290"/>
    </contour>
  </outline>
</glyph>
<glyph name="ampersand" format="1">
  <advance width="638"/>
  <unicode hex="0026"/>
  <outline>
    <contour>
      <point x="367" y="568" type="curve"/>
      <point x="362" y="559"/>
      <point x="360" y="555"/>
      <point x="352" y="551" type="curve"/>
      <point x="331" y="562"/>
      <point x="292" y="566"/>
      <point x="276" y="559" type="curve" smooth="yes"/>
      <point x="235" y="541"/>
      <point x="207" y="506"/>
      <point x="207" y="476" type="curve" smooth="yes"/>
      <point x="207" y="459"/>
      <point x="221" y="430"/>
      <point x="244" y="395" type="curve" smooth="yes"/>
      <point x="251" y="383"/>
      <point x="370" y="229"/>
      <point x="435" y="163" type="curve"/>
      <point x="455" y="181"/>
      <point x="489" y="239"/>
      <point x="494" y="277" type="curve"/>
      <point x="526" y="282"/>
      <point x="556" y="292"/>
      <point x="599" y="311" type="curve"/>
      <point x="567" y="270"/>
      <point x="513" y="200"/>
      <point x="453" y="143" type="curve"/>
      <point x="495" y="92"/>
      <point x="558" y="30"/>
      <point x="603" y="0" type="curve"/>
      <point x="556" y="4"/>
      <point x="503" y="0"/>
      <point x="484" y="-4" type="curve"/>
      <point x="403" y="96" type="line"/>
      <point x="326" y="37"/>
      <point x="242" y="-12"/>
      <point x="172" y="-12" type="curve" smooth="yes"/>
      <point x="81" y="-12"/>
      <point x="35" y="60"/>
      <point x="35" y="126" type="curve" smooth="yes"/>
      <point x="35" y="217"/>
      <point x="107" y="280"/>
      <point x="195" y="345" type="curve"/>
      <point x="171" y="371"/>
      <point x="141" y="434"/>
      <point x="141" y="458" type="curve" smooth="yes"/>
      <point x="141" y="530"/>
      <point x="234" y="592"/>
      <point x="305" y="592" type="curve" smooth="yes"/>
      <point x="321" y="592"/>
      <point x="355" y="578"/>
    </contour>
    <contour>
      <point x="207" y="326" type="curve"/>
      <point x="159" y="292"/>
      <point x="115" y="239"/>
      <point x="102" y="185" type="curve" smooth="yes"/>
      <point x="85" y="117"/>
      <point x="116" y="45"/>
      <point x="214" y="45" type="curve" smooth="yes"/>
      <point x="275" y="45"/>
      <point x="345" y="83"/>
      <point x="386" y="114" type="curve"/>
      <point x="323" y="185"/>
      <point x="244" y="278"/>
    </contour>
  </outline>
</glyph>
<glyph name="parenleft" format="1">
  <advance width="227"/>
  <unicode hex="0028"/>
  <outline>
    <contour>
      <point x="188" y="-80" type="curve"/>
      <point x="166" y="-87" type="line"/>
      <point x="109" y="24"/>
      <point x="55" y="127"/>
      <point x="56" y="266" type="curve" smooth="yes"/>
      <point x="57" y="395"/>
      <point x="121" y="515"/>
      <point x="170" y="602" type="curve"/>
      <point x="191" y="594" type="line"/>
      <point x="158" y="524"/>
      <point x="123" y="405"/>
      <point x="123" y="268" type="curve" smooth="yes"/>
      <point x="123" y="158"/>
      <point x="136" y="42"/>
    </contour>
  </outline>
</glyph>
<glyph name="parenright" format="1">
  <advance width="227"/>
  <unicode hex="0029"/>
  <outline>
    <contour>
      <point x="40" y="594" type="curve"/>
      <point x="63" y="603" type="line"/>
      <point x="121" y="491"/>
      <point x="172" y="408"/>
      <point x="171" y="269" type="curve" smooth="yes"/>
      <point x="171" y="141"/>
      <point x="107" y="-2"/>
      <point x="57" y="-89" type="curve"/>
      <point x="37" y="-81" type="line"/>
      <point x="69" y="-10"/>
      <point x="104" y="130"/>
      <point x="104" y="267" type="curve" smooth="yes"/>
      <point x="104" y="377"/>
      <point x="92" y="471"/>
    </contour>
  </outline>
</glyph>
<glyph name="asterisk" format="1">
  <advance width="416"/>
  <unicode hex="002A"/>
  <outline>
    <contour>
      <point x="328" y="514" type="curve"/>
      <point x="335" y="506"/>
      <point x="336" y="496"/>
      <point x="337" y="489" type="curve"/>
      <point x="321" y="485"/>
      <point x="256" y="462"/>
      <point x="232" y="453" type="curve"/>
      <point x="249" y="426"/>
      <point x="290" y="365"/>
      <point x="301" y="350" type="curve"/>
      <point x="295" y="342"/>
      <point x="287" y="337"/>
      <point x="280" y="335" type="curve"/>
      <point x="272" y="348"/>
      <point x="221" y="413"/>
      <point x="206" y="433" type="curve"/>
      <point x="186" y="409"/>
      <point x="139" y="348"/>
      <point x="129" y="335" type="curve"/>
      <point x="119" y="338"/>
      <point x="112" y="345"/>
      <point x="107" y="350" type="curve"/>
      <point x="117" y="362"/>
      <point x="164" y="430"/>
      <point x="178" y="451" type="curve"/>
      <point x="150" y="464"/>
      <point x="92" y="485"/>
      <point x="76" y="490" type="curve"/>
      <point x="77" y="501"/>
      <point x="80" y="510"/>
      <point x="84" y="515" type="curve"/>
      <point x="98" y="510"/>
      <point x="166" y="490"/>
      <point x="189" y="484" type="curve"/>
      <point x="191" y="514"/>
      <point x="193" y="584"/>
      <point x="193" y="601" type="curve"/>
      <point x="203" y="604"/>
      <point x="213" y="603"/>
      <point x="220" y="602" type="curve"/>
      <point x="219" y="585"/>
      <point x="221" y="508"/>
      <point x="222" y="484" type="curve"/>
      <point x="251" y="491"/>
      <point x="312" y="509"/>
    </contour>
  </outline>
</glyph>
<glyph name="plus" format="1">
  <advance width="416"/>
  <unicode hex="002B"/>
  <outline>
    <contour>
      <point x="213" y="365" type="curve"/>
      <point x="212" y="315"/>
      <point x="212" y="264"/>
      <point x="212" y="214" type="curve"/>
      <point x="264" y="213"/>
      <point x="319" y="213"/>
      <point x="354" y="215" type="curve"/>
      <point x="355" y="204"/>
      <point x="353" y="194"/>
      <point x="348" y="184" type="curve"/>
      <point x="303" y="186"/>
      <point x="258" y="186"/>
      <point x="212" y="186" type="curve"/>
      <point x="212" y="136"/>
      <point x="212" y="85"/>
      <point x="213" y="35" type="curve"/>
      <point x="202" y="33"/>
      <point x="194" y="32"/>
      <point x="182" y="32" type="curve"/>
      <point x="183" y="83"/>
      <point x="184" y="135"/>
      <point x="184" y="186" type="curve"/>
      <point x="138" y="187"/>
      <point x="90" y="187"/>
      <point x="35" y="186" type="curve"/>
      <point x="32" y="195"/>
      <point x="36" y="211"/>
      <point x="38" y="217" type="curve"/>
      <point x="82" y="215"/>
      <point x="134" y="214"/>
      <point x="184" y="214" type="curve"/>
      <point x="185" y="264"/>
      <point x="185" y="315"/>
      <point x="184" y="364" type="curve"/>
      <point x="192" y="365"/>
      <point x="208" y="365"/>
    </contour>
  </outline>
</glyph>
<glyph name="comma" format="1">
  <advance width="181"/>
  <unicode hex="002C"/>
  <outline>
    <contour>
      <point x="94" y="95" type="curve" smooth="yes"/>
      <point x="117" y="95"/>
      <point x="132" y="68"/>
      <point x="132" y="29" type="curve" smooth="yes"/>
      <point x="132" y="-19"/>
      <point x="87" y="-107"/>
      <point x="47" y="-181" type="curve"/>
      <point x="25" y="-172" type="line"/>
      <point x="53" y="-113"/>
      <point x="67" y="-68"/>
      <point x="67" y="-28" type="curve" smooth="yes"/>
      <point x="67" y="6"/>
      <point x="50" y="22"/>
      <point x="50" y="51" type="curve" smooth="yes"/>
      <point x="50" y="68"/>
      <point x="67" y="95"/>
    </contour>
  </outline>
</glyph>
<glyph name="hyphen" format="1">
  <advance width="245"/>
  <unicode hex="002D"/>
  <outline>
    <contour>
      <point x="47" y="273" type="curve"/>
      <point x="77" y="275"/>
      <point x="168" y="290"/>
      <point x="190" y="295" type="curve"/>
      <point x="192" y="283"/>
      <point x="193" y="256"/>
      <point x="190" y="251" type="curve"/>
      <point x="166" y="249"/>
      <point x="77" y="237"/>
      <point x="49" y="231" type="curve"/>
      <point x="46" y="241"/>
      <point x="46" y="261"/>
    </contour>
  </outline>
</glyph>
<glyph name="period" format="1">
  <advance width="179"/>
  <unicode hex="002E"/>
  <outline>
    <contour>
      <point x="92" y="63" type="curve" smooth="yes"/>
      <point x="120" y="63"/>
      <point x="134" y="51"/>
      <point x="134" y="32" type="curve" smooth="yes"/>
      <point x="134" y="7"/>
      <point x="104" y="-7"/>
      <point x="77" y="-7" type="curve" smooth="yes"/>
      <point x="57" y="-7"/>
      <point x="42" y="4"/>
      <point x="42" y="22" type="curve" smooth="yes"/>
      <point x="42" y="43"/>
      <point x="67" y="63"/>
    </contour>
  </outline>
</glyph>
<glyph name="slash" format="1">
  <advance width="293"/>
  <unicode hex="002F"/>
  <outline>
    <contour>
      <point x="267" y="600" type="curve"/>
      <point x="195" y="385"/>
      <point x="124" y="169"/>
      <point x="54" y="-46" type="curve"/>
      <point x="43" y="-46"/>
      <point x="37" y="-47"/>
      <point x="27" y="-41" type="curve"/>
      <point x="101" y="174"/>
      <point x="172" y="390"/>
      <point x="241" y="605" type="curve"/>
      <point x="250" y="606"/>
      <point x="262" y="604"/>
    </contour>
  </outline>
</glyph>
<glyph name="zero" format="1">
  <advance width="444"/>
  <unicode hex="0030"/>
  <outline>
    <contour>
      <point x="194" y="-15" type="curve" smooth="yes"/>
      <point x="79" y="-15"/>
      <point x="37" y="147"/>
      <point x="37" y="296" type="curve" smooth="yes"/>
      <point x="37" y="365"/>
      <point x="54" y="445"/>
      <point x="87" y="498" type="curve"/>
      <point x="115" y="541"/>
      <point x="186" y="595"/>
      <point x="236" y="595" type="curve" smooth="yes"/>
      <point x="375" y="595"/>
      <point x="408" y="470"/>
      <point x="406" y="314" type="curve"/>
      <point x="406" y="227"/>
      <point x="376" y="99"/>
      <point x="315" y="34" type="curve" smooth="yes"/>
      <point x="291" y="8"/>
      <point x="243" y="-15"/>
    </contour>
    <contour>
      <point x="226" y="563" type="curve" smooth="yes"/>
      <point x="144" y="563"/>
      <point x="104" y="414"/>
      <point x="104" y="322" type="curve"/>
      <point x="102" y="213"/>
      <point x="133" y="18"/>
      <point x="227" y="18" type="curve" smooth="yes"/>
      <point x="288" y="18"/>
      <point x="338" y="168"/>
      <point x="338" y="286" type="curve" smooth="yes"/>
      <point x="338" y="470"/>
      <point x="302" y="563"/>
    </contour>
  </outline>
</glyph>
<glyph name="one" format="1">
  <advance width="340"/>
  <unicode hex="0031"/>
  <outline>
    <contour>
      <point x="221" y="588" type="curve"/>
      <point x="228" y="584"/>
      <point x="232" y="583"/>
      <point x="238" y="578" type="curve"/>
      <point x="226" y="503"/>
      <point x="232" y="102"/>
      <point x="240" y="-3" type="curve"/>
      <point x="213" y="2"/>
      <point x="181" y="2"/>
      <point x="150" y="-2" type="curve"/>
      <point x="166" y="91"/>
      <point x="171" y="438"/>
      <point x="161" y="520" type="curve"/>
      <point x="116" y="518"/>
      <point x="81" y="513"/>
      <point x="37" y="506" type="curve"/>
      <point x="34" y="511"/>
      <point x="32" y="518"/>
      <point x="32" y="525" type="curve"/>
      <point x="107" y="545"/>
      <point x="163" y="563"/>
    </contour>
  </outline>
</glyph>
<glyph name="two" format="1">
  <advance width="422"/>
  <unicode hex="0032"/>
  <outline>
    <contour>
      <point x="62" y="529" type="curve"/>
      <point x="124" y="556"/>
      <point x="187" y="591"/>
      <point x="263" y="591" type="curve" smooth="yes"/>
      <point x="343" y="591"/>
      <point x="360" y="527"/>
      <point x="360" y="468" type="curve" smooth="yes"/>
      <point x="360" y="393"/>
      <point x="288" y="300"/>
      <point x="249" y="245" type="curve" smooth="yes"/>
      <point x="242" y="236"/>
      <point x="154" y="119"/>
      <point x="109" y="67" type="curve"/>
      <point x="188" y="59"/>
      <point x="346" y="66"/>
      <point x="388" y="76" type="curve"/>
      <point x="376" y="40"/>
      <point x="373" y="24"/>
      <point x="368" y="-7" type="curve"/>
      <point x="271" y="3"/>
      <point x="169" y="3"/>
      <point x="37" y="-3" type="curve"/>
      <point x="31" y="6"/>
      <point x="30" y="14"/>
      <point x="28" y="22" type="curve"/>
      <point x="125" y="113"/>
      <point x="293" y="330"/>
      <point x="293" y="449" type="curve" smooth="yes"/>
      <point x="293" y="509"/>
      <point x="263" y="541"/>
      <point x="203" y="541" type="curve" smooth="yes"/>
      <point x="169" y="541"/>
      <point x="105" y="522"/>
      <point x="72" y="509" type="curve"/>
      <point x="66" y="514"/>
      <point x="64" y="519"/>
    </contour>
  </outline>
</glyph>
<glyph name="three" format="1">
  <advance width="370"/>
  <unicode hex="0033"/>
  <outline>
    <contour>
      <point x="39" y="553" type="curve"/>
      <point x="60" y="566"/>
      <point x="137" y="593"/>
      <point x="183" y="593" type="curve" smooth="yes"/>
      <point x="240" y="593"/>
      <point x="276" y="543"/>
      <point x="276" y="493" type="curve" smooth="yes"/>
      <point x="276" y="450"/>
      <point x="239" y="396"/>
      <point x="174" y="360" type="curve"/>
      <point x="262" y="361"/>
      <point x="333" y="310"/>
      <point x="333" y="226" type="curve" smooth="yes"/>
      <point x="333" y="57"/>
      <point x="135" y="-14"/>
      <point x="15" y="-8" type="curve"/>
      <point x="14" y="0"/>
      <point x="14" y="8"/>
      <point x="17" y="18" type="curve"/>
      <point x="131" y="12"/>
      <point x="263" y="93"/>
      <point x="263" y="223" type="curve" smooth="yes"/>
      <point x="263" y="283"/>
      <point x="220" y="333"/>
      <point x="153" y="333" type="curve" smooth="yes"/>
      <point x="139" y="333"/>
      <point x="112" y="330"/>
      <point x="99" y="325" type="curve"/>
      <point x="92" y="331"/>
      <point x="91" y="338"/>
      <point x="90" y="346" type="curve"/>
      <point x="158" y="369"/>
      <point x="209" y="408"/>
      <point x="209" y="471" type="curve" smooth="yes"/>
      <point x="209" y="509"/>
      <point x="188" y="552"/>
      <point x="141" y="552" type="curve" smooth="yes"/>
      <point x="109" y="552"/>
      <point x="66" y="540"/>
      <point x="49" y="533" type="curve"/>
      <point x="44" y="538"/>
      <point x="41" y="543"/>
    </contour>
  </outline>
</glyph>
<glyph name="five" format="1">
  <advance width="350"/>
  <unicode hex="0035"/>
  <outline>
    <contour>
      <point x="308" y="586" type="curve"/>
      <point x="293" y="557"/>
      <point x="283" y="535"/>
      <point x="276" y="516" type="curve"/>
      <point x="243" y="523"/>
      <point x="143" y="522"/>
      <point x="110" y="518" type="curve"/>
      <point x="101" y="499"/>
      <point x="87" y="455"/>
      <point x="77" y="419" type="curve"/>
      <point x="201" y="430"/>
      <point x="311" y="398"/>
      <point x="311" y="261" type="curve" smooth="yes"/>
      <point x="311" y="158"/>
      <point x="223" y="54"/>
      <point x="115" y="-22" type="curve"/>
      <point x="109" y="-17"/>
      <point x="104" y="-13"/>
      <point x="102" y="-4" type="curve"/>
      <point x="172" y="48"/>
      <point x="251" y="140"/>
      <point x="251" y="241" type="curve" smooth="yes"/>
      <point x="251" y="325"/>
      <point x="170" y="374"/>
      <point x="49" y="364" type="curve"/>
      <point x="44" y="365"/>
      <point x="37" y="371"/>
      <point x="37" y="371" type="curve"/>
      <point x="59" y="432"/>
      <point x="89" y="533"/>
      <point x="104" y="584" type="curve"/>
      <point x="154" y="580"/>
      <point x="260" y="578"/>
    </contour>
  </outline>
</glyph>
<glyph name="six" format="1">
  <advance width="438"/>
  <unicode hex="0036"/>
  <outline>
    <contour>
      <point x="265" y="600" type="curve"/>
      <point x="275" y="597"/>
      <point x="275" y="595"/>
      <point x="282" y="588" type="curve"/>
      <point x="183" y="481"/>
      <point x="106" y="339"/>
      <point x="106" y="209" type="curve" smooth="yes"/>
      <point x="106" y="58"/>
      <point x="167" y="21"/>
      <point x="211" y="21" type="curve" smooth="yes"/>
      <point x="286" y="21"/>
      <point x="331" y="70"/>
      <point x="331" y="139" type="curve" smooth="yes"/>
      <point x="331" y="192"/>
      <point x="312" y="245"/>
      <point x="246" y="245" type="curve" smooth="yes"/>
      <point x="220" y="245"/>
      <point x="181" y="232"/>
      <point x="157" y="221" type="curve"/>
      <point x="151" y="226"/>
      <point x="148" y="234"/>
      <point x="147" y="241" type="curve"/>
      <point x="176" y="260"/>
      <point x="227" y="281"/>
      <point x="275" y="281" type="curve" smooth="yes"/>
      <point x="338" y="281"/>
      <point x="401" y="244"/>
      <point x="401" y="152" type="curve" smooth="yes"/>
      <point x="401" y="93"/>
      <point x="324" y="-16"/>
      <point x="191" y="-16" type="curve" smooth="yes"/>
      <point x="80" y="-16"/>
      <point x="37" y="76"/>
      <point x="37" y="183" type="curve" smooth="yes"/>
      <point x="37" y="324"/>
      <point x="159" y="497"/>
    </contour>
  </outline>
</glyph>
<glyph name="seven" format="1">
  <advance width="419"/>
  <unicode hex="0037"/>
  <outline>
    <contour>
      <point x="62" y="-32" type="curve"/>
      <point x="115" y="118"/>
      <point x="186" y="270"/>
      <point x="350" y="512" type="curve"/>
      <point x="273" y="519"/>
      <point x="92" y="514"/>
      <point x="39" y="501" type="curve"/>
      <point x="53" y="537"/>
      <point x="60" y="566"/>
      <point x="65" y="591" type="curve"/>
      <point x="139" y="578"/>
      <point x="334" y="578"/>
      <point x="403" y="583" type="curve"/>
      <point x="410" y="578"/>
      <point x="414" y="573"/>
      <point x="417" y="564" type="curve"/>
      <point x="246" y="335"/>
      <point x="168" y="134"/>
      <point x="152" y="7" type="curve"/>
      <point x="126" y="-2"/>
      <point x="95" y="-15"/>
    </contour>
  </outline>
</glyph>
<glyph name="eight" format="1">
  <advance width="415"/>
  <unicode hex="0038"/>
  <outline>
    <contour>
      <point x="275" y="578" type="curve"/>
      <point x="273" y="571"/>
      <point x="269" y="564"/>
      <point x="264" y="559" type="curve"/>
      <point x="255" y="563"/>
      <point x="238" y="567"/>
      <point x="218" y="567" type="curve" smooth="yes"/>
      <point x="188" y="567"/>
      <point x="149" y="538"/>
      <point x="149" y="493" type="curve" smooth="yes"/>
      <point x="149" y="452"/>
      <point x="195" y="423"/>
      <point x="229" y="397" type="curve"/>
      <point x="278" y="452"/>
      <point x="323" y="514"/>
      <point x="350" y="600" type="curve"/>
      <point x="359" y="602"/>
      <point x="366" y="600"/>
      <point x="373" y="597" type="curve"/>
      <point x="350" y="504"/>
      <point x="326" y="455"/>
      <point x="246" y="382" type="curve"/>
      <point x="259" y="373"/>
      <point x="274" y="363"/>
      <point x="285" y="353" type="curve" smooth="yes"/>
      <point x="345" y="303"/>
      <point x="380" y="251"/>
      <point x="380" y="182" type="curve" smooth="yes"/>
      <point x="379" y="75"/>
      <point x="275" y="-13"/>
      <point x="176" y="-13" type="curve" smooth="yes"/>
      <point x="92" y="-13"/>
      <point x="33" y="32"/>
      <point x="33" y="132" type="curve" smooth="yes"/>
      <point x="33" y="223"/>
      <point x="97" y="283"/>
      <point x="176" y="348" type="curve"/>
      <point x="151" y="370"/>
      <point x="125" y="389"/>
      <point x="110" y="407" type="curve" smooth="yes"/>
      <point x="73" y="450"/>
      <point x="63" y="493"/>
      <point x="116" y="550" type="curve" smooth="yes"/>
      <point x="140" y="576"/>
      <point x="168" y="593"/>
      <point x="220" y="593" type="curve" smooth="yes"/>
      <point x="241" y="593"/>
      <point x="261" y="590"/>
    </contour>
    <contour>
      <point x="196" y="333" type="line"/>
      <point x="133" y="283"/>
      <point x="97" y="212"/>
      <point x="96" y="158" type="curve"/>
      <point x="96" y="98"/>
      <point x="129" y="30"/>
      <point x="195" y="30" type="curve" smooth="yes"/>
      <point x="292" y="31"/>
      <point x="319" y="88"/>
      <point x="319" y="137" type="curve" smooth="yes"/>
      <point x="319" y="216"/>
      <point x="292" y="261"/>
      <point x="219" y="316" type="curve" smooth="yes"/>
    </contour>
  </outline>
</glyph>
<glyph name="nine" format="1">
  <advance width="424"/>
  <unicode hex="0039"/>
  <outline>
    <contour>
      <point x="158" y="-15" type="curve"/>
      <point x="151" y="-12"/>
      <point x="145" y="-8"/>
      <point x="139" y="-2" type="curve"/>
      <point x="236" y="119"/>
      <point x="315" y="238"/>
      <point x="315" y="368" type="curve" smooth="yes"/>
      <point x="315" y="520"/>
      <point x="263" y="570"/>
      <point x="213" y="570" type="curve" smooth="yes"/>
      <point x="134" y="570"/>
      <point x="107" y="501"/>
      <point x="107" y="447" type="curve" smooth="yes"/>
      <point x="107" y="394"/>
      <point x="124" y="343"/>
      <point x="190" y="343" type="curve" smooth="yes"/>
      <point x="216" y="343"/>
      <point x="235" y="347"/>
      <point x="258" y="358" type="curve"/>
      <point x="264" y="350"/>
      <point x="266" y="345"/>
      <point x="267" y="339" type="curve"/>
      <point x="238" y="320"/>
      <point x="204" y="305"/>
      <point x="161" y="305" type="curve" smooth="yes"/>
      <point x="98" y="305"/>
      <point x="37" y="342"/>
      <point x="37" y="434" type="curve" smooth="yes"/>
      <point x="37" y="493"/>
      <point x="101" y="599"/>
      <point x="234" y="599" type="curve" smooth="yes"/>
      <point x="365" y="599"/>
      <point x="386" y="475"/>
      <point x="386" y="399" type="curve" smooth="yes"/>
      <point x="386" y="265"/>
      <point x="268" y="112"/>
    </contour>
  </outline>
</glyph>
<glyph name="colon" format="1">
  <advance width="162"/>
  <unicode hex="003A"/>
  <outline>
    <contour>
      <point x="84" y="63" type="curve" smooth="yes"/>
      <point x="112" y="63"/>
      <point x="126" y="51"/>
      <point x="126" y="32" type="curve" smooth="yes"/>
      <point x="126" y="7"/>
      <point x="96" y="-7"/>
      <point x="69" y="-7" type="curve" smooth="yes"/>
      <point x="49" y="-7"/>
      <point x="33" y="4"/>
      <point x="33" y="22" type="curve" smooth="yes"/>
      <point x="33" y="43"/>
      <point x="58" y="63"/>
    </contour>
    <contour>
      <point x="84" y="346" type="curve" smooth="yes"/>
      <point x="112" y="346"/>
      <point x="126" y="334"/>
      <point x="126" y="315" type="curve" smooth="yes"/>
      <point x="126" y="290"/>
      <point x="96" y="276"/>
      <point x="69" y="276" type="curve" smooth="yes"/>
      <point x="49" y="276"/>
      <point x="33" y="287"/>
      <point x="33" y="305" type="curve" smooth="yes"/>
      <point x="33" y="326"/>
      <point x="58" y="346"/>
    </contour>
  </outline>
</glyph>
<glyph name="less" format="1">
  <advance width="388"/>
  <unicode hex="003C"/>
  <outline>
    <contour>
      <point x="42" y="212" type="curve"/>
      <point x="140" y="263"/>
      <point x="270" y="337"/>
      <point x="310" y="362" type="curve"/>
      <point x="320" y="354"/>
      <point x="323" y="343"/>
      <point x="326" y="333" type="curve"/>
      <point x="270" y="302"/>
      <point x="152" y="237"/>
      <point x="97" y="205" type="curve"/>
      <point x="155" y="171"/>
      <point x="266" y="102"/>
      <point x="326" y="67" type="curve"/>
      <point x="322" y="57"/>
      <point x="315" y="46"/>
      <point x="303" y="39" type="curve"/>
      <point x="249" y="74"/>
      <point x="134" y="145"/>
      <point x="42" y="196" type="curve"/>
      <point x="41" y="201"/>
      <point x="41" y="207"/>
    </contour>
  </outline>
</glyph>
<glyph name="equal" format="1">
  <advance width="388"/>
  <unicode hex="003D"/>
  <outline>
    <contour>
      <point x="38" y="295" type="curve"/>
      <point x="139" y="292"/>
      <point x="279" y="292"/>
      <point x="354" y="293" type="curve"/>
      <point x="355" y="282"/>
      <point x="353" y="272"/>
      <point x="348" y="262" type="curve"/>
      <point x="251" y="265"/>
      <point x="160" y="266"/>
      <point x="35" y="265" type="curve"/>
      <point x="32" y="273"/>
      <point x="36" y="289"/>
    </contour>
    <contour>
      <point x="38" y="184" type="curve"/>
      <point x="139" y="182"/>
      <point x="279" y="182"/>
      <point x="354" y="183" type="curve"/>
      <point x="355" y="172"/>
      <point x="353" y="161"/>
      <point x="348" y="151" type="curve"/>
      <point x="251" y="154"/>
      <point x="160" y="155"/>
      <point x="35" y="154" type="curve"/>
      <point x="32" y="162"/>
      <point x="36" y="179"/>
    </contour>
  </outline>
</glyph>
<glyph name="greater" format="1">
  <advance width="388"/>
  <unicode hex="003E"/>
  <outline>
    <contour>
      <point x="345" y="189" type="curve"/>
      <point x="248" y="138"/>
      <point x="117" y="64"/>
      <point x="77" y="39" type="curve"/>
      <point x="68" y="47"/>
      <point x="65" y="58"/>
      <point x="62" y="68" type="curve"/>
      <point x="117" y="99"/>
      <point x="236" y="164"/>
      <point x="291" y="196" type="curve"/>
      <point x="233" y="231"/>
      <point x="122" y="299"/>
      <point x="62" y="334" type="curve"/>
      <point x="66" y="344"/>
      <point x="73" y="355"/>
      <point x="85" y="362" type="curve"/>
      <point x="139" y="327"/>
      <point x="254" y="256"/>
      <point x="345" y="205" type="curve"/>
      <point x="347" y="200"/>
      <point x="347" y="194"/>
    </contour>
  </outline>
</glyph>
<glyph name="question" format="1">
  <advance width="262"/>
  <unicode hex="003F"/>
  <outline>
    <contour>
      <point x="121" y="159" type="curve"/>
      <point x="97" y="151" type="line"/>
      <point x="83" y="194"/>
      <point x="76" y="228"/>
      <point x="77" y="265" type="curve" smooth="yes"/>
      <point x="78" y="334"/>
      <point x="156" y="374"/>
      <point x="156" y="445" type="curve" smooth="yes"/>
      <point x="156" y="495"/>
      <point x="114" y="542"/>
      <point x="73" y="583" type="curve"/>
      <point x="87" y="601" type="line"/>
      <point x="161" y="545"/>
      <point x="216" y="477"/>
      <point x="216" y="429" type="curve" smooth="yes"/>
      <point x="216" y="344"/>
      <point x="115" y="295"/>
      <point x="112" y="218" type="curve" smooth="yes"/>
      <point x="111" y="205"/>
      <point x="113" y="179"/>
    </contour>
    <contour>
      <point x="117" y="63" type="curve" smooth="yes"/>
      <point x="145" y="63"/>
      <point x="159" y="51"/>
      <point x="159" y="32" type="curve" smooth="yes"/>
      <point x="159" y="7"/>
      <point x="129" y="-7"/>
      <point x="102" y="-7" type="curve" smooth="yes"/>
      <point x="82" y="-7"/>
      <point x="67" y="4"/>
      <point x="67" y="22" type="curve" smooth="yes"/>
      <point x="67" y="43"/>
      <point x="92" y="63"/>
    </contour>
  </outline>
</glyph>
<glyph name="at" format="1">
  <advance width="741"/>
  <unicode hex="0040"/>
  <outline>
    <contour>
      <point x="446" y="-120" type="curve"/>
      <point x="458" y="-146" type="line"/>
      <point x="422" y="-158"/>
      <point x="344" y="-180"/>
      <point x="306" y="-180" type="curve" smooth="yes"/>
      <point x="124" y="-180"/>
      <point x="38" y="-63"/>
      <point x="38" y="113" type="curve" smooth="yes"/>
      <point x="38" y="382"/>
      <point x="272" y="558"/>
      <point x="480" y="558" type="curve" smooth="yes"/>
      <point x="588" y="558"/>
      <point x="704" y="505"/>
      <point x="704" y="344" type="curve" smooth="yes"/>
      <point x="704" y="206"/>
      <point x="621" y="110"/>
      <point x="454" y="-12" type="curve"/>
      <point x="434" y="2"/>
      <point x="416" y="47"/>
      <point x="416" y="95" type="curve" smooth="yes"/>
      <point x="416" y="113"/>
      <point x="419" y="136"/>
      <point x="422" y="154" type="curve"/>
      <point x="367" y="114"/>
      <point x="285" y="39"/>
      <point x="230" y="-12" type="curve"/>
      <point x="209" y="2"/>
      <point x="193" y="47"/>
      <point x="193" y="95" type="curve" smooth="yes"/>
      <point x="193" y="185"/>
      <point x="246" y="285"/>
      <point x="309" y="337" type="curve" smooth="yes"/>
      <point x="354" y="374"/>
      <point x="412" y="384"/>
      <point x="437" y="385" type="curve"/>
      <point x="480" y="385"/>
      <point x="514" y="385"/>
      <point x="548" y="384" type="curve"/>
      <point x="529" y="361"/>
      <point x="501" y="262"/>
      <point x="487" y="168" type="curve" smooth="yes"/>
      <point x="482" y="133"/>
      <point x="485" y="89"/>
      <point x="503" y="61" type="curve"/>
      <point x="588" y="121"/>
      <point x="669" y="211"/>
      <point x="669" y="344" type="curve" smooth="yes"/>
      <point x="669" y="477"/>
      <point x="578" y="529"/>
      <point x="474" y="529" type="curve" smooth="yes"/>
      <point x="270" y="529"/>
      <point x="75" y="358"/>
      <point x="75" y="117" type="curve" smooth="yes"/>
      <point x="75" y="-49"/>
      <point x="157" y="-146"/>
      <point x="313" y="-146" type="curve" smooth="yes"/>
      <point x="351" y="-146"/>
      <point x="422" y="-127"/>
    </contour>
    <contour>
      <point x="464" y="357" type="curve"/>
      <point x="421" y="362"/>
      <point x="375" y="351"/>
      <point x="340" y="322" type="curve"/>
      <point x="286" y="275"/>
      <point x="260" y="199"/>
      <point x="260" y="147" type="curve" smooth="yes"/>
      <point x="260" y="117"/>
      <point x="262" y="95"/>
      <point x="275" y="70" type="curve"/>
      <point x="305" y="91"/>
      <point x="413" y="174"/>
      <point x="432" y="193" type="curve"/>
      <point x="440" y="219"/>
      <point x="464" y="325"/>
    </contour>
  </outline>
</glyph>
<glyph name="B" format="1">
  <advance width="459"/>
  <unicode hex="0042"/>
  <outline>
    <contour>
      <point x="55" y="582" type="curve"/>
      <point x="91" y="578"/>
      <point x="151" y="583"/>
      <point x="196" y="583" type="curve" smooth="yes"/>
      <point x="283" y="584"/>
      <point x="383" y="576"/>
      <point x="383" y="477" type="curve"/>
      <point x="384" y="439"/>
      <point x="336" y="377"/>
      <point x="274" y="348" type="curve"/>
      <point x="275" y="345" type="line"/>
      <point x="384" y="348"/>
      <point x="434" y="308"/>
      <point x="434" y="219" type="curve" smooth="yes"/>
      <point x="434" y="136"/>
      <point x="320" y="1"/>
      <point x="155" y="-2" type="curve" smooth="yes"/>
      <point x="120" y="-2"/>
      <point x="87" y="-4"/>
      <point x="48" y="-1" type="curve"/>
      <point x="57" y="204"/>
      <point x="59" y="470"/>
    </contour>
    <contour>
      <point x="127" y="556" type="curve"/>
      <point x="122" y="350"/>
      <point x="121" y="214"/>
      <point x="127" y="27" type="curve"/>
      <point x="137" y="25"/>
      <point x="147" y="24"/>
      <point x="159" y="24" type="curve" smooth="yes"/>
      <point x="261" y="25"/>
      <point x="368" y="117"/>
      <point x="365" y="217" type="curve"/>
      <point x="365" y="285"/>
      <point x="324" y="319"/>
      <point x="252" y="319" type="curve" smooth="yes"/>
      <point x="241" y="319"/>
      <point x="219" y="319"/>
      <point x="204" y="315" type="curve"/>
      <point x="200" y="320"/>
      <point x="199" y="330"/>
      <point x="198" y="336" type="curve"/>
      <point x="256" y="355"/>
      <point x="315" y="403"/>
      <point x="315" y="470" type="curve" smooth="yes"/>
      <point x="315" y="515"/>
      <point x="275" y="553"/>
      <point x="203" y="558" type="curve"/>
      <point x="182" y="558"/>
      <point x="152" y="557"/>
    </contour>
  </outline>
</glyph>
<glyph name="F" format="1">
  <advance width="410"/>
  <unicode hex="0046"/>
  <outline>
    <contour>
      <point x="407" y="582" type="curve"/>
      <point x="404" y="558" type="line"/>
      <point x="304" y="555"/>
      <point x="230" y="555"/>
      <point x="137" y="547" type="curve"/>
      <point x="135" y="523"/>
      <point x="130" y="417"/>
      <point x="132" y="342" type="curve"/>
      <point x="211" y="345"/>
      <point x="274" y="349"/>
      <point x="350" y="353" type="curve"/>
      <point x="350" y="326" type="line"/>
      <point x="326" y="325"/>
      <point x="197" y="316"/>
      <point x="130" y="307" type="curve"/>
      <point x="128" y="249"/>
      <point x="128" y="52"/>
      <point x="137" y="-2" type="curve"/>
      <point x="112" y="2"/>
      <point x="72" y="3"/>
      <point x="48" y="0" type="curve"/>
      <point x="60" y="117"/>
      <point x="62" y="424"/>
      <point x="57" y="583" type="curve"/>
      <point x="141" y="579"/>
      <point x="292" y="579"/>
    </contour>
  </outline>
</glyph>
<glyph name="H" format="1">
  <advance width="596"/>
  <unicode hex="0048"/>
  <outline>
    <contour>
      <point x="59" y="583" type="curve"/>
      <point x="77" y="582"/>
      <point x="121" y="580"/>
      <point x="142" y="583" type="curve"/>
      <point x="134" y="507"/>
      <point x="132" y="384"/>
      <point x="132" y="332" type="curve"/>
      <point x="207" y="333"/>
      <point x="387" y="341"/>
      <point x="469" y="347" type="curve"/>
      <point x="469" y="422"/>
      <point x="469" y="533"/>
      <point x="465" y="583" type="curve"/>
      <point x="491" y="580"/>
      <point x="524" y="579"/>
      <point x="548" y="583" type="curve"/>
      <point x="533" y="456"/>
      <point x="533" y="146"/>
      <point x="543" y="-2" type="curve"/>
      <point x="525" y="-1"/>
      <point x="481" y="1"/>
      <point x="459" y="-2" type="curve"/>
      <point x="467" y="69"/>
      <point x="467" y="255"/>
      <point x="469" y="324" type="curve"/>
      <point x="422" y="321"/>
      <point x="193" y="304"/>
      <point x="130" y="296" type="curve"/>
      <point x="128" y="238"/>
      <point x="126" y="62"/>
      <point x="131" y="-2" type="curve"/>
      <point x="105" y="1"/>
      <point x="72" y="3"/>
      <point x="48" y="0" type="curve"/>
      <point x="62" y="117"/>
      <point x="67" y="424"/>
    </contour>
  </outline>
</glyph>
<glyph name="K" format="1">
  <advance width="567"/>
  <unicode hex="004B"/>
  <outline>
    <contour>
      <point x="136" y="583" type="curve"/>
      <point x="132" y="517"/>
      <point x="127" y="443"/>
      <point x="127" y="390" type="curve"/>
      <point x="242" y="439"/>
      <point x="372" y="507"/>
      <point x="509" y="593" type="curve"/>
      <point x="499" y="572"/>
      <point x="486" y="538"/>
      <point x="481" y="510" type="curve"/>
      <point x="420" y="491"/>
      <point x="339" y="457"/>
      <point x="303" y="439" type="curve"/>
      <point x="375" y="303"/>
      <point x="480" y="102"/>
      <point x="560" y="-1" type="curve"/>
      <point x="519" y="2"/>
      <point x="489" y="3"/>
      <point x="456" y="-2" type="curve"/>
      <point x="400" y="122"/>
      <point x="300" y="313"/>
      <point x="241" y="412" type="curve"/>
      <point x="204" y="398"/>
      <point x="173" y="385"/>
      <point x="127" y="364" type="curve"/>
      <point x="124" y="231"/>
      <point x="126" y="91"/>
      <point x="131" y="-2" type="curve"/>
      <point x="105" y="1"/>
      <point x="72" y="3"/>
      <point x="48" y="0" type="curve"/>
      <point x="61" y="133"/>
      <point x="62" y="424"/>
      <point x="55" y="583" type="curve"/>
      <point x="72" y="579"/>
      <point x="115" y="581"/>
    </contour>
  </outline>
</glyph>
<glyph name="M" format="1">
  <advance width="819"/>
  <unicode hex="004D"/>
  <outline>
    <contour>
      <point x="12" y="-3" type="curve"/>
      <point x="79" y="138"/>
      <point x="134" y="310"/>
      <point x="179" y="452" type="curve" smooth="yes"/>
      <point x="189" y="483"/>
      <point x="205" y="554"/>
      <point x="205" y="583" type="curve"/>
      <point x="215" y="586"/>
      <point x="221" y="586"/>
      <point x="234" y="592" type="curve"/>
      <point x="256" y="507"/>
      <point x="366" y="216"/>
      <point x="412" y="104" type="curve"/>
      <point x="459" y="196"/>
      <point x="550" y="414"/>
      <point x="568" y="454" type="curve" smooth="yes"/>
      <point x="594" y="514"/>
      <point x="601" y="536"/>
      <point x="611" y="582" type="curve"/>
      <point x="623" y="583"/>
      <point x="630" y="586"/>
      <point x="640" y="589" type="curve"/>
      <point x="671" y="439"/>
      <point x="717" y="233"/>
      <point x="785" y="-2" type="curve"/>
      <point x="758" y="3"/>
      <point x="713" y="1"/>
      <point x="693" y="-2" type="curve"/>
      <point x="676" y="125"/>
      <point x="620" y="349"/>
      <point x="599" y="463" type="curve"/>
      <point x="537" y="319"/>
      <point x="457" y="132"/>
      <point x="413" y="5" type="curve"/>
      <point x="404" y="-1"/>
      <point x="387" y="-9"/>
      <point x="373" y="-17" type="curve"/>
      <point x="207" y="454" type="line"/>
      <point x="162" y="307"/>
      <point x="127" y="156"/>
      <point x="90" y="2" type="curve"/>
      <point x="63" y="0"/>
      <point x="42" y="0"/>
    </contour>
  </outline>
</glyph>
<glyph name="P" format="1">
  <advance width="449"/>
  <unicode hex="0050"/>
  <outline>
    <contour>
      <point x="48" y="-1" type="curve"/>
      <point x="62" y="83"/>
      <point x="61" y="505"/>
      <point x="52" y="583" type="curve"/>
      <point x="90" y="579"/>
      <point x="136" y="583"/>
      <point x="216" y="583" type="curve" smooth="yes"/>
      <point x="339" y="583"/>
      <point x="424" y="566"/>
      <point x="424" y="452" type="curve" smooth="yes"/>
      <point x="424" y="386"/>
      <point x="339" y="317"/>
      <point x="191" y="279" type="curve"/>
      <point x="188" y="283"/>
      <point x="183" y="298"/>
      <point x="183" y="301" type="curve"/>
      <point x="283" y="334"/>
      <point x="351" y="374"/>
      <point x="351" y="456" type="curve" smooth="yes"/>
      <point x="351" y="521"/>
      <point x="290" y="555"/>
      <point x="221" y="557" type="curve" smooth="yes"/>
      <point x="174" y="559"/>
      <point x="144" y="556"/>
      <point x="125" y="555" type="curve"/>
      <point x="117" y="444"/>
      <point x="131" y="54"/>
      <point x="135" y="-1" type="curve"/>
      <point x="116" y="2"/>
      <point x="72" y="2"/>
    </contour>
  </outline>
</glyph>
<glyph name="Q" format="1">
  <advance width="677"/>
  <unicode hex="0051"/>
  <outline>
    <contour>
      <point x="363" y="594" type="curve" smooth="yes"/>
      <point x="517" y="594"/>
      <point x="631" y="479"/>
      <point x="632" y="317" type="curve" smooth="yes"/>
      <point x="633" y="212"/>
      <point x="580" y="111"/>
      <point x="495" y="47" type="curve" smooth="yes"/>
      <point x="466" y="25"/>
      <point x="417" y="3"/>
      <point x="371" y="-6" type="curve"/>
      <point x="458" y="-57"/>
      <point x="593" y="-111"/>
      <point x="681" y="-131" type="curve"/>
      <point x="631" y="-151"/>
      <point x="594" y="-170"/>
      <point x="564" y="-188" type="curve"/>
      <point x="477" y="-119"/>
      <point x="414" y="-69"/>
      <point x="325" y="-13" type="curve"/>
      <point x="320" y="-14"/>
      <point x="308" y="-14"/>
      <point x="303" y="-14" type="curve" smooth="yes"/>
      <point x="102" y="-14"/>
      <point x="41" y="161"/>
      <point x="41" y="278" type="curve"/>
      <point x="42" y="360"/>
      <point x="85" y="478"/>
      <point x="186" y="542" type="curve" smooth="yes"/>
      <point x="227" y="568"/>
      <point x="303" y="594"/>
    </contour>
    <contour>
      <point x="348" y="562" type="curve" smooth="yes"/>
      <point x="221" y="562"/>
      <point x="117" y="464"/>
      <point x="117" y="278" type="curve" smooth="yes"/>
      <point x="117" y="139"/>
      <point x="212" y="17"/>
      <point x="325" y="17" type="curve" smooth="yes"/>
      <point x="456" y="17"/>
      <point x="557" y="136"/>
      <point x="557" y="311" type="curve"/>
      <point x="549" y="499"/>
      <point x="420" y="562"/>
    </contour>
  </outline>
</glyph>
<glyph name="S" format="1">
  <advance width="298"/>
  <unicode hex="0053"/>
  <outline>
    <contour>
      <point x="17" y="-2" type="curve"/>
      <point x="16" y="8"/>
      <point x="17" y="15"/>
      <point x="21" y="27" type="curve"/>
      <point x="30" y="25"/>
      <point x="41" y="24"/>
      <point x="55" y="24" type="curve" smooth="yes"/>
      <point x="137" y="24"/>
      <point x="196" y="77"/>
      <point x="193" y="146" type="curve"/>
      <point x="193" y="220"/>
      <point x="151" y="261"/>
      <point x="103" y="311" type="curve" smooth="yes"/>
      <point x="71" y="345"/>
      <point x="47" y="385"/>
      <point x="47" y="425" type="curve" smooth="yes"/>
      <point x="47" y="490"/>
      <point x="112" y="553"/>
      <point x="193" y="599" type="curve"/>
      <point x="199" y="596"/>
      <point x="206" y="586"/>
      <point x="206" y="579" type="curve"/>
      <point x="144" y="533"/>
      <point x="111" y="505"/>
      <point x="109" y="455" type="curve" smooth="yes"/>
      <point x="107" y="418"/>
      <point x="145" y="373"/>
      <point x="175" y="340" type="curve"/>
      <point x="218" y="297"/>
      <point x="262" y="241"/>
      <point x="262" y="170" type="curve" smooth="yes"/>
      <point x="262" y="107"/>
      <point x="211" y="-4"/>
      <point x="53" y="-4" type="curve" smooth="yes"/>
      <point x="43" y="-4"/>
      <point x="29" y="-4"/>
    </contour>
  </outline>
</glyph>
<glyph name="T" format="1">
  <advance width="441"/>
  <unicode hex="0054"/>
  <outline>
    <contour>
      <point x="6" y="582" type="curve"/>
      <point x="198" y="577"/>
      <point x="264" y="578"/>
      <point x="436" y="581" type="curve"/>
      <point x="439" y="574"/>
      <point x="438" y="572"/>
      <point x="437" y="561" type="curve"/>
      <point x="369" y="554"/>
      <point x="305" y="550"/>
      <point x="256" y="542" type="curve"/>
      <point x="252" y="449"/>
      <point x="251" y="201"/>
      <point x="262" y="-2" type="curve"/>
      <point x="236" y="2"/>
      <point x="214" y="2"/>
      <point x="177" y="-1" type="curve"/>
      <point x="185" y="46"/>
      <point x="190" y="489"/>
      <point x="186" y="541" type="curve"/>
      <point x="139" y="549"/>
      <point x="87" y="555"/>
      <point x="5" y="559" type="curve"/>
      <point x="3" y="567"/>
      <point x="2" y="570"/>
    </contour>
  </outline>
</glyph>
<glyph name="V" format="1">
  <advance width="552"/>
  <unicode hex="0056"/>
  <outline>
    <contour>
      <point x="26" y="584" type="curve"/>
      <point x="64" y="579"/>
      <point x="85" y="580"/>
      <point x="124" y="585" type="curve"/>
      <point x="150" y="442"/>
      <point x="213" y="257"/>
      <point x="273" y="90" type="curve"/>
      <point x="280" y="111"/>
      <point x="291" y="139"/>
      <point x="303" y="164" type="curve"/>
      <point x="359" y="294"/>
      <point x="432" y="476"/>
      <point x="464" y="575" type="curve"/>
      <point x="490" y="578"/>
      <point x="515" y="583"/>
      <point x="541" y="594" type="curve"/>
      <point x="509" y="542"/>
      <point x="350" y="205"/>
      <point x="331" y="165" type="curve" smooth="yes"/>
      <point x="311" y="123"/>
      <point x="285" y="55"/>
      <point x="275" y="12" type="curve"/>
      <point x="257" y="-3"/>
      <point x="251" y="-12"/>
      <point x="227" y="-20" type="curve"/>
      <point x="169" y="183"/>
      <point x="108" y="385"/>
    </contour>
  </outline>
</glyph>
<glyph name="X" format="1">
  <advance width="609"/>
  <unicode hex="0058"/>
  <outline>
    <contour>
      <point x="208" y="581" type="curve"/>
      <point x="248" y="499"/>
      <point x="290" y="427"/>
      <point x="325" y="369" type="curve"/>
      <point x="388" y="444"/>
      <point x="432" y="514"/>
      <point x="458" y="575" type="curve"/>
      <point x="481" y="576"/>
      <point x="517" y="582"/>
      <point x="556" y="592" type="curve"/>
      <point x="497" y="539"/>
      <point x="390" y="412"/>
      <point x="342" y="348" type="curve"/>
      <point x="411" y="239"/>
      <point x="489" y="109"/>
      <point x="575" y="-1" type="curve"/>
      <point x="549" y="2"/>
      <point x="486" y="2"/>
      <point x="460" y="-1" type="curve"/>
      <point x="418" y="97"/>
      <point x="328" y="245"/>
      <point x="296" y="296" type="curve"/>
      <point x="247" y="235"/>
      <point x="143" y="85"/>
      <point x="107" y="8" type="curve"/>
      <point x="68" y="2"/>
      <point x="35" y="1"/>
      <point x="-15" y="-17" type="curve"/>
      <point x="74" y="70"/>
      <point x="221" y="237"/>
      <point x="280" y="318" type="curve"/>
      <point x="241" y="387"/>
      <point x="107" y="571"/>
      <point x="91" y="581" type="curve"/>
      <point x="114" y="578"/>
      <point x="169" y="575"/>
    </contour>
  </outline>
</glyph>
<glyph name="bracketleft" format="1">
  <advance width="241"/>
  <unicode hex="005B"/>
  <outline>
    <contour>
      <point x="207" y="-37" type="curve"/>
      <point x="211" y="-45"/>
      <point x="211" y="-52"/>
      <point x="211" y="-61" type="curve"/>
      <point x="145" y="-69"/>
      <point x="108" y="-72"/>
      <point x="48" y="-85" type="curve"/>
      <point x="62" y="34"/>
      <point x="62" y="470"/>
      <point x="54" y="583" type="curve"/>
      <point x="92" y="580"/>
      <point x="165" y="583"/>
      <point x="206" y="583" type="curve"/>
      <point x="207" y="576"/>
      <point x="208" y="567"/>
      <point x="205" y="560" type="curve"/>
      <point x="183" y="559"/>
      <point x="151" y="556"/>
      <point x="130" y="553" type="curve"/>
      <point x="121" y="398"/>
      <point x="120" y="168"/>
      <point x="126" y="-38" type="curve"/>
      <point x="161" y="-40"/>
      <point x="181" y="-39"/>
    </contour>
  </outline>
</glyph>
<glyph name="backslash" format="1">
  <advance width="293"/>
  <unicode hex="005C"/>
  <outline>
    <contour>
      <point x="26" y="600" type="line"/>
      <point x="31" y="604"/>
      <point x="46" y="606"/>
      <point x="55" y="605" type="curve"/>
      <point x="269" y="-42" type="line"/>
      <point x="258" y="-47"/>
      <point x="250" y="-46"/>
      <point x="239" y="-46" type="curve"/>
    </contour>
  </outline>
</glyph>
<glyph name="bracketright" format="1">
  <advance width="242"/>
  <unicode hex="005D"/>
  <outline>
    <contour>
      <point x="194" y="583" type="curve"/>
      <point x="181" y="459"/>
      <point x="179" y="42"/>
      <point x="188" y="-66" type="curve"/>
      <point x="144" y="-69"/>
      <point x="82" y="-79"/>
      <point x="34" y="-88" type="curve"/>
      <point x="31" y="-81"/>
      <point x="29" y="-71"/>
      <point x="30" y="-61" type="curve"/>
      <point x="62" y="-54"/>
      <point x="82" y="-51"/>
      <point x="112" y="-37" type="curve"/>
      <point x="121" y="122"/>
      <point x="116" y="385"/>
      <point x="116" y="548" type="curve"/>
      <point x="96" y="550"/>
      <point x="62" y="552"/>
      <point x="42" y="552" type="curve"/>
      <point x="41" y="562"/>
      <point x="39" y="572"/>
      <point x="41" y="582" type="curve"/>
      <point x="94" y="579"/>
      <point x="138" y="579"/>
    </contour>
  </outline>
</glyph>
<glyph name="asciicircum" format="1">
  <advance width="375"/>
  <unicode hex="005E"/>
  <outline>
    <contour>
      <point x="204" y="592" type="curve"/>
      <point x="247" y="506"/>
      <point x="305" y="394"/>
      <point x="326" y="359" type="curve"/>
      <point x="320" y="350"/>
      <point x="306" y="344"/>
      <point x="298" y="342" type="curve"/>
      <point x="271" y="402"/>
      <point x="223" y="497"/>
      <point x="195" y="548" type="curve"/>
      <point x="161" y="496"/>
      <point x="103" y="395"/>
      <point x="74" y="342" type="curve"/>
      <point x="64" y="346"/>
      <point x="56" y="349"/>
      <point x="50" y="360" type="curve"/>
      <point x="83" y="407"/>
      <point x="144" y="511"/>
      <point x="188" y="592" type="curve"/>
      <point x="193" y="593"/>
      <point x="200" y="593"/>
    </contour>
  </outline>
</glyph>
<glyph name="underscore" format="1">
  <advance width="529"/>
  <unicode hex="005F"/>
  <outline>
    <contour>
      <point x="6" y="-96" type="curve"/>
      <point x="232" y="-99"/>
      <point x="303" y="-99"/>
      <point x="528" y="-98" type="curve"/>
      <point x="529" y="-109"/>
      <point x="526" y="-120"/>
      <point x="522" y="-128" type="curve"/>
      <point x="296" y="-127"/>
      <point x="225" y="-125"/>
      <point x="0" y="-126" type="curve"/>
      <point x="-1" y="-117"/>
      <point x="4" y="-102"/>
    </contour>
  </outline>
</glyph>
<glyph name="grave" format="1">
  <advance width="416"/>
  <unicode hex="0060"/>
  <outline>
    <contour>
      <point x="134" y="562" type="curve"/>
      <point x="171" y="539"/>
      <point x="245" y="500"/>
      <point x="304" y="473" type="curve"/>
      <point x="297" y="455" type="line"/>
      <point x="232" y="475"/>
      <point x="184" y="486"/>
      <point x="115" y="499" type="curve"/>
      <point x="124" y="518"/>
      <point x="132" y="543"/>
    </contour>
  </outline>
</glyph>
<glyph name="b" format="1">
  <advance width="461"/>
  <unicode hex="0062"/>
  <outline>
    <contour>
      <point x="48" y="687" type="curve"/>
      <point x="78" y="693"/>
      <point x="112" y="704"/>
      <point x="134" y="713" type="curve"/>
      <point x="122" y="610"/>
      <point x="126" y="463"/>
      <point x="124" y="348" type="curve"/>
      <point x="171" y="370"/>
      <point x="236" y="391"/>
      <point x="290" y="391" type="curve" smooth="yes"/>
      <point x="374" y="391"/>
      <point x="419" y="344"/>
      <point x="424" y="245" type="curve" smooth="yes"/>
      <point x="429" y="130"/>
      <point x="352" y="-11"/>
      <point x="196" y="-11" type="curve" smooth="yes"/>
      <point x="131" y="-11"/>
      <point x="63" y="17"/>
      <point x="47" y="33" type="curve"/>
      <point x="50" y="55"/>
      <point x="53" y="77"/>
      <point x="54" y="98" type="curve" smooth="yes"/>
      <point x="65" y="307"/>
      <point x="68" y="625"/>
    </contour>
    <contour>
      <point x="126" y="45" type="curve"/>
      <point x="156" y="20"/>
      <point x="179" y="15"/>
      <point x="204" y="15" type="curve" smooth="yes"/>
      <point x="271" y="15"/>
      <point x="360" y="70"/>
      <point x="360" y="227" type="curve"/>
      <point x="359" y="300"/>
      <point x="315" y="354"/>
      <point x="255" y="354" type="curve" smooth="yes"/>
      <point x="214" y="354"/>
      <point x="151" y="335"/>
      <point x="125" y="321" type="curve"/>
      <point x="122" y="268"/>
      <point x="123" y="81"/>
    </contour>
  </outline>
</glyph>
<glyph name="d" format="1">
  <advance width="456"/>
  <unicode hex="0064"/>
  <outline>
    <contour>
      <point x="229" y="392" type="curve" smooth="yes"/>
      <point x="269" y="392"/>
      <point x="306" y="381"/>
      <point x="334" y="375" type="curve"/>
      <point x="335" y="454"/>
      <point x="332" y="642"/>
      <point x="322" y="684" type="curve"/>
      <point x="362" y="693"/>
      <point x="375" y="696"/>
      <point x="409" y="714" type="curve"/>
      <point x="395" y="660"/>
      <point x="395" y="368"/>
      <point x="399" y="178" type="curve" smooth="yes"/>
      <point x="400" y="117"/>
      <point x="404" y="68"/>
      <point x="409" y="49" type="curve"/>
      <point x="349" y="25"/>
      <point x="270" y="-12"/>
      <point x="203" y="-12" type="curve" smooth="yes"/>
      <point x="94" y="-12"/>
      <point x="33" y="42"/>
      <point x="37" y="168" type="curve"/>
      <point x="40" y="300"/>
      <point x="123" y="392"/>
    </contour>
    <contour>
      <point x="226" y="362" type="curve" smooth="yes"/>
      <point x="192" y="362"/>
      <point x="106" y="317"/>
      <point x="104" y="166" type="curve" smooth="yes"/>
      <point x="103" y="84"/>
      <point x="158" y="20"/>
      <point x="215" y="20" type="curve" smooth="yes"/>
      <point x="265" y="20"/>
      <point x="304" y="34"/>
      <point x="328" y="45" type="curve"/>
      <point x="332" y="130"/>
      <point x="333" y="286"/>
      <point x="332" y="348" type="curve"/>
      <point x="299" y="357"/>
      <point x="268" y="362"/>
    </contour>
  </outline>
</glyph>
<glyph name="f" format="1">
  <advance width="242"/>
  <unicode hex="0066"/>
  <outline>
    <contour>
      <point x="39" y="383" type="curve"/>
      <point x="70" y="383" type="line"/>
      <point x="71" y="408"/>
      <point x="71" y="484"/>
      <point x="72" y="529" type="curve" smooth="yes"/>
      <point x="76" y="621"/>
      <point x="161" y="698"/>
      <point x="206" y="702" type="curve" smooth="yes"/>
      <point x="222" y="703"/>
      <point x="246" y="698"/>
      <point x="264" y="691" type="curve"/>
      <point x="261" y="682"/>
      <point x="257" y="677"/>
      <point x="251" y="670" type="curve"/>
      <point x="241" y="674"/>
      <point x="227" y="676"/>
      <point x="213" y="676" type="curve" smooth="yes"/>
      <point x="192" y="676"/>
      <point x="167" y="646"/>
      <point x="156" y="621" type="curve"/>
      <point x="140" y="588"/>
      <point x="132" y="536"/>
      <point x="132" y="383" type="curve"/>
      <point x="176" y="381"/>
      <point x="209" y="383"/>
      <point x="238" y="385" type="curve"/>
      <point x="238" y="373"/>
      <point x="236" y="356"/>
      <point x="232" y="352" type="curve"/>
      <point x="200" y="354"/>
      <point x="178" y="354"/>
      <point x="133" y="354" type="curve"/>
      <point x="132" y="285"/>
      <point x="134" y="90"/>
      <point x="146" y="-2" type="curve"/>
      <point x="122" y="2"/>
      <point x="83" y="1"/>
      <point x="61" y="-2" type="curve"/>
      <point x="72" y="119"/>
      <point x="71" y="238"/>
      <point x="71" y="353" type="curve"/>
      <point x="64" y="353"/>
      <point x="51" y="354"/>
      <point x="37" y="353" type="curve"/>
      <point x="37" y="364"/>
      <point x="37" y="370"/>
    </contour>
  </outline>
</glyph>
<glyph name="h" format="1">
  <advance width="474"/>
  <unicode hex="0068"/>
  <outline>
    <contour>
      <point x="51" y="682" type="curve"/>
      <point x="85" y="691"/>
      <point x="106" y="697"/>
      <point x="141" y="712" type="curve"/>
      <point x="126" y="635"/>
      <point x="126" y="432"/>
      <point x="127" y="357" type="curve"/>
      <point x="167" y="373"/>
      <point x="229" y="395"/>
      <point x="267" y="395" type="curve" smooth="yes"/>
      <point x="361" y="395"/>
      <point x="395" y="365"/>
      <point x="411" y="266" type="curve" smooth="yes"/>
      <point x="417" y="230"/>
      <point x="424" y="34"/>
      <point x="432" y="-1" type="curve"/>
      <point x="396" y="1"/>
      <point x="377" y="4"/>
      <point x="347" y="-2" type="curve"/>
      <point x="356" y="59"/>
      <point x="347" y="213"/>
      <point x="340" y="262" type="curve" smooth="yes"/>
      <point x="337" y="288"/>
      <point x="323" y="356"/>
      <point x="262" y="357" type="curve"/>
      <point x="219" y="359"/>
      <point x="154" y="342"/>
      <point x="127" y="331" type="curve"/>
      <point x="127" y="240"/>
      <point x="129" y="110"/>
      <point x="134" y="-2" type="curve"/>
      <point x="107" y="2"/>
      <point x="107" y="4"/>
      <point x="48" y="-2" type="curve"/>
      <point x="64" y="102"/>
      <point x="65" y="515"/>
    </contour>
  </outline>
</glyph>
<glyph name="i" format="1">
  <advance width="183"/>
  <unicode hex="0069"/>
  <outline>
    <contour>
      <point x="49" y="0" type="curve"/>
      <point x="60" y="92"/>
      <point x="59" y="298"/>
      <point x="48" y="379" type="curve"/>
      <point x="77" y="380"/>
      <point x="100" y="385"/>
      <point x="127" y="391" type="curve"/>
      <point x="117" y="327"/>
      <point x="121" y="74"/>
      <point x="134" y="-2" type="curve"/>
      <point x="108" y="6"/>
      <point x="62" y="1"/>
    </contour>
    <contour>
      <point x="99" y="589" type="curve" smooth="yes"/>
      <point x="128" y="589"/>
      <point x="135" y="570"/>
      <point x="135" y="561" type="curve" smooth="yes"/>
      <point x="135" y="544"/>
      <point x="112" y="525"/>
      <point x="84" y="525" type="curve" smooth="yes"/>
      <point x="64" y="525"/>
      <point x="49" y="533"/>
      <point x="49" y="554" type="curve" smooth="yes"/>
      <point x="49" y="568"/>
      <point x="67" y="589"/>
    </contour>
  </outline>
</glyph>
<glyph name="j" format="1">
  <advance width="183"/>
  <unicode hex="006A"/>
  <outline>
    <contour>
      <point x="122" y="17" type="curve" smooth="yes"/>
      <point x="122" y="-114"/>
      <point x="97" y="-164"/>
      <point x="29" y="-233" type="curve" smooth="yes"/>
      <point x="-8" y="-270"/>
      <point x="-57" y="-283"/>
      <point x="-83" y="-266" type="curve"/>
      <point x="-83" y="-257"/>
      <point x="-82" y="-253"/>
      <point x="-77" y="-244" type="curve"/>
      <point x="42" y="-253"/>
      <point x="55" y="-109"/>
      <point x="57" y="-22" type="curve" smooth="yes"/>
      <point x="60" y="84"/>
      <point x="59" y="310"/>
      <point x="49" y="376" type="curve"/>
      <point x="72" y="379"/>
      <point x="95" y="380"/>
      <point x="126" y="390" type="curve"/>
      <point x="123" y="255"/>
      <point x="122" y="108"/>
    </contour>
    <contour>
      <point x="99" y="589" type="curve" smooth="yes"/>
      <point x="128" y="589"/>
      <point x="135" y="570"/>
      <point x="135" y="561" type="curve" smooth="yes"/>
      <point x="135" y="544"/>
      <point x="112" y="525"/>
      <point x="84" y="525" type="curve" smooth="yes"/>
      <point x="64" y="525"/>
      <point x="49" y="533"/>
      <point x="49" y="554" type="curve" smooth="yes"/>
      <point x="49" y="568"/>
      <point x="67" y="589"/>
    </contour>
  </outline>
</glyph>
<glyph name="k" format="1">
  <advance width="474"/>
  <unicode hex="006B"/>
  <outline>
    <contour>
      <point x="55" y="-3" type="curve"/>
      <point x="67" y="90"/>
      <point x="62" y="618"/>
      <point x="48" y="683" type="curve"/>
      <point x="71" y="686"/>
      <point x="108" y="697"/>
      <point x="137" y="707" type="curve"/>
      <point x="122" y="578"/>
      <point x="125" y="452"/>
      <point x="129" y="280" type="curve"/>
      <point x="214" y="312"/>
      <point x="355" y="372"/>
      <point x="419" y="401" type="curve"/>
      <point x="413" y="381"/>
      <point x="408" y="357"/>
      <point x="403" y="339" type="curve"/>
      <point x="352" y="330"/>
      <point x="316" y="321"/>
      <point x="262" y="304" type="curve"/>
      <point x="292" y="241"/>
      <point x="437" y="24"/>
      <point x="461" y="-1" type="curve"/>
      <point x="429" y="4"/>
      <point x="387" y="2"/>
      <point x="364" y="-4" type="curve"/>
      <point x="338" y="43"/>
      <point x="242" y="216"/>
      <point x="198" y="281" type="curve"/>
      <point x="171" y="272"/>
      <point x="152" y="265"/>
      <point x="130" y="255" type="curve"/>
      <point x="129" y="186"/>
      <point x="135" y="68"/>
      <point x="141" y="-2" type="curve"/>
      <point x="107" y="2"/>
      <point x="97" y="3"/>
    </contour>
  </outline>
</glyph>
<glyph name="m" format="1">
  <advance width="664"/>
  <unicode hex="006D"/>
  <outline>
    <contour>
      <point x="544" y="-2" type="curve"/>
      <point x="543" y="58"/>
      <point x="533" y="212"/>
      <point x="532" y="238" type="curve" smooth="yes"/>
      <point x="527" y="306"/>
      <point x="510" y="344"/>
      <point x="474" y="344" type="curve" smooth="yes"/>
      <point x="431" y="344"/>
      <point x="391" y="333"/>
      <point x="357" y="319" type="curve"/>
      <point x="363" y="299"/>
      <point x="368" y="238"/>
      <point x="368" y="214" type="curve"/>
      <point x="370" y="177"/>
      <point x="373" y="89"/>
      <point x="381" y="-1" type="curve"/>
      <point x="353" y="2"/>
      <point x="321" y="2"/>
      <point x="301" y="-1" type="curve"/>
      <point x="304" y="95"/>
      <point x="300" y="227"/>
      <point x="297" y="274" type="curve" smooth="yes"/>
      <point x="293" y="334"/>
      <point x="253" y="355"/>
      <point x="225" y="355" type="curve" smooth="yes"/>
      <point x="197" y="355"/>
      <point x="166" y="345"/>
      <point x="127" y="333" type="curve"/>
      <point x="123" y="257"/>
      <point x="123" y="130"/>
      <point x="130" y="-2" type="curve"/>
      <point x="102" y="2"/>
      <point x="79" y="5"/>
      <point x="48" y="-2" type="curve"/>
      <point x="61" y="120"/>
      <point x="60" y="290"/>
      <point x="52" y="381" type="curve"/>
      <point x="76" y="384"/>
      <point x="102" y="388"/>
      <point x="132" y="395" type="curve"/>
      <point x="129" y="379"/>
      <point x="128" y="368"/>
      <point x="127" y="355" type="curve"/>
      <point x="166" y="371"/>
      <point x="209" y="390"/>
      <point x="259" y="390" type="curve" smooth="yes"/>
      <point x="307" y="390"/>
      <point x="330" y="370"/>
      <point x="350" y="340" type="curve"/>
      <point x="400" y="364"/>
      <point x="456" y="391"/>
      <point x="504" y="391" type="curve" smooth="yes"/>
      <point x="572" y="391"/>
      <point x="598" y="350"/>
      <point x="604" y="184" type="curve" smooth="yes"/>
      <point x="607" y="115"/>
      <point x="617" y="27"/>
      <point x="623" y="-1" type="curve"/>
      <point x="593" y="2"/>
      <point x="573" y="4"/>
    </contour>
  </outline>
</glyph>
<glyph name="p" format="1">
  <advance width="442"/>
  <unicode hex="0070"/>
  <outline>
    <contour>
      <point x="45" y="-277" type="curve"/>
      <point x="61" y="-146"/>
      <point x="64" y="278"/>
      <point x="55" y="370" type="curve"/>
      <point x="76" y="375"/>
      <point x="100" y="382"/>
      <point x="126" y="391" type="curve"/>
      <point x="125" y="380"/>
      <point x="125" y="371"/>
      <point x="125" y="360" type="curve"/>
      <point x="163" y="375"/>
      <point x="195" y="389"/>
      <point x="246" y="389" type="curve" smooth="yes"/>
      <point x="357" y="389"/>
      <point x="412" y="327"/>
      <point x="409" y="223" type="curve" smooth="yes"/>
      <point x="403" y="58"/>
      <point x="294" y="-8"/>
      <point x="193" y="-8" type="curve" smooth="yes"/>
      <point x="168" y="-8"/>
      <point x="143" y="-5"/>
      <point x="122" y="2" type="curve"/>
      <point x="126" y="-133"/>
      <point x="128" y="-217"/>
      <point x="142" y="-266" type="curve"/>
      <point x="113" y="-266"/>
      <point x="65" y="-274"/>
    </contour>
    <contour>
      <point x="123" y="30" type="curve"/>
      <point x="141" y="23"/>
      <point x="161" y="20"/>
      <point x="182" y="20" type="curve" smooth="yes"/>
      <point x="261" y="20"/>
      <point x="338" y="79"/>
      <point x="343" y="221" type="curve" smooth="yes"/>
      <point x="345" y="273"/>
      <point x="320" y="359"/>
      <point x="227" y="359" type="curve" smooth="yes"/>
      <point x="203" y="359"/>
      <point x="152" y="349"/>
      <point x="125" y="336" type="curve"/>
      <point x="121" y="265"/>
      <point x="123" y="72"/>
    </contour>
  </outline>
</glyph>
<glyph name="q" format="1">
  <advance width="436"/>
  <unicode hex="0071"/>
  <outline>
    <contour>
      <point x="304" y="-277" type="curve"/>
      <point x="314" y="-242"/>
      <point x="317" y="10"/>
      <point x="314" y="29" type="curve"/>
      <point x="275" y="7"/>
      <point x="221" y="-6"/>
      <point x="179" y="-6" type="curve" smooth="yes"/>
      <point x="78" y="-6"/>
      <point x="36" y="67"/>
      <point x="35" y="143" type="curve"/>
      <point x="35" y="312"/>
      <point x="145" y="385"/>
      <point x="231" y="385" type="curve" smooth="yes"/>
      <point x="248" y="385"/>
      <point x="292" y="378"/>
      <point x="310" y="370" type="curve"/>
      <point x="311" y="375"/>
      <point x="311" y="379"/>
      <point x="313" y="383" type="curve"/>
      <point x="325" y="385"/>
      <point x="358" y="390"/>
      <point x="378" y="392" type="curve"/>
      <point x="373" y="326"/>
      <point x="373" y="-146"/>
      <point x="400" y="-266" type="curve"/>
      <point x="385" y="-266"/>
      <point x="335" y="-272"/>
    </contour>
    <contour>
      <point x="310" y="346" type="curve"/>
      <point x="280" y="355"/>
      <point x="251" y="359"/>
      <point x="225" y="358" type="curve" smooth="yes"/>
      <point x="164" y="357"/>
      <point x="98" y="288"/>
      <point x="98" y="161" type="curve" smooth="yes"/>
      <point x="98" y="92"/>
      <point x="143" y="32"/>
      <point x="213" y="33" type="curve" smooth="yes"/>
      <point x="246" y="33"/>
      <point x="286" y="42"/>
      <point x="313" y="56" type="curve"/>
      <point x="315" y="122"/>
      <point x="312" y="321"/>
    </contour>
  </outline>
</glyph>
<glyph name="t" format="1">
  <advance width="285"/>
  <unicode hex="0074"/>
  <outline>
    <contour>
      <point x="120" y="517" type="curve"/>
      <point x="127" y="518"/>
      <point x="132" y="516"/>
      <point x="139" y="515" type="curve"/>
      <point x="136" y="491"/>
      <point x="129" y="408"/>
      <point x="131" y="383" type="curve"/>
      <point x="150" y="383"/>
      <point x="215" y="383"/>
      <point x="246" y="386" type="curve"/>
      <point x="246" y="374"/>
      <point x="244" y="369"/>
      <point x="237" y="353" type="curve"/>
      <point x="205" y="356"/>
      <point x="156" y="355"/>
      <point x="131" y="355" type="curve"/>
      <point x="127" y="318"/>
      <point x="128" y="178"/>
      <point x="128" y="137" type="curve" smooth="yes"/>
      <point x="128" y="60"/>
      <point x="146" y="41"/>
      <point x="176" y="41" type="curve" smooth="yes"/>
      <point x="196" y="41"/>
      <point x="221" y="45"/>
      <point x="252" y="51" type="curve"/>
      <point x="257" y="44"/>
      <point x="259" y="36"/>
      <point x="259" y="28" type="curve"/>
      <point x="214" y="12"/>
      <point x="141" y="-10"/>
      <point x="115" y="-10" type="curve" smooth="yes"/>
      <point x="67" y="-10"/>
      <point x="65" y="34"/>
      <point x="65" y="126" type="curve" smooth="yes"/>
      <point x="65" y="148"/>
      <point x="65" y="185"/>
      <point x="68" y="355" type="curve"/>
      <point x="32" y="355" type="line"/>
      <point x="32" y="371"/>
      <point x="33" y="363"/>
      <point x="34" y="383" type="curve"/>
      <point x="71" y="383" type="line"/>
      <point x="87" y="423"/>
      <point x="111" y="478"/>
    </contour>
  </outline>
</glyph>
<glyph name="v" format="1">
  <advance width="395"/>
  <unicode hex="0076"/>
  <outline>
    <contour>
      <point x="122" y="385" type="curve"/>
      <point x="122" y="338"/>
      <point x="167" y="196"/>
      <point x="190" y="120" type="curve" smooth="yes"/>
      <point x="194" y="108"/>
      <point x="198" y="94"/>
      <point x="200" y="84" type="curve"/>
      <point x="258" y="199"/>
      <point x="309" y="330"/>
      <point x="317" y="375" type="curve"/>
      <point x="338" y="378"/>
      <point x="365" y="383"/>
      <point x="395" y="395" type="curve"/>
      <point x="329" y="286"/>
      <point x="282" y="200"/>
      <point x="237" y="104" type="curve" smooth="yes"/>
      <point x="223" y="73"/>
      <point x="200" y="24"/>
      <point x="196" y="-2" type="curve"/>
      <point x="183" y="-10"/>
      <point x="178" y="-10"/>
      <point x="163" y="-16" type="curve"/>
      <point x="127" y="127"/>
      <point x="48" y="355"/>
      <point x="23" y="384" type="curve"/>
      <point x="47" y="379"/>
      <point x="102" y="382"/>
    </contour>
  </outline>
</glyph>
<glyph name="x" format="1">
  <advance width="427"/>
  <unicode hex="0078"/>
  <outline>
    <contour>
      <point x="0" y="-12" type="curve"/>
      <point x="57" y="41"/>
      <point x="139" y="135"/>
      <point x="189" y="206" type="curve"/>
      <point x="145" y="280"/>
      <point x="117" y="327"/>
      <point x="65" y="385" type="curve"/>
      <point x="103" y="381"/>
      <point x="141" y="380"/>
      <point x="176" y="385" type="curve"/>
      <point x="185" y="341"/>
      <point x="218" y="280"/>
      <point x="237" y="250" type="curve"/>
      <point x="278" y="300"/>
      <point x="311" y="352"/>
      <point x="321" y="376" type="curve"/>
      <point x="343" y="378"/>
      <point x="380" y="385"/>
      <point x="400" y="391" type="curve"/>
      <point x="344" y="340"/>
      <point x="288" y="276"/>
      <point x="248" y="229" type="curve"/>
      <point x="298" y="141"/>
      <point x="327" y="93"/>
      <point x="410" y="-2" type="curve"/>
      <point x="383" y="2"/>
      <point x="323" y="2"/>
      <point x="302" y="-1" type="curve"/>
      <point x="267" y="72"/>
      <point x="231" y="138"/>
      <point x="201" y="184" type="curve"/>
      <point x="142" y="106"/>
      <point x="122" y="68"/>
      <point x="85" y="2" type="curve"/>
      <point x="54" y="-2"/>
      <point x="31" y="-4"/>
    </contour>
  </outline>
</glyph>
<glyph name="z" format="1">
  <advance width="404"/>
  <unicode hex="007A"/>
  <outline>
    <contour>
      <point x="63" y="385" type="curve"/>
      <point x="144" y="380"/>
      <point x="252" y="379"/>
      <point x="349" y="385" type="curve"/>
      <point x="355" y="380"/>
      <point x="356" y="372"/>
      <point x="359" y="366" type="curve"/>
      <point x="336" y="348"/>
      <point x="311" y="320"/>
      <point x="300" y="307" type="curve" smooth="yes"/>
      <point x="235" y="225"/>
      <point x="165" y="140"/>
      <point x="99" y="59" type="curve"/>
      <point x="169" y="59"/>
      <point x="310" y="59"/>
      <point x="375" y="70" type="curve"/>
      <point x="370" y="57"/>
      <point x="361" y="30"/>
      <point x="354" y="-5" type="curve"/>
      <point x="254" y="6"/>
      <point x="67" y="2"/>
      <point x="24" y="-2" type="curve"/>
      <point x="20" y="2"/>
      <point x="17" y="10"/>
      <point x="15" y="20" type="curve"/>
      <point x="36" y="34"/>
      <point x="65" y="59"/>
      <point x="84" y="81" type="curve" smooth="yes"/>
      <point x="159" y="169"/>
      <point x="239" y="267"/>
      <point x="282" y="324" type="curve"/>
      <point x="201" y="328"/>
      <point x="103" y="323"/>
      <point x="48" y="315" type="curve"/>
      <point x="55" y="335"/>
      <point x="59" y="358"/>
    </contour>
  </outline>
</glyph>
<glyph name="braceleft" format="1">
  <advance width="244"/>
  <unicode hex="007B"/>
  <outline>
    <contour>
      <point x="200" y="-87" type="curve"/>
      <point x="119" y="-27"/>
      <point x="98" y="-17"/>
      <point x="97" y="77" type="curve" smooth="yes"/>
      <point x="96" y="117"/>
      <point x="95" y="149"/>
      <point x="92" y="176" type="curve" smooth="yes"/>
      <point x="85" y="232"/>
      <point x="82" y="269"/>
      <point x="37" y="289" type="curve"/>
      <point x="37" y="299"/>
      <point x="36" y="301"/>
      <point x="40" y="311" type="curve"/>
      <point x="79" y="323"/>
      <point x="93" y="360"/>
      <point x="99" y="420" type="curve" smooth="yes"/>
      <point x="101" y="436"/>
      <point x="102" y="465"/>
      <point x="103" y="485" type="curve" smooth="yes"/>
      <point x="106" y="550"/>
      <point x="117" y="559"/>
      <point x="201" y="623" type="curve"/>
      <point x="206" y="618"/>
      <point x="210" y="610"/>
      <point x="210" y="603" type="curve"/>
      <point x="189" y="579"/>
      <point x="171" y="559"/>
      <point x="167" y="508" type="curve" smooth="yes"/>
      <point x="166" y="490"/>
      <point x="166" y="467"/>
      <point x="165" y="434" type="curve"/>
      <point x="161" y="375"/>
      <point x="116" y="334"/>
      <point x="72" y="300" type="curve"/>
      <point x="141" y="246"/>
      <point x="149" y="211"/>
      <point x="156" y="159" type="curve"/>
      <point x="160" y="101" type="line"/>
      <point x="164" y="17"/>
      <point x="173" y="-22"/>
      <point x="211" y="-67" type="curve"/>
      <point x="210" y="-76"/>
      <point x="206" y="-82"/>
    </contour>
  </outline>
</glyph>
<glyph name="braceright" format="1">
  <advance width="261"/>
  <unicode hex="007D"/>
  <outline>
    <contour>
      <point x="42" y="609" type="curve"/>
      <point x="44" y="614"/>
      <point x="48" y="621"/>
      <point x="56" y="623" type="curve"/>
      <point x="112" y="585"/>
      <point x="160" y="540"/>
      <point x="160" y="471" type="curve" smooth="yes"/>
      <point x="160" y="451"/>
      <point x="161" y="427"/>
      <point x="164" y="409" type="curve" smooth="yes"/>
      <point x="172" y="361"/>
      <point x="180" y="328"/>
      <point x="222" y="309" type="curve"/>
      <point x="224" y="296"/>
      <point x="224" y="300"/>
      <point x="222" y="290" type="curve"/>
      <point x="181" y="266"/>
      <point x="166" y="228"/>
      <point x="159" y="167" type="curve"/>
      <point x="155" y="94" type="line" smooth="yes"/>
      <point x="150" y="8"/>
      <point x="102" y="-40"/>
      <point x="47" y="-83" type="curve"/>
      <point x="40" y="-82"/>
      <point x="34" y="-73"/>
      <point x="32" y="-67" type="curve"/>
      <point x="55" y="-45"/>
      <point x="80" y="-10"/>
      <point x="87" y="40" type="curve" smooth="yes"/>
      <point x="90" y="66"/>
      <point x="95" y="133"/>
      <point x="97" y="158" type="curve" smooth="yes"/>
      <point x="102" y="217"/>
      <point x="140" y="255"/>
      <point x="191" y="300" type="curve"/>
      <point x="134" y="342"/>
      <point x="102" y="376"/>
      <point x="97" y="431" type="curve" smooth="yes"/>
      <point x="95" y="450"/>
      <point x="95" y="483"/>
      <point x="93" y="501" type="curve" smooth="yes"/>
      <point x="87" y="563"/>
      <point x="73" y="576"/>
    </contour>
  </outline>
</glyph>
<glyph name="asciitilde" format="1">
  <advance width="416"/>
  <unicode hex="007E"/>
  <outline>
    <contour>
      <point x="270" y="215" type="curve" smooth="yes"/>
      <point x="246" y="215"/>
      <point x="188" y="236"/>
      <point x="160" y="237" type="curve" smooth="yes"/>
      <point x="136" y="237"/>
      <point x="109" y="228"/>
      <point x="81" y="210" type="curve"/>
      <point x="74" y="216"/>
      <point x="71" y="224"/>
      <point x="70" y="231" type="curve"/>
      <point x="103" y="258"/>
      <point x="156" y="293"/>
      <point x="179" y="293" type="curve" smooth="yes"/>
      <point x="214" y="293"/>
      <point x="260" y="274"/>
      <point x="293" y="273" type="curve" smooth="yes"/>
      <point x="315" y="273"/>
      <point x="342" y="283"/>
      <point x="368" y="296" type="curve"/>
      <point x="374" y="290"/>
      <point x="377" y="285"/>
      <point x="379" y="278" type="curve"/>
      <point x="340" y="245"/>
      <point x="295" y="215"/>
    </contour>
  </outline>
</glyph>
<glyph name="exclamdown" format="1">
  <advance width="195"/>
  <unicode hex="00A1"/>
  <outline>
    <contour>
      <point x="85" y="236" type="curve"/>
      <point x="107" y="239" type="line"/>
      <point x="109" y="99"/>
      <point x="123" y="-147"/>
      <point x="129" y="-195" type="curve"/>
      <point x="103" y="-197"/>
      <point x="77" y="-200"/>
      <point x="47" y="-205" type="curve"/>
      <point x="59" y="-122"/>
      <point x="82" y="165"/>
    </contour>
    <contour>
      <point x="94" y="320" type="curve" smooth="yes"/>
      <point x="67" y="320"/>
      <point x="53" y="332"/>
      <point x="53" y="351" type="curve" smooth="yes"/>
      <point x="53" y="376"/>
      <point x="83" y="390"/>
      <point x="109" y="390" type="curve" smooth="yes"/>
      <point x="129" y="390"/>
      <point x="145" y="379"/>
      <point x="145" y="361" type="curve" smooth="yes"/>
      <point x="145" y="340"/>
      <point x="120" y="320"/>
    </contour>
  </outline>
</glyph>
<glyph name="cent" format="1">
  <advance width="416"/>
  <unicode hex="00A2"/>
  <outline>
    <contour>
      <point x="325" y="371" type="curve"/>
      <point x="321" y="362"/>
      <point x="316" y="355"/>
      <point x="310" y="347" type="curve"/>
      <point x="300" y="351"/>
      <point x="275" y="358"/>
      <point x="256" y="358" type="curve" smooth="yes"/>
      <point x="149" y="358"/>
      <point x="99" y="267"/>
      <point x="99" y="168" type="curve" smooth="yes"/>
      <point x="99" y="78"/>
      <point x="156" y="28"/>
      <point x="209" y="28" type="curve" smooth="yes"/>
      <point x="256" y="28"/>
      <point x="278" y="32"/>
      <point x="335" y="50" type="curve"/>
      <point x="341" y="42"/>
      <point x="344" y="33"/>
      <point x="346" y="25" type="curve"/>
      <point x="303" y="9"/>
      <point x="271" y="0"/>
      <point x="234" y="-5" type="curve"/>
      <point x="231" y="-30"/>
      <point x="228" y="-95"/>
      <point x="228" y="-112" type="curve"/>
      <point x="221" y="-114"/>
      <point x="212" y="-114"/>
      <point x="204" y="-112" type="curve"/>
      <point x="200" y="-7" type="line"/>
      <point x="185" y="-7" type="line" smooth="yes"/>
      <point x="94" y="-7"/>
      <point x="35" y="53"/>
      <point x="35" y="166" type="curve" smooth="yes"/>
      <point x="35" y="277"/>
      <point x="106" y="360"/>
      <point x="202" y="382" type="curve"/>
      <point x="204" y="411"/>
      <point x="206" y="469"/>
      <point x="206" y="485" type="curve"/>
      <point x="216" y="489"/>
      <point x="226" y="487"/>
      <point x="233" y="486" type="curve"/>
      <point x="232" y="469"/>
      <point x="235" y="409"/>
      <point x="236" y="387" type="curve"/>
      <point x="241" y="387"/>
      <point x="248" y="388"/>
      <point x="254" y="388" type="curve" smooth="yes"/>
      <point x="283" y="388"/>
      <point x="304" y="380"/>
    </contour>
  </outline>
</glyph>
<glyph name="sterling" format="1">
  <advance width="416"/>
  <unicode hex="00A3"/>
  <outline>
    <contour>
      <point x="324" y="563" type="curve"/>
      <point x="321" y="554"/>
      <point x="320" y="553"/>
      <point x="315" y="548" type="curve"/>
      <point x="306" y="553"/>
      <point x="271" y="563"/>
      <point x="254" y="563" type="curve" smooth="yes"/>
      <point x="195" y="563"/>
      <point x="170" y="505"/>
      <point x="171" y="444" type="curve" smooth="yes"/>
      <point x="171" y="400"/>
      <point x="176" y="372"/>
      <point x="186" y="341" type="curve"/>
      <point x="218" y="341"/>
      <point x="286" y="343"/>
      <point x="329" y="344" type="curve"/>
      <point x="329" y="330"/>
      <point x="326" y="327"/>
      <point x="321" y="314" type="curve"/>
      <point x="289" y="316"/>
      <point x="231" y="316"/>
      <point x="193" y="315" type="curve"/>
      <point x="210" y="249"/>
      <point x="219" y="151"/>
      <point x="176" y="66" type="curve"/>
      <point x="256" y="66"/>
      <point x="334" y="66"/>
      <point x="419" y="76" type="curve"/>
      <point x="408" y="52"/>
      <point x="401" y="34"/>
      <point x="391" y="-2" type="curve"/>
      <point x="360" y="2"/>
      <point x="88" y="4"/>
      <point x="20" y="-5" type="curve"/>
      <point x="32" y="25"/>
      <point x="37" y="52"/>
      <point x="44" y="70" type="curve"/>
      <point x="90" y="67"/>
      <point x="117" y="67"/>
      <point x="153" y="67" type="curve"/>
      <point x="180" y="130"/>
      <point x="165" y="258"/>
      <point x="136" y="315" type="curve"/>
      <point x="117" y="315"/>
      <point x="102" y="314"/>
      <point x="87" y="313" type="curve"/>
      <point x="85" y="325"/>
      <point x="86" y="331"/>
      <point x="88" y="342" type="curve"/>
      <point x="106" y="341"/>
      <point x="115" y="340"/>
      <point x="127" y="341" type="curve"/>
      <point x="111" y="381"/>
      <point x="102" y="416"/>
      <point x="102" y="449" type="curve" smooth="yes"/>
      <point x="102" y="476"/>
      <point x="110" y="512"/>
      <point x="136" y="543" type="curve" smooth="yes"/>
      <point x="169" y="582"/>
      <point x="201" y="592"/>
      <point x="253" y="592" type="curve" smooth="yes"/>
      <point x="270" y="592"/>
      <point x="302" y="583"/>
    </contour>
  </outline>
</glyph>
<glyph name="currency" format="1">
  <advance width="416"/>
  <unicode hex="00A4"/>
  <outline>
    <contour>
      <point x="72" y="477" type="curve" smooth="yes"/>
      <point x="72" y="500"/>
      <point x="81" y="523"/>
      <point x="95" y="542" type="curve"/>
      <point x="78" y="562"/>
      <point x="71" y="567"/>
      <point x="57" y="582" type="curve"/>
      <point x="61" y="591"/>
      <point x="66" y="597"/>
      <point x="76" y="601" type="curve"/>
      <point x="90" y="588"/>
      <point x="103" y="578"/>
      <point x="119" y="567" type="curve"/>
      <point x="138" y="581"/>
      <point x="161" y="590"/>
      <point x="186" y="590" type="curve" smooth="yes"/>
      <point x="213" y="590"/>
      <point x="239" y="582"/>
      <point x="259" y="566" type="curve"/>
      <point x="278" y="581"/>
      <point x="285" y="586"/>
      <point x="300" y="601" type="curve"/>
      <point x="309" y="597"/>
      <point x="315" y="592"/>
      <point x="319" y="582" type="curve"/>
      <point x="305" y="567"/>
      <point x="293" y="556"/>
      <point x="281" y="539" type="curve"/>
      <point x="292" y="523"/>
      <point x="298" y="501"/>
      <point x="298" y="477" type="curve" smooth="yes"/>
      <point x="298" y="452"/>
      <point x="289" y="428"/>
      <point x="273" y="409" type="curve"/>
      <point x="289" y="390"/>
      <point x="295" y="383"/>
      <point x="310" y="369" type="curve"/>
      <point x="306" y="360"/>
      <point x="301" y="354"/>
      <point x="291" y="350" type="curve"/>
      <point x="276" y="362"/>
      <point x="264" y="373"/>
      <point x="248" y="385" type="curve"/>
      <point x="230" y="372"/>
      <point x="207" y="365"/>
      <point x="185" y="365" type="curve" smooth="yes"/>
      <point x="159" y="365"/>
      <point x="136" y="372"/>
      <point x="117" y="385" type="curve"/>
      <point x="97" y="369"/>
      <point x="91" y="363"/>
      <point x="77" y="349" type="curve"/>
      <point x="67" y="353"/>
      <point x="61" y="358"/>
      <point x="57" y="368" type="curve"/>
      <point x="68" y="380"/>
      <point x="82" y="393"/>
      <point x="92" y="409" type="curve"/>
      <point x="80" y="427"/>
      <point x="72" y="449"/>
    </contour>
    <contour>
      <point x="104" y="477" type="curve" smooth="yes"/>
      <point x="104" y="431"/>
      <point x="136" y="395"/>
      <point x="186" y="395" type="curve" smooth="yes"/>
      <point x="231" y="395"/>
      <point x="268" y="431"/>
      <point x="268" y="477" type="curve" smooth="yes"/>
      <point x="268" y="525"/>
      <point x="231" y="559"/>
      <point x="186" y="559" type="curve" smooth="yes"/>
      <point x="140" y="559"/>
      <point x="104" y="523"/>
    </contour>
  </outline>
</glyph>
<glyph name="yen" format="1">
  <advance width="459"/>
  <unicode hex="00A5"/>
  <outline>
    <contour>
      <point x="53" y="211" type="curve"/>
      <point x="188" y="208" type="line"/>
      <point x="188" y="231"/>
      <point x="188" y="258"/>
      <point x="187" y="278" type="curve"/>
      <point x="50" y="278" type="line"/>
      <point x="47" y="287"/>
      <point x="51" y="300"/>
      <point x="53" y="306" type="curve"/>
      <point x="186" y="304" type="line"/>
      <point x="186" y="306" type="line"/>
      <point x="146" y="385"/>
      <point x="48" y="533"/>
      <point x="5" y="583" type="curve"/>
      <point x="54" y="579"/>
      <point x="74" y="580"/>
      <point x="115" y="583" type="curve"/>
      <point x="145" y="502"/>
      <point x="193" y="421"/>
      <point x="245" y="349" type="curve"/>
      <point x="305" y="429"/>
      <point x="366" y="502"/>
      <point x="402" y="577" type="curve"/>
      <point x="429" y="578"/>
      <point x="444" y="580"/>
      <point x="479" y="588" type="curve"/>
      <point x="383" y="480"/>
      <point x="343" y="430"/>
      <point x="256" y="305" type="curve"/>
      <point x="256" y="304" type="line"/>
      <point x="310" y="304"/>
      <point x="368" y="304"/>
      <point x="400" y="305" type="curve"/>
      <point x="401" y="294"/>
      <point x="400" y="286"/>
      <point x="395" y="276" type="curve"/>
      <point x="352" y="277"/>
      <point x="305" y="278"/>
      <point x="255" y="278" type="curve"/>
      <point x="254" y="255"/>
      <point x="254" y="229"/>
      <point x="254" y="208" type="curve"/>
      <point x="310" y="208"/>
      <point x="367" y="208"/>
      <point x="400" y="209" type="curve"/>
      <point x="401" y="198"/>
      <point x="400" y="190"/>
      <point x="395" y="180" type="curve"/>
      <point x="254" y="182" type="line"/>
      <point x="254" y="107"/>
      <point x="257" y="48"/>
      <point x="265" y="-1" type="curve"/>
      <point x="228" y="2"/>
      <point x="210" y="3"/>
      <point x="180" y="-1" type="curve"/>
      <point x="184" y="37"/>
      <point x="187" y="112"/>
      <point x="188" y="182" type="curve"/>
      <point x="50" y="182" type="line"/>
      <point x="47" y="191"/>
      <point x="51" y="205"/>
    </contour>
  </outline>
</glyph>
<glyph name="section" format="1">
  <advance width="409"/>
  <unicode hex="00A7"/>
  <outline>
    <contour>
      <point x="58" y="-266" type="curve"/>
      <point x="57" y="-257"/>
      <point x="60" y="-251"/>
      <point x="64" y="-239" type="curve"/>
      <point x="73" y="-242"/>
      <point x="89" y="-243"/>
      <point x="104" y="-243" type="curve" smooth="yes"/>
      <point x="164" y="-243"/>
      <point x="229" y="-182"/>
      <point x="229" y="-101" type="curve" smooth="yes"/>
      <point x="229" y="-40"/>
      <point x="173" y="30"/>
      <point x="120" y="90" type="curve" smooth="yes"/>
      <point x="17" y="206"/>
      <point x="17" y="253"/>
      <point x="79" y="363" type="curve" smooth="yes"/>
      <point x="122" y="439"/>
      <point x="179" y="514"/>
      <point x="248" y="598" type="curve"/>
      <point x="258" y="592"/>
      <point x="261" y="588"/>
      <point x="265" y="579" type="curve"/>
      <point x="215" y="520"/>
      <point x="181" y="454"/>
      <point x="181" y="423" type="curve" smooth="yes"/>
      <point x="181" y="386"/>
      <point x="233" y="322"/>
      <point x="263" y="290" type="curve" smooth="yes"/>
      <point x="306" y="246"/>
      <point x="364" y="183"/>
      <point x="364" y="112" type="curve" smooth="yes"/>
      <point x="364" y="68"/>
      <point x="350" y="7"/>
      <point x="297" y="-96" type="curve" smooth="yes"/>
      <point x="211" y="-265"/>
      <point x="151" y="-271"/>
      <point x="99" y="-271" type="curve" smooth="yes"/>
      <point x="89" y="-271"/>
      <point x="70" y="-269"/>
    </contour>
    <contour>
      <point x="311" y="61" type="curve" smooth="yes"/>
      <point x="311" y="134"/>
      <point x="241" y="211"/>
      <point x="193" y="261" type="curve" smooth="yes"/>
      <point x="162" y="293"/>
      <point x="128" y="347"/>
      <point x="125" y="390" type="curve"/>
      <point x="100" y="351"/>
      <point x="90" y="307"/>
      <point x="90" y="274" type="curve" smooth="yes"/>
      <point x="90" y="231"/>
      <point x="139" y="175"/>
      <point x="179" y="131" type="curve" smooth="yes"/>
      <point x="234" y="71"/>
      <point x="272" y="6"/>
      <point x="292" y="-39" type="curve"/>
      <point x="308" y="-5"/>
      <point x="311" y="23"/>
    </contour>
  </outline>
</glyph>
<glyph name="dieresis" format="1">
  <advance width="416"/>
  <unicode hex="00A8"/>
  <outline>
    <contour>
      <point x="280" y="515" type="curve" smooth="yes"/>
      <point x="303" y="515"/>
      <point x="315" y="503"/>
      <point x="315" y="488" type="curve" smooth="yes"/>
      <point x="315" y="469"/>
      <point x="289" y="456"/>
      <point x="267" y="456" type="curve" smooth="yes"/>
      <point x="251" y="456"/>
      <point x="236" y="467"/>
      <point x="236" y="480" type="curve" smooth="yes"/>
      <point x="236" y="498"/>
      <point x="259" y="515"/>
    </contour>
    <contour>
      <point x="138" y="515" type="curve" smooth="yes"/>
      <point x="161" y="515"/>
      <point x="174" y="503"/>
      <point x="174" y="488" type="curve" smooth="yes"/>
      <point x="174" y="469"/>
      <point x="147" y="456"/>
      <point x="126" y="456" type="curve" smooth="yes"/>
      <point x="109" y="456"/>
      <point x="95" y="467"/>
      <point x="95" y="480" type="curve" smooth="yes"/>
      <point x="95" y="498"/>
      <point x="117" y="515"/>
    </contour>
  </outline>
</glyph>
<glyph name="copyright" format="1">
  <advance width="712"/>
  <unicode hex="00A9"/>
  <outline>
    <contour>
      <point x="29" y="268" type="curve" smooth="yes"/>
      <point x="29" y="449"/>
      <point x="176" y="595"/>
      <point x="356" y="595" type="curve" smooth="yes"/>
      <point x="537" y="595"/>
      <point x="683" y="449"/>
      <point x="683" y="268" type="curve" smooth="yes"/>
      <point x="683" y="87"/>
      <point x="537" y="-59"/>
      <point x="356" y="-59" type="curve" smooth="yes"/>
      <point x="176" y="-59"/>
      <point x="29" y="87"/>
    </contour>
    <contour>
      <point x="62" y="268" type="curve" smooth="yes"/>
      <point x="62" y="107"/>
      <point x="196" y="-28"/>
      <point x="356" y="-28" type="curve" smooth="yes"/>
      <point x="519" y="-28"/>
      <point x="653" y="107"/>
      <point x="653" y="268" type="curve" smooth="yes"/>
      <point x="653" y="431"/>
      <point x="519" y="567"/>
      <point x="356" y="567" type="curve" smooth="yes"/>
      <point x="196" y="567"/>
      <point x="62" y="431"/>
    </contour>
    <contour>
      <point x="348" y="37" type="curve"/>
      <point x="205" y="40"/>
      <point x="149" y="143"/>
      <point x="149" y="236" type="curve" smooth="yes"/>
      <point x="149" y="363"/>
      <point x="243" y="504"/>
      <point x="411" y="504" type="curve" smooth="yes"/>
      <point x="434" y="504"/>
      <point x="474" y="493"/>
      <point x="498" y="476" type="curve"/>
      <point x="498" y="474"/>
      <point x="490" y="456"/>
      <point x="486" y="455" type="curve"/>
      <point x="469" y="467"/>
      <point x="429" y="472"/>
      <point x="406" y="472" type="curve" smooth="yes"/>
      <point x="293" y="472"/>
      <point x="205" y="377"/>
      <point x="205" y="239" type="curve" smooth="yes"/>
      <point x="205" y="167"/>
      <point x="258" y="77"/>
      <point x="369" y="75" type="curve" smooth="yes"/>
      <point x="409" y="74"/>
      <point x="456" y="89"/>
      <point x="502" y="112" type="curve"/>
      <point x="507" y="108"/>
      <point x="507" y="100"/>
      <point x="510" y="90" type="curve"/>
      <point x="469" y="67"/>
      <point x="400" y="37"/>
    </contour>
  </outline>
</glyph>
<glyph name="ordfeminine" format="1">
  <advance width="360"/>
  <unicode hex="00AA"/>
  <outline>
    <contour>
      <point x="74" y="566" type="curve"/>
      <point x="117" y="583"/>
      <point x="170" y="592"/>
      <point x="210" y="592" type="curve" smooth="yes"/>
      <point x="243" y="592"/>
      <point x="271" y="583"/>
      <point x="289" y="568" type="curve"/>
      <point x="295" y="561"/>
      <point x="306" y="546"/>
      <point x="305" y="523" type="curve"/>
      <point x="305" y="475"/>
      <point x="305" y="347"/>
      <point x="306" y="296" type="curve" smooth="yes"/>
      <point x="307" y="282"/>
      <point x="307" y="259"/>
      <point x="312" y="236" type="curve"/>
      <point x="280" y="240"/>
      <point x="274" y="240"/>
      <point x="241" y="236" type="curve"/>
      <point x="240" y="246"/>
      <point x="240" y="265"/>
      <point x="240" y="272" type="curve"/>
      <point x="192" y="256"/>
      <point x="130" y="230"/>
      <point x="107" y="230" type="curve" smooth="yes"/>
      <point x="76" y="230"/>
      <point x="62" y="234"/>
      <point x="46" y="269" type="curve" smooth="yes"/>
      <point x="40" y="280"/>
      <point x="33" y="316"/>
      <point x="36" y="334" type="curve" smooth="yes"/>
      <point x="42" y="384"/>
      <point x="81" y="404"/>
      <point x="119" y="414" type="curve" smooth="yes"/>
      <point x="156" y="423"/>
      <point x="201" y="430"/>
      <point x="240" y="436" type="curve"/>
      <point x="241" y="457"/>
      <point x="241" y="504"/>
      <point x="240" y="522" type="curve" smooth="yes"/>
      <point x="237" y="553"/>
      <point x="195" y="555"/>
      <point x="159" y="555" type="curve" smooth="yes"/>
      <point x="125" y="555"/>
      <point x="83" y="546"/>
      <point x="80" y="543" type="curve"/>
      <point x="76" y="548"/>
      <point x="74" y="554"/>
    </contour>
    <contour>
      <point x="147" y="276" type="curve" smooth="yes"/>
      <point x="161" y="278"/>
      <point x="216" y="295"/>
      <point x="239" y="301" type="curve"/>
      <point x="239" y="335"/>
      <point x="239" y="377"/>
      <point x="240" y="407" type="curve"/>
      <point x="206" y="402"/>
      <point x="176" y="399"/>
      <point x="140" y="385" type="curve" smooth="yes"/>
      <point x="117" y="376"/>
      <point x="100" y="357"/>
      <point x="103" y="322" type="curve" smooth="yes"/>
      <point x="106" y="285"/>
      <point x="127" y="274"/>
    </contour>
  </outline>
</glyph>
<glyph name="guillemotleft" format="1">
  <advance width="315"/>
  <unicode hex="00AB"/>
  <outline>
    <contour>
      <point x="143" y="60" type="curve"/>
      <point x="139" y="55"/>
      <point x="133" y="45"/>
      <point x="124" y="44" type="curve"/>
      <point x="102" y="86"/>
      <point x="71" y="132"/>
      <point x="33" y="188" type="curve"/>
      <point x="62" y="229"/>
      <point x="106" y="291"/>
      <point x="130" y="333" type="curve"/>
      <point x="138" y="331"/>
      <point x="141" y="326"/>
      <point x="147" y="320" type="curve"/>
      <point x="128" y="270"/>
      <point x="111" y="231"/>
      <point x="101" y="189" type="curve"/>
      <point x="109" y="148"/>
      <point x="125" y="111"/>
    </contour>
    <contour>
      <point x="270" y="60" type="curve"/>
      <point x="266" y="55"/>
      <point x="260" y="45"/>
      <point x="251" y="44" type="curve"/>
      <point x="229" y="86"/>
      <point x="198" y="132"/>
      <point x="160" y="188" type="curve"/>
      <point x="189" y="229"/>
      <point x="233" y="291"/>
      <point x="257" y="333" type="curve"/>
      <point x="265" y="331"/>
      <point x="268" y="326"/>
      <point x="274" y="320" type="curve"/>
      <point x="255" y="270"/>
      <point x="238" y="231"/>
      <point x="228" y="189" type="curve"/>
      <point x="236" y="148"/>
      <point x="252" y="111"/>
    </contour>
  </outline>
</glyph>
<glyph name="logicalnot" format="1">
  <advance width="416"/>
  <unicode hex="00AC"/>
  <outline>
    <contour>
      <point x="38" y="271" type="curve"/>
      <point x="139" y="269"/>
      <point x="280" y="270"/>
      <point x="355" y="270" type="curve"/>
      <point x="353" y="219"/>
      <point x="353" y="174"/>
      <point x="354" y="124" type="curve"/>
      <point x="343" y="120"/>
      <point x="333" y="120"/>
      <point x="321" y="120" type="curve"/>
      <point x="322" y="160"/>
      <point x="323" y="199"/>
      <point x="323" y="237" type="curve"/>
      <point x="236" y="239"/>
      <point x="149" y="240"/>
      <point x="35" y="239" type="curve"/>
      <point x="32" y="247"/>
      <point x="36" y="266"/>
    </contour>
  </outline>
</glyph>
<glyph name="uni00AD" format="1">
  <advance width="0"/>
  <unicode hex="00AD"/>
  <outline>
    <contour>
      <point x="-72" y="273" type="curve"/>
      <point x="-42" y="275"/>
      <point x="49" y="290"/>
      <point x="71" y="295" type="curve"/>
      <point x="73" y="283"/>
      <point x="74" y="256"/>
      <point x="71" y="251" type="curve"/>
      <point x="47" y="249"/>
      <point x="-42" y="237"/>
      <point x="-70" y="231" type="curve"/>
      <point x="-73" y="241"/>
      <point x="-73" y="261"/>
    </contour>
  </outline>
</glyph>
<glyph name="registered" format="1">
  <advance width="712"/>
  <unicode hex="00AE"/>
  <outline>
    <contour>
      <point x="29" y="268" type="curve" smooth="yes"/>
      <point x="29" y="449"/>
      <point x="176" y="595"/>
      <point x="356" y="595" type="curve" smooth="yes"/>
      <point x="537" y="595"/>
      <point x="683" y="449"/>
      <point x="683" y="268" type="curve" smooth="yes"/>
      <point x="683" y="87"/>
      <point x="537" y="-59"/>
      <point x="356" y="-59" type="curve" smooth="yes"/>
      <point x="176" y="-59"/>
      <point x="29" y="87"/>
    </contour>
    <contour>
      <point x="299" y="491" type="curve" smooth="yes"/>
      <point x="359" y="491"/>
      <point x="485" y="501"/>
      <point x="484" y="420" type="curve" smooth="yes"/>
      <point x="484" y="384"/>
      <point x="442" y="337"/>
      <point x="377" y="313" type="curve"/>
      <point x="420" y="236"/>
      <point x="504" y="112"/>
      <point x="558" y="54" type="curve"/>
      <point x="615" y="108"/>
      <point x="651" y="184"/>
      <point x="651" y="268" type="curve" smooth="yes"/>
      <point x="651" y="431"/>
      <point x="519" y="565"/>
      <point x="356" y="565" type="curve" smooth="yes"/>
      <point x="196" y="565"/>
      <point x="64" y="431"/>
      <point x="64" y="268" type="curve" smooth="yes"/>
      <point x="64" y="107"/>
      <point x="196" y="-27"/>
      <point x="356" y="-27" type="curve" smooth="yes"/>
      <point x="431" y="-27"/>
      <point x="499" y="1"/>
      <point x="551" y="47" type="curve"/>
      <point x="533" y="48"/>
      <point x="501" y="51"/>
      <point x="484" y="44" type="curve"/>
      <point x="451" y="98"/>
      <point x="357" y="246"/>
      <point x="311" y="305" type="curve"/>
      <point x="315" y="310"/>
      <point x="318" y="316"/>
      <point x="323" y="318" type="curve"/>
      <point x="381" y="325"/>
      <point x="426" y="364"/>
      <point x="426" y="404" type="curve" smooth="yes"/>
      <point x="426" y="478"/>
      <point x="330" y="467"/>
      <point x="269" y="467" type="curve"/>
      <point x="263" y="392"/>
      <point x="266" y="191"/>
      <point x="271" y="48" type="curve"/>
      <point x="248" y="51"/>
      <point x="231" y="52"/>
      <point x="207" y="42" type="curve"/>
      <point x="219" y="128"/>
      <point x="214" y="436"/>
      <point x="210" y="492" type="curve"/>
      <point x="230" y="489"/>
      <point x="273" y="491"/>
    </contour>
  </outline>
</glyph>
<glyph name="macron" format="1">
  <advance width="416"/>
  <unicode hex="00AF"/>
  <outline>
    <contour>
      <point x="42" y="498" type="curve"/>
      <point x="143" y="495"/>
      <point x="191" y="495"/>
      <point x="266" y="496" type="curve"/>
      <point x="267" y="485"/>
      <point x="266" y="475"/>
      <point x="261" y="465" type="curve"/>
      <point x="164" y="468"/>
      <point x="164" y="469"/>
      <point x="39" y="468" type="curve"/>
      <point x="35" y="476"/>
      <point x="40" y="492"/>
    </contour>
  </outline>
</glyph>
<glyph name="degree" format="1">
  <advance width="416"/>
  <unicode hex="00B0"/>
  <outline>
    <contour>
      <point x="72" y="477" type="curve" smooth="yes"/>
      <point x="72" y="536"/>
      <point x="127" y="590"/>
      <point x="186" y="590" type="curve" smooth="yes"/>
      <point x="248" y="590"/>
      <point x="298" y="548"/>
      <point x="298" y="477" type="curve" smooth="yes"/>
      <point x="298" y="417"/>
      <point x="245" y="365"/>
      <point x="185" y="365" type="curve" smooth="yes"/>
      <point x="122" y="365"/>
      <point x="72" y="407"/>
    </contour>
    <contour>
      <point x="104" y="477" type="curve" smooth="yes"/>
      <point x="104" y="431"/>
      <point x="136" y="395"/>
      <point x="186" y="395" type="curve" smooth="yes"/>
      <point x="231" y="395"/>
      <point x="268" y="431"/>
      <point x="268" y="477" type="curve" smooth="yes"/>
      <point x="268" y="525"/>
      <point x="231" y="559"/>
      <point x="186" y="559" type="curve" smooth="yes"/>
      <point x="140" y="559"/>
      <point x="104" y="523"/>
    </contour>
  </outline>
</glyph>
<glyph name="twosuperior" format="1">
  <advance width="285"/>
  <unicode hex="00B2"/>
  <outline>
    <contour>
      <point x="48" y="548" type="curve"/>
      <point x="79" y="565"/>
      <point x="123" y="591"/>
      <point x="167" y="591" type="curve" smooth="yes"/>
      <point x="216" y="591"/>
      <point x="231" y="553"/>
      <point x="231" y="518" type="curve" smooth="yes"/>
      <point x="231" y="473"/>
      <point x="188" y="418"/>
      <point x="165" y="385" type="curve"/>
      <point x="97" y="298" type="line"/>
      <point x="138" y="292"/>
      <point x="213" y="298"/>
      <point x="253" y="304" type="curve"/>
      <point x="243" y="284"/>
      <point x="234" y="254"/>
      <point x="231" y="236" type="curve"/>
      <point x="187" y="243"/>
      <point x="99" y="243"/>
      <point x="33" y="238" type="curve"/>
      <point x="30" y="243"/>
      <point x="29" y="248"/>
      <point x="28" y="254" type="curve"/>
      <point x="86" y="315"/>
      <point x="169" y="420"/>
      <point x="169" y="500" type="curve" smooth="yes"/>
      <point x="169" y="535"/>
      <point x="154" y="548"/>
      <point x="132" y="548" type="curve" smooth="yes"/>
      <point x="107" y="548"/>
      <point x="79" y="538"/>
      <point x="58" y="530" type="curve"/>
      <point x="52" y="535"/>
      <point x="50" y="541"/>
    </contour>
  </outline>
</glyph>
<glyph name="threesuperior" format="1">
  <advance width="251"/>
  <unicode hex="00B3"/>
  <outline>
    <contour>
      <point x="45" y="568" type="curve"/>
      <point x="58" y="574"/>
      <point x="105" y="593"/>
      <point x="132" y="593" type="curve" smooth="yes"/>
      <point x="170" y="593"/>
      <point x="197" y="564"/>
      <point x="197" y="531" type="curve" smooth="yes"/>
      <point x="197" y="505"/>
      <point x="166" y="469"/>
      <point x="135" y="449" type="curve"/>
      <point x="193" y="452"/>
      <point x="226" y="419"/>
      <point x="226" y="367" type="curve" smooth="yes"/>
      <point x="226" y="263"/>
      <point x="102" y="217"/>
      <point x="29" y="224" type="curve"/>
      <point x="29" y="229"/>
      <point x="29" y="240"/>
      <point x="31" y="246" type="curve"/>
      <point x="97" y="241"/>
      <point x="166" y="286"/>
      <point x="166" y="365" type="curve" smooth="yes"/>
      <point x="166" y="404"/>
      <point x="145" y="426"/>
      <point x="115" y="426" type="curve" smooth="yes"/>
      <point x="107" y="426"/>
      <point x="91" y="424"/>
      <point x="83" y="421" type="curve"/>
      <point x="78" y="426"/>
      <point x="77" y="435"/>
      <point x="76" y="441" type="curve"/>
      <point x="121" y="455"/>
      <point x="136" y="481"/>
      <point x="136" y="519" type="curve" smooth="yes"/>
      <point x="136" y="544"/>
      <point x="120" y="558"/>
      <point x="104" y="558" type="curve" smooth="yes"/>
      <point x="83" y="558"/>
      <point x="63" y="554"/>
      <point x="52" y="549" type="curve"/>
      <point x="50" y="552"/>
      <point x="46" y="562"/>
    </contour>
  </outline>
</glyph>
<glyph name="acute" format="1">
  <advance width="416"/>
  <unicode hex="00B4"/>
  <outline>
    <contour>
      <point x="324" y="562" type="curve"/>
      <point x="326" y="543"/>
      <point x="334" y="518"/>
      <point x="343" y="499" type="curve"/>
      <point x="274" y="486"/>
      <point x="226" y="475"/>
      <point x="161" y="455" type="curve"/>
      <point x="154" y="473" type="line"/>
      <point x="213" y="500"/>
      <point x="286" y="539"/>
    </contour>
  </outline>
</glyph>
<glyph name="mu" format="1">
  <advance width="458"/>
  <unicode hex="00B5"/>
  <unicode hex="03bc"/>
  <outline>
    <contour>
      <point x="130" y="390" type="curve"/>
      <point x="122" y="320"/>
      <point x="117" y="259"/>
      <point x="117" y="189" type="curve"/>
      <point x="118" y="133"/>
      <point x="112" y="37"/>
      <point x="187" y="37" type="curve" smooth="yes"/>
      <point x="225" y="37"/>
      <point x="292" y="48"/>
      <point x="331" y="61" type="curve"/>
      <point x="335" y="99"/>
      <point x="335" y="308"/>
      <point x="326" y="377" type="curve"/>
      <point x="344" y="378"/>
      <point x="380" y="382"/>
      <point x="406" y="388" type="curve"/>
      <point x="395" y="299"/>
      <point x="397" y="44"/>
      <point x="409" y="6" type="curve"/>
      <point x="380" y="2"/>
      <point x="366" y="2"/>
      <point x="335" y="-4" type="curve"/>
      <point x="332" y="12"/>
      <point x="333" y="22"/>
      <point x="332" y="36" type="curve"/>
      <point x="285" y="21"/>
      <point x="206" y="-5"/>
      <point x="142" y="-5" type="curve" smooth="yes"/>
      <point x="112" y="-5"/>
      <point x="90" y="7"/>
      <point x="77" y="22" type="curve"/>
      <point x="84" y="-106"/>
      <point x="104" y="-231"/>
      <point x="109" y="-254" type="curve"/>
      <point x="82" y="-258"/>
      <point x="67" y="-261"/>
      <point x="34" y="-277" type="curve"/>
      <point x="47" y="-213"/>
      <point x="52" y="-23"/>
      <point x="52" y="154" type="curve" smooth="yes"/>
      <point x="52" y="256"/>
      <point x="52" y="347"/>
      <point x="48" y="380" type="curve"/>
      <point x="79" y="381"/>
      <point x="106" y="384"/>
    </contour>
  </outline>
</glyph>
<glyph name="paragraph" format="1">
  <advance width="489"/>
  <unicode hex="00B6"/>
  <outline>
    <contour>
      <point x="223" y="320" type="curve"/>
      <point x="226" y="315"/>
      <point x="228" y="306"/>
      <point x="228" y="300" type="curve"/>
      <point x="192" y="289"/>
      <point x="165" y="285"/>
      <point x="146" y="285" type="curve" smooth="yes"/>
      <point x="55" y="285"/>
      <point x="25" y="330"/>
      <point x="25" y="395" type="curve" smooth="yes"/>
      <point x="25" y="465"/>
      <point x="136" y="585"/>
      <point x="290" y="584" type="curve" smooth="yes"/>
      <point x="324" y="584"/>
      <point x="373" y="584"/>
      <point x="441" y="578" type="curve"/>
      <point x="424" y="509"/>
      <point x="426" y="146"/>
      <point x="430" y="-2" type="curve"/>
      <point x="404" y="1"/>
      <point x="380" y="3"/>
      <point x="355" y="0" type="curve"/>
      <point x="362" y="123"/>
      <point x="364" y="393"/>
      <point x="361" y="556" type="curve"/>
      <point x="345" y="559"/>
      <point x="333" y="558"/>
      <point x="317" y="558" type="curve"/>
      <point x="312" y="359"/>
      <point x="310" y="104"/>
      <point x="312" y="-1" type="curve"/>
      <point x="300" y="1"/>
      <point x="292" y="1"/>
      <point x="278" y="-1" type="curve"/>
      <point x="286" y="205"/>
      <point x="290" y="371"/>
      <point x="284" y="558" type="curve"/>
      <point x="168" y="555"/>
      <point x="95" y="465"/>
      <point x="95" y="397" type="curve" smooth="yes"/>
      <point x="95" y="343"/>
      <point x="133" y="315"/>
      <point x="173" y="315" type="curve" smooth="yes"/>
      <point x="184" y="315"/>
      <point x="208" y="316"/>
    </contour>
  </outline>
</glyph>
<glyph name="cedilla" format="1">
  <advance width="416"/>
  <unicode hex="00B8"/>
  <outline>
    <contour>
      <point x="136" y="-105" type="curve"/>
      <point x="154" y="-77"/>
      <point x="183" y="-12"/>
      <point x="196" y="21" type="curve"/>
      <point x="220" y="10" type="line"/>
      <point x="209" y="-11"/>
      <point x="194" y="-46"/>
      <point x="186" y="-69" type="curve"/>
      <point x="207" y="-84"/>
      <point x="235" y="-108"/>
      <point x="235" y="-138" type="curve" smooth="yes"/>
      <point x="235" y="-158"/>
      <point x="207" y="-216"/>
      <point x="167" y="-261" type="curve"/>
      <point x="162" y="-259"/>
      <point x="158" y="-256"/>
      <point x="153" y="-251" type="curve"/>
      <point x="168" y="-227"/>
      <point x="186" y="-191"/>
      <point x="186" y="-160" type="curve" smooth="yes"/>
      <point x="186" y="-143"/>
      <point x="156" y="-118"/>
    </contour>
  </outline>
</glyph>
<glyph name="onesuperior" format="1">
  <advance width="234"/>
  <unicode hex="00B9"/>
  <outline>
    <contour>
      <point x="158" y="591" type="curve"/>
      <point x="163" y="589"/>
      <point x="170" y="588"/>
      <point x="173" y="586" type="curve"/>
      <point x="166" y="539"/>
      <point x="170" y="301"/>
      <point x="174" y="238" type="curve"/>
      <point x="157" y="241"/>
      <point x="117" y="241"/>
      <point x="98" y="238" type="curve"/>
      <point x="108" y="295"/>
      <point x="111" y="487"/>
      <point x="105" y="537" type="curve"/>
      <point x="77" y="536"/>
      <point x="57" y="533"/>
      <point x="30" y="528" type="curve"/>
      <point x="28" y="531"/>
      <point x="27" y="541"/>
      <point x="27" y="545" type="curve"/>
      <point x="72" y="558"/>
      <point x="123" y="577"/>
    </contour>
  </outline>
</glyph>
<glyph name="ordmasculine" format="1">
  <advance width="419"/>
  <unicode hex="00BA"/>
  <outline>
    <contour>
      <point x="225" y="593" type="curve" smooth="yes"/>
      <point x="338" y="593"/>
      <point x="384" y="517"/>
      <point x="384" y="421" type="curve" smooth="yes"/>
      <point x="384" y="372"/>
      <point x="359" y="307"/>
      <point x="315" y="272" type="curve" smooth="yes"/>
      <point x="282" y="246"/>
      <point x="230" y="230"/>
      <point x="189" y="230" type="curve" smooth="yes"/>
      <point x="75" y="230"/>
      <point x="34" y="330"/>
      <point x="36" y="400" type="curve"/>
      <point x="36" y="463"/>
      <point x="67" y="524"/>
      <point x="112" y="553" type="curve" smooth="yes"/>
      <point x="142" y="573"/>
      <point x="195" y="593"/>
    </contour>
    <contour>
      <point x="213" y="561" type="curve" smooth="yes"/>
      <point x="191" y="561"/>
      <point x="165" y="554"/>
      <point x="149" y="540" type="curve" smooth="yes"/>
      <point x="118" y="514"/>
      <point x="102" y="461"/>
      <point x="102" y="400" type="curve" smooth="yes"/>
      <point x="102" y="346"/>
      <point x="129" y="261"/>
      <point x="199" y="261" type="curve" smooth="yes"/>
      <point x="221" y="261"/>
      <point x="250" y="266"/>
      <point x="265" y="277" type="curve" smooth="yes"/>
      <point x="303" y="305"/>
      <point x="320" y="367"/>
      <point x="319" y="419" type="curve" smooth="yes"/>
      <point x="316" y="499"/>
      <point x="272" y="561"/>
    </contour>
  </outline>
</glyph>
<glyph name="onequarter" format="1">
  <advance width="585"/>
  <unicode hex="00BC"/>
  <outline>
    <contour>
      <point x="453" y="-1" type="curve"/>
      <point x="459" y="27"/>
      <point x="460" y="57"/>
      <point x="459" y="99" type="curve" smooth="yes"/>
      <point x="458" y="99"/>
      <point x="355" y="101"/>
      <point x="320" y="99" type="curve"/>
      <point x="316" y="102"/>
      <point x="315" y="112"/>
      <point x="312" y="117" type="curve"/>
      <point x="359" y="180"/>
      <point x="446" y="310"/>
      <point x="479" y="360" type="curve"/>
      <point x="483" y="359"/>
      <point x="496" y="354"/>
      <point x="499" y="350" type="curve"/>
      <point x="457" y="288"/>
      <point x="391" y="188"/>
      <point x="352" y="123" type="curve"/>
      <point x="391" y="122"/>
      <point x="429" y="123"/>
      <point x="459" y="122" type="curve"/>
      <point x="460" y="140"/>
      <point x="460" y="196"/>
      <point x="459" y="246" type="curve"/>
      <point x="475" y="249"/>
      <point x="511" y="254"/>
      <point x="527" y="261" type="curve"/>
      <point x="522" y="221"/>
      <point x="520" y="183"/>
      <point x="520" y="123" type="curve"/>
      <point x="529" y="123"/>
      <point x="534" y="123"/>
      <point x="545" y="124" type="curve"/>
      <point x="547" y="115"/>
      <point x="547" y="107"/>
      <point x="544" y="98" type="curve"/>
      <point x="530" y="98"/>
      <point x="525" y="99"/>
      <point x="519" y="98" type="curve"/>
      <point x="519" y="78"/>
      <point x="521" y="31"/>
      <point x="526" y="1" type="curve"/>
      <point x="511" y="2"/>
      <point x="471" y="2"/>
    </contour>
    <contour>
      <point x="158" y="590" type="curve"/>
      <point x="163" y="589"/>
      <point x="170" y="588"/>
      <point x="173" y="586" type="curve"/>
      <point x="166" y="541"/>
      <point x="170" y="315"/>
      <point x="174" y="255" type="curve"/>
      <point x="157" y="258"/>
      <point x="117" y="258"/>
      <point x="98" y="255" type="curve"/>
      <point x="108" y="309"/>
      <point x="111" y="492"/>
      <point x="105" y="539" type="curve"/>
      <point x="77" y="538"/>
      <point x="57" y="535"/>
      <point x="30" y="531" type="curve"/>
      <point x="28" y="533"/>
      <point x="27" y="543"/>
      <point x="27" y="547" type="curve"/>
      <point x="72" y="559"/>
      <point x="123" y="577"/>
    </contour>
    <contour>
      <point x="515" y="586" type="curve"/>
      <point x="380" y="404"/>
      <point x="211" y="170"/>
      <point x="81" y="-12" type="curve"/>
      <point x="70" y="-9"/>
      <point x="61" y="-9"/>
      <point x="52" y="-2" type="curve"/>
      <point x="186" y="181"/>
      <point x="358" y="413"/>
      <point x="487" y="596" type="curve"/>
      <point x="496" y="595"/>
      <point x="511" y="590"/>
    </contour>
  </outline>
</glyph>
<glyph name="onehalf" format="1">
  <advance width="606"/>
  <unicode hex="00BD"/>
  <outline>
    <contour>
      <point x="158" y="589" type="curve"/>
      <point x="163" y="588"/>
      <point x="170" y="587"/>
      <point x="173" y="585" type="curve"/>
      <point x="166" y="540"/>
      <point x="170" y="314"/>
      <point x="174" y="254" type="curve"/>
      <point x="157" y="257"/>
      <point x="117" y="257"/>
      <point x="98" y="254" type="curve"/>
      <point x="108" y="308"/>
      <point x="111" y="491"/>
      <point x="105" y="538" type="curve"/>
      <point x="77" y="537"/>
      <point x="57" y="534"/>
      <point x="30" y="530" type="curve"/>
      <point x="28" y="532"/>
      <point x="27" y="542"/>
      <point x="27" y="546" type="curve"/>
      <point x="72" y="558"/>
      <point x="123" y="576"/>
    </contour>
    <contour>
      <point x="515" y="586" type="curve"/>
      <point x="380" y="404"/>
      <point x="211" y="170"/>
      <point x="81" y="-12" type="curve"/>
      <point x="70" y="-9"/>
      <point x="61" y="-9"/>
      <point x="52" y="-2" type="curve"/>
      <point x="186" y="181"/>
      <point x="358" y="413"/>
      <point x="487" y="596" type="curve"/>
      <point x="496" y="595"/>
      <point x="511" y="590"/>
    </contour>
    <contour>
      <point x="370" y="293" type="curve"/>
      <point x="401" y="309"/>
      <point x="445" y="333"/>
      <point x="489" y="333" type="curve" smooth="yes"/>
      <point x="538" y="333"/>
      <point x="553" y="297"/>
      <point x="553" y="264" type="curve" smooth="yes"/>
      <point x="553" y="221"/>
      <point x="510" y="169"/>
      <point x="487" y="138" type="curve"/>
      <point x="419" y="55" type="line"/>
      <point x="460" y="49"/>
      <point x="535" y="55"/>
      <point x="575" y="61" type="curve"/>
      <point x="565" y="42"/>
      <point x="556" y="13"/>
      <point x="553" y="-4" type="curve"/>
      <point x="509" y="3"/>
      <point x="421" y="3"/>
      <point x="355" y="-2" type="curve"/>
      <point x="352" y="3"/>
      <point x="351" y="8"/>
      <point x="350" y="13" type="curve"/>
      <point x="408" y="71"/>
      <point x="491" y="171"/>
      <point x="491" y="247" type="curve" smooth="yes"/>
      <point x="491" y="280"/>
      <point x="476" y="293"/>
      <point x="454" y="293" type="curve" smooth="yes"/>
      <point x="429" y="293"/>
      <point x="401" y="283"/>
      <point x="380" y="276" type="curve"/>
      <point x="374" y="280"/>
      <point x="372" y="286"/>
    </contour>
  </outline>
</glyph>
<glyph name="threequarters" format="1">
  <advance width="585"/>
  <unicode hex="00BE"/>
  <outline>
    <contour>
      <point x="453" y="-1" type="curve"/>
      <point x="459" y="27"/>
      <point x="460" y="57"/>
      <point x="459" y="99" type="curve" smooth="yes"/>
      <point x="458" y="99"/>
      <point x="355" y="101"/>
      <point x="320" y="99" type="curve"/>
      <point x="316" y="102"/>
      <point x="315" y="112"/>
      <point x="312" y="117" type="curve"/>
      <point x="359" y="180"/>
      <point x="446" y="310"/>
      <point x="479" y="360" type="curve"/>
      <point x="483" y="359"/>
      <point x="496" y="354"/>
      <point x="499" y="350" type="curve"/>
      <point x="457" y="288"/>
      <point x="391" y="188"/>
      <point x="352" y="123" type="curve"/>
      <point x="391" y="122"/>
      <point x="429" y="123"/>
      <point x="459" y="122" type="curve"/>
      <point x="460" y="140"/>
      <point x="460" y="196"/>
      <point x="459" y="246" type="curve"/>
      <point x="475" y="249"/>
      <point x="511" y="254"/>
      <point x="527" y="261" type="curve"/>
      <point x="522" y="221"/>
      <point x="520" y="183"/>
      <point x="520" y="123" type="curve"/>
      <point x="529" y="123"/>
      <point x="534" y="123"/>
      <point x="545" y="124" type="curve"/>
      <point x="547" y="115"/>
      <point x="547" y="107"/>
      <point x="544" y="98" type="curve"/>
      <point x="530" y="98"/>
      <point x="525" y="99"/>
      <point x="519" y="98" type="curve"/>
      <point x="519" y="78"/>
      <point x="521" y="31"/>
      <point x="526" y="1" type="curve"/>
      <point x="511" y="2"/>
      <point x="471" y="2"/>
    </contour>
    <contour>
      <point x="45" y="567" type="curve"/>
      <point x="58" y="572"/>
      <point x="105" y="590"/>
      <point x="132" y="590" type="curve" smooth="yes"/>
      <point x="170" y="590"/>
      <point x="197" y="563"/>
      <point x="197" y="531" type="curve" smooth="yes"/>
      <point x="197" y="507"/>
      <point x="166" y="473"/>
      <point x="135" y="454" type="curve"/>
      <point x="193" y="456"/>
      <point x="226" y="425"/>
      <point x="226" y="376" type="curve" smooth="yes"/>
      <point x="226" y="277"/>
      <point x="102" y="233"/>
      <point x="29" y="240" type="curve"/>
      <point x="29" y="245"/>
      <point x="29" y="255"/>
      <point x="31" y="261" type="curve"/>
      <point x="97" y="256"/>
      <point x="166" y="299"/>
      <point x="166" y="374" type="curve" smooth="yes"/>
      <point x="166" y="411"/>
      <point x="145" y="432"/>
      <point x="115" y="432" type="curve" smooth="yes"/>
      <point x="107" y="432"/>
      <point x="91" y="430"/>
      <point x="83" y="427" type="curve"/>
      <point x="78" y="432"/>
      <point x="77" y="440"/>
      <point x="76" y="446" type="curve"/>
      <point x="121" y="459"/>
      <point x="136" y="484"/>
      <point x="136" y="520" type="curve" smooth="yes"/>
      <point x="136" y="544"/>
      <point x="120" y="557"/>
      <point x="104" y="557" type="curve" smooth="yes"/>
      <point x="83" y="557"/>
      <point x="63" y="553"/>
      <point x="52" y="549" type="curve"/>
      <point x="50" y="551"/>
      <point x="46" y="561"/>
    </contour>
    <contour>
      <point x="515" y="586" type="curve"/>
      <point x="380" y="404"/>
      <point x="211" y="170"/>
      <point x="81" y="-12" type="curve"/>
      <point x="70" y="-9"/>
      <point x="61" y="-9"/>
      <point x="52" y="-2" type="curve"/>
      <point x="186" y="181"/>
      <point x="358" y="413"/>
      <point x="487" y="596" type="curve"/>
      <point x="496" y="595"/>
      <point x="511" y="590"/>
    </contour>
  </outline>
</glyph>
<glyph name="questiondown" format="1">
  <advance width="262"/>
  <unicode hex="00BF"/>
  <outline>
    <contour>
      <point x="141" y="224" type="curve"/>
      <point x="165" y="232" type="line"/>
      <point x="179" y="189"/>
      <point x="186" y="155"/>
      <point x="185" y="118" type="curve" smooth="yes"/>
      <point x="184" y="49"/>
      <point x="106" y="9"/>
      <point x="106" y="-62" type="curve" smooth="yes"/>
      <point x="106" y="-112"/>
      <point x="148" y="-159"/>
      <point x="189" y="-200" type="curve"/>
      <point x="175" y="-218" type="line"/>
      <point x="101" y="-162"/>
      <point x="46" y="-94"/>
      <point x="46" y="-46" type="curve" smooth="yes"/>
      <point x="46" y="39"/>
      <point x="147" y="88"/>
      <point x="150" y="165" type="curve" smooth="yes"/>
      <point x="151" y="178"/>
      <point x="149" y="204"/>
    </contour>
    <contour>
      <point x="145" y="320" type="curve" smooth="yes"/>
      <point x="117" y="320"/>
      <point x="103" y="332"/>
      <point x="103" y="351" type="curve" smooth="yes"/>
      <point x="103" y="376"/>
      <point x="133" y="390"/>
      <point x="160" y="390" type="curve" smooth="yes"/>
      <point x="180" y="390"/>
      <point x="195" y="379"/>
      <point x="195" y="361" type="curve" smooth="yes"/>
      <point x="195" y="340"/>
      <point x="170" y="320"/>
    </contour>
  </outline>
</glyph>
<glyph name="Atilde" format="1">
  <advance width="509"/>
  <unicode hex="00C3"/>
  <outline>
    <contour>
      <point x="333" y="235" type="curve"/>
      <point x="279" y="233"/>
      <point x="190" y="225"/>
      <point x="143" y="221" type="curve"/>
      <point x="103" y="126"/>
      <point x="82" y="66"/>
      <point x="68" y="4" type="curve"/>
      <point x="48" y="5"/>
      <point x="18" y="-1"/>
      <point x="-7" y="-7" type="curve"/>
      <point x="76" y="137"/>
      <point x="141" y="281"/>
      <point x="210" y="441" type="curve" smooth="yes"/>
      <point x="242" y="513"/>
      <point x="251" y="543"/>
      <point x="261" y="588" type="curve"/>
      <point x="272" y="593"/>
      <point x="276" y="593"/>
      <point x="288" y="598" type="curve"/>
      <point x="355" y="365"/>
      <point x="422" y="172"/>
      <point x="493" y="-2" type="curve"/>
      <point x="451" y="3"/>
      <point x="421" y="1"/>
      <point x="398" y="-2" type="curve"/>
      <point x="386" y="59"/>
      <point x="359" y="146"/>
    </contour>
    <contour>
      <point x="256" y="481" type="curve"/>
      <point x="158" y="254" type="line"/>
      <point x="211" y="253"/>
      <point x="278" y="256"/>
      <point x="325" y="260" type="curve"/>
      <point x="303" y="342"/>
      <point x="278" y="405"/>
    </contour>
    <contour>
      <point x="313" y="640" type="curve" smooth="yes"/>
      <point x="296" y="640"/>
      <point x="259" y="658"/>
      <point x="242" y="659" type="curve"/>
      <point x="218" y="659"/>
      <point x="201" y="651"/>
      <point x="178" y="636" type="curve"/>
      <point x="167" y="650" type="line"/>
      <point x="194" y="675"/>
      <point x="239" y="709"/>
      <point x="260" y="708" type="curve" smooth="yes"/>
      <point x="279" y="708"/>
      <point x="312" y="692"/>
      <point x="332" y="691" type="curve"/>
      <point x="355" y="691"/>
      <point x="373" y="700"/>
      <point x="394" y="712" type="curve"/>
      <point x="406" y="698" type="line"/>
      <point x="374" y="668"/>
      <point x="334" y="640"/>
    </contour>
  </outline>
</glyph>
<glyph name="Adieresis" format="1">
  <advance width="509"/>
  <unicode hex="00C4"/>
  <outline>
    <contour>
      <point x="333" y="235" type="curve"/>
      <point x="279" y="233"/>
      <point x="190" y="225"/>
      <point x="143" y="221" type="curve"/>
      <point x="103" y="126"/>
      <point x="82" y="66"/>
      <point x="68" y="4" type="curve"/>
      <point x="48" y="5"/>
      <point x="18" y="-1"/>
      <point x="-7" y="-7" type="curve"/>
      <point x="76" y="137"/>
      <point x="141" y="281"/>
      <point x="210" y="441" type="curve" smooth="yes"/>
      <point x="242" y="513"/>
      <point x="251" y="543"/>
      <point x="261" y="588" type="curve"/>
      <point x="272" y="593"/>
      <point x="276" y="593"/>
      <point x="288" y="598" type="curve"/>
      <point x="355" y="365"/>
      <point x="422" y="172"/>
      <point x="493" y="-2" type="curve"/>
      <point x="451" y="3"/>
      <point x="421" y="1"/>
      <point x="398" y="-2" type="curve"/>
      <point x="386" y="59"/>
      <point x="359" y="146"/>
    </contour>
    <contour>
      <point x="256" y="481" type="curve"/>
      <point x="158" y="254" type="line"/>
      <point x="211" y="253"/>
      <point x="278" y="256"/>
      <point x="325" y="260" type="curve"/>
      <point x="303" y="342"/>
      <point x="278" y="405"/>
    </contour>
    <contour>
      <point x="359" y="707" type="curve" smooth="yes"/>
      <point x="382" y="707"/>
      <point x="394" y="695"/>
      <point x="394" y="680" type="curve" smooth="yes"/>
      <point x="394" y="661"/>
      <point x="368" y="648"/>
      <point x="346" y="648" type="curve" smooth="yes"/>
      <point x="330" y="648"/>
      <point x="315" y="659"/>
      <point x="315" y="672" type="curve" smooth="yes"/>
      <point x="315" y="690"/>
      <point x="338" y="707"/>
    </contour>
    <contour>
      <point x="217" y="707" type="curve" smooth="yes"/>
      <point x="240" y="707"/>
      <point x="253" y="695"/>
      <point x="253" y="680" type="curve" smooth="yes"/>
      <point x="253" y="661"/>
      <point x="226" y="648"/>
      <point x="205" y="648" type="curve" smooth="yes"/>
      <point x="188" y="648"/>
      <point x="174" y="659"/>
      <point x="174" y="672" type="curve" smooth="yes"/>
      <point x="174" y="690"/>
      <point x="196" y="707"/>
    </contour>
  </outline>
</glyph>
<glyph name="Aring" format="1">
  <advance width="509"/>
  <unicode hex="00C5"/>
  <outline>
    <contour>
      <point x="333" y="235" type="curve"/>
      <point x="279" y="233"/>
      <point x="190" y="225"/>
      <point x="143" y="221" type="curve"/>
      <point x="103" y="126"/>
      <point x="82" y="66"/>
      <point x="68" y="4" type="curve"/>
      <point x="48" y="5"/>
      <point x="18" y="-1"/>
      <point x="-7" y="-7" type="curve"/>
      <point x="76" y="137"/>
      <point x="141" y="281"/>
      <point x="210" y="441" type="curve" smooth="yes"/>
      <point x="242" y="513"/>
      <point x="251" y="543"/>
      <point x="261" y="588" type="curve"/>
      <point x="272" y="593"/>
      <point x="276" y="593"/>
      <point x="288" y="598" type="curve"/>
      <point x="355" y="365"/>
      <point x="422" y="172"/>
      <point x="493" y="-2" type="curve"/>
      <point x="451" y="3"/>
      <point x="421" y="1"/>
      <point x="398" y="-2" type="curve"/>
      <point x="386" y="59"/>
      <point x="359" y="146"/>
    </contour>
    <contour>
      <point x="256" y="481" type="curve"/>
      <point x="158" y="254" type="line"/>
      <point x="211" y="253"/>
      <point x="278" y="256"/>
      <point x="325" y="260" type="curve"/>
      <point x="303" y="342"/>
      <point x="278" y="405"/>
    </contour>
    <contour>
      <point x="288" y="735" type="curve" smooth="yes"/>
      <point x="333" y="735"/>
      <point x="371" y="719"/>
      <point x="371" y="685" type="curve" smooth="yes"/>
      <point x="371" y="638"/>
      <point x="309" y="617"/>
      <point x="263" y="618" type="curve" smooth="yes"/>
      <point x="219" y="619"/>
      <point x="190" y="636"/>
      <point x="190" y="670" type="curve" smooth="yes"/>
      <point x="190" y="707"/>
      <point x="235" y="735"/>
    </contour>
    <contour>
      <point x="283" y="714" type="curve" smooth="yes"/>
      <point x="257" y="714"/>
      <point x="237" y="698"/>
      <point x="237" y="674" type="curve" smooth="yes"/>
      <point x="237" y="656"/>
      <point x="250" y="640"/>
      <point x="275" y="640" type="curve" smooth="yes"/>
      <point x="306" y="640"/>
      <point x="324" y="658"/>
      <point x="324" y="683" type="curve" smooth="yes"/>
      <point x="324" y="699"/>
      <point x="304" y="714"/>
    </contour>
  </outline>
</glyph>
<glyph name="AE" format="1">
  <advance width="768"/>
  <unicode hex="00C6"/>
  <outline>
    <contour>
      <point x="397" y="583" type="curve"/>
      <point x="501" y="579"/>
      <point x="627" y="579"/>
      <point x="733" y="582" type="curve"/>
      <point x="731" y="558" type="line"/>
      <point x="630" y="555"/>
      <point x="569" y="553"/>
      <point x="477" y="546" type="curve"/>
      <point x="473" y="507"/>
      <point x="472" y="367"/>
      <point x="472" y="343" type="curve"/>
      <point x="549" y="341"/>
      <point x="618" y="344"/>
      <point x="694" y="346" type="curve"/>
      <point x="696" y="323" type="line"/>
      <point x="639" y="318"/>
      <point x="538" y="314"/>
      <point x="471" y="306" type="curve"/>
      <point x="470" y="247"/>
      <point x="472" y="102"/>
      <point x="474" y="38" type="curve"/>
      <point x="549" y="28"/>
      <point x="635" y="25"/>
      <point x="752" y="22" type="curve"/>
      <point x="752" y="-2" type="line"/>
      <point x="566" y="0"/>
      <point x="519" y="1"/>
      <point x="390" y="-2" type="curve"/>
      <point x="395" y="33"/>
      <point x="400" y="137"/>
      <point x="401" y="245" type="curve"/>
      <point x="340" y="242"/>
      <point x="245" y="234"/>
      <point x="206" y="231" type="curve"/>
      <point x="149" y="136"/>
      <point x="111" y="67"/>
      <point x="85" y="4" type="curve"/>
      <point x="65" y="5"/>
      <point x="22" y="-1"/>
      <point x="-4" y="-7" type="curve"/>
      <point x="136" y="172"/>
      <point x="280" y="381"/>
    </contour>
    <contour>
      <point x="229" y="265" type="curve"/>
      <point x="272" y="264"/>
      <point x="350" y="267"/>
      <point x="401" y="270" type="curve"/>
      <point x="403" y="370"/>
      <point x="402" y="474"/>
      <point x="400" y="535" type="curve"/>
      <point x="351" y="462"/>
      <point x="296" y="374"/>
    </contour>
  </outline>
</glyph>
<glyph name="Ccedilla" format="1">
  <advance width="538"/>
  <unicode hex="00C7"/>
  <outline>
    <contour>
      <point x="235" y="-105" type="curve"/>
      <point x="247" y="-84"/>
      <point x="266" y="-46"/>
      <point x="280" y="-14" type="curve"/>
      <point x="102" y="-5"/>
      <point x="33" y="127"/>
      <point x="33" y="245" type="curve" smooth="yes"/>
      <point x="33" y="411"/>
      <point x="156" y="595"/>
      <point x="375" y="595" type="curve" smooth="yes"/>
      <point x="406" y="595"/>
      <point x="457" y="581"/>
      <point x="489" y="559" type="curve"/>
      <point x="488" y="555"/>
      <point x="480" y="543"/>
      <point x="475" y="539" type="curve"/>
      <point x="450" y="553"/>
      <point x="400" y="562"/>
      <point x="370" y="562" type="curve" smooth="yes"/>
      <point x="222" y="562"/>
      <point x="106" y="429"/>
      <point x="106" y="250" type="curve" smooth="yes"/>
      <point x="106" y="155"/>
      <point x="175" y="30"/>
      <point x="320" y="28" type="curve" smooth="yes"/>
      <point x="372" y="27"/>
      <point x="434" y="45"/>
      <point x="494" y="75" type="curve"/>
      <point x="500" y="69"/>
      <point x="503" y="65"/>
      <point x="505" y="54" type="curve"/>
      <point x="454" y="25"/>
      <point x="372" y="-9"/>
      <point x="307" y="-13" type="curve"/>
      <point x="298" y="-32"/>
      <point x="290" y="-53"/>
      <point x="285" y="-69" type="curve"/>
      <point x="305" y="-84"/>
      <point x="333" y="-108"/>
      <point x="333" y="-138" type="curve" smooth="yes"/>
      <point x="333" y="-158"/>
      <point x="305" y="-216"/>
      <point x="266" y="-261" type="curve"/>
      <point x="261" y="-259"/>
      <point x="256" y="-256"/>
      <point x="251" y="-251" type="curve"/>
      <point x="266" y="-227"/>
      <point x="284" y="-191"/>
      <point x="284" y="-160" type="curve" smooth="yes"/>
      <point x="284" y="-143"/>
      <point x="255" y="-118"/>
    </contour>
  </outline>
</glyph>
<glyph name="Ecircumflex" format="1">
  <advance width="426"/>
  <unicode hex="00CA"/>
  <outline>
    <contour>
      <point x="55" y="583" type="curve"/>
      <point x="140" y="579"/>
      <point x="277" y="579"/>
      <point x="392" y="582" type="curve"/>
      <point x="390" y="558" type="line"/>
      <point x="289" y="555"/>
      <point x="228" y="553"/>
      <point x="136" y="546" type="curve"/>
      <point x="132" y="507"/>
      <point x="131" y="367"/>
      <point x="131" y="343" type="curve"/>
      <point x="208" y="341"/>
      <point x="276" y="344"/>
      <point x="353" y="346" type="curve"/>
      <point x="355" y="323" type="line"/>
      <point x="298" y="318"/>
      <point x="196" y="314"/>
      <point x="130" y="306" type="curve"/>
      <point x="129" y="247"/>
      <point x="131" y="102"/>
      <point x="133" y="38" type="curve"/>
      <point x="208" y="28"/>
      <point x="294" y="25"/>
      <point x="411" y="22" type="curve"/>
      <point x="411" y="-2" type="line"/>
      <point x="176" y="1"/>
      <point x="162" y="1"/>
      <point x="48" y="-2" type="curve"/>
      <point x="61" y="83"/>
      <point x="64" y="530"/>
    </contour>
    <contour>
      <point x="142" y="634" type="curve"/>
      <point x="139" y="638"/>
      <point x="136" y="644"/>
      <point x="135" y="654" type="curve"/>
      <point x="168" y="674"/>
      <point x="197" y="696"/>
      <point x="246" y="731" type="curve"/>
      <point x="279" y="703"/>
      <point x="312" y="679"/>
      <point x="346" y="655" type="curve"/>
      <point x="344" y="648"/>
      <point x="340" y="642"/>
      <point x="335" y="636" type="curve"/>
      <point x="296" y="653"/>
      <point x="276" y="664"/>
      <point x="244" y="672" type="curve"/>
      <point x="211" y="664"/>
      <point x="184" y="652"/>
    </contour>
  </outline>
</glyph>
<glyph name="Edieresis" format="1">
  <advance width="426"/>
  <unicode hex="00CB"/>
  <outline>
    <contour>
      <point x="55" y="583" type="curve"/>
      <point x="140" y="579"/>
      <point x="277" y="579"/>
      <point x="392" y="582" type="curve"/>
      <point x="390" y="558" type="line"/>
      <point x="289" y="555"/>
      <point x="228" y="553"/>
      <point x="136" y="546" type="curve"/>
      <point x="132" y="507"/>
      <point x="131" y="367"/>
      <point x="131" y="343" type="curve"/>
      <point x="208" y="341"/>
      <point x="276" y="344"/>
      <point x="353" y="346" type="curve"/>
      <point x="355" y="323" type="line"/>
      <point x="298" y="318"/>
      <point x="196" y="314"/>
      <point x="130" y="306" type="curve"/>
      <point x="129" y="247"/>
      <point x="131" y="102"/>
      <point x="133" y="38" type="curve"/>
      <point x="208" y="28"/>
      <point x="294" y="25"/>
      <point x="411" y="22" type="curve"/>
      <point x="411" y="-2" type="line"/>
      <point x="176" y="1"/>
      <point x="162" y="1"/>
      <point x="48" y="-2" type="curve"/>
      <point x="61" y="83"/>
      <point x="64" y="530"/>
    </contour>
    <contour>
      <point x="317" y="707" type="curve" smooth="yes"/>
      <point x="340" y="707"/>
      <point x="352" y="695"/>
      <point x="352" y="680" type="curve" smooth="yes"/>
      <point x="352" y="661"/>
      <point x="326" y="648"/>
      <point x="304" y="648" type="curve" smooth="yes"/>
      <point x="288" y="648"/>
      <point x="273" y="659"/>
      <point x="273" y="672" type="curve" smooth="yes"/>
      <point x="273" y="690"/>
      <point x="296" y="707"/>
    </contour>
    <contour>
      <point x="175" y="707" type="curve" smooth="yes"/>
      <point x="198" y="707"/>
      <point x="211" y="695"/>
      <point x="211" y="680" type="curve" smooth="yes"/>
      <point x="211" y="661"/>
      <point x="184" y="648"/>
      <point x="163" y="648" type="curve" smooth="yes"/>
      <point x="146" y="648"/>
      <point x="132" y="659"/>
      <point x="132" y="672" type="curve" smooth="yes"/>
      <point x="132" y="690"/>
      <point x="154" y="707"/>
    </contour>
  </outline>
</glyph>
<glyph name="Igrave" format="1">
  <advance width="184"/>
  <unicode hex="00CC"/>
  <outline>
    <contour>
      <point x="55" y="583" type="curve"/>
      <point x="72" y="579"/>
      <point x="114" y="581"/>
      <point x="136" y="583" type="curve"/>
      <point x="121" y="387"/>
      <point x="122" y="146"/>
      <point x="130" y="-2" type="curve"/>
      <point x="104" y="1"/>
      <point x="72" y="3"/>
      <point x="48" y="0" type="curve"/>
      <point x="61" y="133"/>
      <point x="62" y="424"/>
    </contour>
    <contour>
      <point x="4" y="741" type="curve"/>
      <point x="41" y="718"/>
      <point x="115" y="679"/>
      <point x="174" y="652" type="curve"/>
      <point x="167" y="634" type="line"/>
      <point x="102" y="654"/>
      <point x="54" y="665"/>
      <point x="-15" y="678" type="curve"/>
      <point x="-6" y="697"/>
      <point x="2" y="722"/>
    </contour>
  </outline>
</glyph>
<glyph name="Iacute" format="1">
  <advance width="184"/>
  <unicode hex="00CD"/>
  <outline>
    <contour>
      <point x="55" y="583" type="curve"/>
      <point x="72" y="579"/>
      <point x="114" y="581"/>
      <point x="136" y="583" type="curve"/>
      <point x="121" y="387"/>
      <point x="122" y="146"/>
      <point x="130" y="-2" type="curve"/>
      <point x="104" y="1"/>
      <point x="72" y="3"/>
      <point x="48" y="0" type="curve"/>
      <point x="61" y="133"/>
      <point x="62" y="424"/>
    </contour>
    <contour>
      <point x="187" y="741" type="curve"/>
      <point x="189" y="722"/>
      <point x="197" y="697"/>
      <point x="206" y="678" type="curve"/>
      <point x="137" y="665"/>
      <point x="89" y="654"/>
      <point x="24" y="634" type="curve"/>
      <point x="17" y="652" type="line"/>
      <point x="76" y="679"/>
      <point x="149" y="718"/>
    </contour>
  </outline>
</glyph>
<glyph name="Icircumflex" format="1">
  <advance width="184"/>
  <unicode hex="00CE"/>
  <outline>
    <contour>
      <point x="55" y="583" type="curve"/>
      <point x="72" y="579"/>
      <point x="114" y="581"/>
      <point x="136" y="583" type="curve"/>
      <point x="121" y="387"/>
      <point x="122" y="146"/>
      <point x="130" y="-2" type="curve"/>
      <point x="104" y="1"/>
      <point x="72" y="3"/>
      <point x="48" y="0" type="curve"/>
      <point x="61" y="133"/>
      <point x="62" y="424"/>
    </contour>
    <contour>
      <point x="-5" y="634" type="curve"/>
      <point x="-8" y="638"/>
      <point x="-11" y="644"/>
      <point x="-12" y="654" type="curve"/>
      <point x="21" y="674"/>
      <point x="50" y="696"/>
      <point x="99" y="731" type="curve"/>
      <point x="132" y="703"/>
      <point x="165" y="679"/>
      <point x="199" y="655" type="curve"/>
      <point x="197" y="648"/>
      <point x="193" y="642"/>
      <point x="188" y="636" type="curve"/>
      <point x="149" y="653"/>
      <point x="129" y="664"/>
      <point x="97" y="672" type="curve"/>
      <point x="64" y="664"/>
      <point x="37" y="652"/>
    </contour>
  </outline>
</glyph>
<glyph name="Idieresis" format="1">
  <advance width="184"/>
  <unicode hex="00CF"/>
  <outline>
    <contour>
      <point x="167" y="704" type="curve" smooth="yes"/>
      <point x="191" y="704"/>
      <point x="203" y="693"/>
      <point x="203" y="678" type="curve" smooth="yes"/>
      <point x="203" y="659"/>
      <point x="176" y="648"/>
      <point x="155" y="648" type="curve" smooth="yes"/>
      <point x="138" y="648"/>
      <point x="124" y="657"/>
      <point x="124" y="670" type="curve" smooth="yes"/>
      <point x="124" y="688"/>
      <point x="146" y="704"/>
    </contour>
    <contour>
      <point x="37" y="704" type="curve" smooth="yes"/>
      <point x="60" y="704"/>
      <point x="72" y="693"/>
      <point x="72" y="678" type="curve" smooth="yes"/>
      <point x="72" y="659"/>
      <point x="46" y="648"/>
      <point x="24" y="648" type="curve" smooth="yes"/>
      <point x="7" y="648"/>
      <point x="-7" y="657"/>
      <point x="-7" y="670" type="curve" smooth="yes"/>
      <point x="-7" y="688"/>
      <point x="16" y="704"/>
    </contour>
    <contour>
      <point x="55" y="583" type="curve"/>
      <point x="72" y="579"/>
      <point x="114" y="581"/>
      <point x="136" y="583" type="curve"/>
      <point x="121" y="387"/>
      <point x="122" y="146"/>
      <point x="130" y="-2" type="curve"/>
      <point x="104" y="1"/>
      <point x="72" y="3"/>
      <point x="48" y="0" type="curve"/>
      <point x="61" y="133"/>
      <point x="62" y="424"/>
    </contour>
  </outline>
</glyph>
<glyph name="Eth" format="1">
  <advance width="557"/>
  <unicode hex="00D0"/>
  <outline>
    <contour>
      <point x="253" y="582" type="curve" smooth="yes"/>
      <point x="388" y="580"/>
      <point x="529" y="518"/>
      <point x="529" y="379" type="curve" smooth="yes"/>
      <point x="529" y="152"/>
      <point x="319" y="4"/>
      <point x="167" y="1" type="curve" smooth="yes"/>
      <point x="129" y="0"/>
      <point x="99" y="-1"/>
      <point x="48" y="3" type="curve"/>
      <point x="56" y="37"/>
      <point x="62" y="168"/>
      <point x="65" y="308" type="curve"/>
      <point x="12" y="308" type="line"/>
      <point x="10" y="318"/>
      <point x="13" y="330"/>
      <point x="16" y="336" type="curve"/>
      <point x="32" y="335"/>
      <point x="48" y="335"/>
      <point x="65" y="335" type="curve"/>
      <point x="67" y="423"/>
      <point x="67" y="513"/>
      <point x="64" y="583" type="curve"/>
      <point x="106" y="581"/>
      <point x="226" y="582"/>
    </contour>
    <contour>
      <point x="138" y="556" type="curve"/>
      <point x="135" y="490"/>
      <point x="133" y="413"/>
      <point x="132" y="333" type="curve"/>
      <point x="191" y="333"/>
      <point x="247" y="334"/>
      <point x="289" y="335" type="curve"/>
      <point x="290" y="325"/>
      <point x="288" y="316"/>
      <point x="283" y="306" type="curve"/>
      <point x="231" y="308"/>
      <point x="182" y="308"/>
      <point x="132" y="308" type="curve"/>
      <point x="131" y="213"/>
      <point x="132" y="115"/>
      <point x="135" y="31" type="curve"/>
      <point x="147" y="30"/>
      <point x="158" y="30"/>
      <point x="172" y="30" type="curve" smooth="yes"/>
      <point x="290" y="30"/>
      <point x="454" y="166"/>
      <point x="454" y="328" type="curve" smooth="yes"/>
      <point x="454" y="478"/>
      <point x="356" y="550"/>
      <point x="236" y="556" type="curve" smooth="yes"/>
      <point x="201" y="557"/>
      <point x="161" y="557"/>
    </contour>
  </outline>
</glyph>
<glyph name="Ntilde" format="1">
  <advance width="608"/>
  <unicode hex="00D1"/>
  <outline>
    <contour>
      <point x="548" y="3" type="curve"/>
      <point x="524" y="-7" type="line"/>
      <point x="390" y="157"/>
      <point x="169" y="385"/>
      <point x="93" y="469" type="curve"/>
      <point x="91" y="335"/>
      <point x="114" y="42"/>
      <point x="121" y="9" type="curve"/>
      <point x="94" y="3"/>
      <point x="78" y="2"/>
      <point x="46" y="-14" type="curve"/>
      <point x="63" y="72"/>
      <point x="70" y="400"/>
      <point x="65" y="582" type="curve"/>
      <point x="88" y="593" type="line"/>
      <point x="197" y="451"/>
      <point x="385" y="267"/>
      <point x="513" y="133" type="curve"/>
      <point x="513" y="305"/>
      <point x="505" y="475"/>
      <point x="492" y="575" type="curve"/>
      <point x="513" y="579"/>
      <point x="542" y="587"/>
      <point x="563" y="596" type="curve"/>
      <point x="549" y="558"/>
      <point x="538" y="313"/>
      <point x="540" y="103" type="curve" smooth="yes"/>
      <point x="540" y="76"/>
      <point x="543" y="36"/>
    </contour>
    <contour>
      <point x="347" y="640" type="curve" smooth="yes"/>
      <point x="330" y="640"/>
      <point x="293" y="658"/>
      <point x="276" y="659" type="curve"/>
      <point x="252" y="659"/>
      <point x="235" y="651"/>
      <point x="212" y="636" type="curve"/>
      <point x="201" y="650" type="line"/>
      <point x="228" y="675"/>
      <point x="273" y="709"/>
      <point x="294" y="708" type="curve" smooth="yes"/>
      <point x="313" y="708"/>
      <point x="346" y="692"/>
      <point x="366" y="691" type="curve"/>
      <point x="389" y="691"/>
      <point x="407" y="700"/>
      <point x="428" y="712" type="curve"/>
      <point x="440" y="698" type="line"/>
      <point x="408" y="668"/>
      <point x="368" y="640"/>
    </contour>
  </outline>
</glyph>
<glyph name="Oacute" format="1">
  <advance width="662"/>
  <unicode hex="00D3"/>
  <outline>
    <contour>
      <point x="357" y="594" type="curve" smooth="yes"/>
      <point x="511" y="594"/>
      <point x="625" y="478"/>
      <point x="626" y="315" type="curve" smooth="yes"/>
      <point x="627" y="211"/>
      <point x="574" y="107"/>
      <point x="489" y="43" type="curve" smooth="yes"/>
      <point x="445" y="10"/>
      <point x="365" y="-17"/>
      <point x="297" y="-17" type="curve" smooth="yes"/>
      <point x="96" y="-17"/>
      <point x="35" y="160"/>
      <point x="35" y="276" type="curve"/>
      <point x="37" y="359"/>
      <point x="79" y="478"/>
      <point x="181" y="542" type="curve" smooth="yes"/>
      <point x="221" y="568"/>
      <point x="297" y="594"/>
    </contour>
    <contour>
      <point x="343" y="562" type="curve" smooth="yes"/>
      <point x="216" y="562"/>
      <point x="112" y="464"/>
      <point x="112" y="278" type="curve" smooth="yes"/>
      <point x="112" y="139"/>
      <point x="206" y="16"/>
      <point x="320" y="16" type="curve" smooth="yes"/>
      <point x="451" y="16"/>
      <point x="552" y="136"/>
      <point x="552" y="311" type="curve"/>
      <point x="543" y="499"/>
      <point x="414" y="562"/>
    </contour>
    <contour>
      <point x="429" y="741" type="curve"/>
      <point x="431" y="722"/>
      <point x="439" y="697"/>
      <point x="448" y="678" type="curve"/>
      <point x="379" y="665"/>
      <point x="331" y="654"/>
      <point x="266" y="634" type="curve"/>
      <point x="259" y="652" type="line"/>
      <point x="318" y="679"/>
      <point x="391" y="718"/>
    </contour>
  </outline>
</glyph>
<glyph name="Ocircumflex" format="1">
  <advance width="662"/>
  <unicode hex="00D4"/>
  <outline>
    <contour>
      <point x="357" y="594" type="curve" smooth="yes"/>
      <point x="511" y="594"/>
      <point x="625" y="478"/>
      <point x="626" y="315" type="curve" smooth="yes"/>
      <point x="627" y="211"/>
      <point x="574" y="107"/>
      <point x="489" y="43" type="curve" smooth="yes"/>
      <point x="445" y="10"/>
      <point x="365" y="-17"/>
      <point x="297" y="-17" type="curve" smooth="yes"/>
      <point x="96" y="-17"/>
      <point x="35" y="160"/>
      <point x="35" y="276" type="curve"/>
      <point x="37" y="359"/>
      <point x="79" y="478"/>
      <point x="181" y="542" type="curve" smooth="yes"/>
      <point x="221" y="568"/>
      <point x="297" y="594"/>
    </contour>
    <contour>
      <point x="343" y="562" type="curve" smooth="yes"/>
      <point x="216" y="562"/>
      <point x="112" y="464"/>
      <point x="112" y="278" type="curve" smooth="yes"/>
      <point x="112" y="139"/>
      <point x="206" y="16"/>
      <point x="320" y="16" type="curve" smooth="yes"/>
      <point x="451" y="16"/>
      <point x="552" y="136"/>
      <point x="552" y="311" type="curve"/>
      <point x="543" y="499"/>
      <point x="414" y="562"/>
    </contour>
    <contour>
      <point x="244" y="634" type="curve"/>
      <point x="241" y="638"/>
      <point x="238" y="644"/>
      <point x="237" y="654" type="curve"/>
      <point x="270" y="674"/>
      <point x="299" y="696"/>
      <point x="348" y="731" type="curve"/>
      <point x="381" y="703"/>
      <point x="414" y="679"/>
      <point x="448" y="655" type="curve"/>
      <point x="446" y="648"/>
      <point x="442" y="642"/>
      <point x="437" y="636" type="curve"/>
      <point x="398" y="653"/>
      <point x="378" y="664"/>
      <point x="346" y="672" type="curve"/>
      <point x="313" y="664"/>
      <point x="286" y="652"/>
    </contour>
  </outline>
</glyph>
<glyph name="Odieresis" format="1">
  <advance width="662"/>
  <unicode hex="00D6"/>
  <outline>
    <contour>
      <point x="357" y="594" type="curve" smooth="yes"/>
      <point x="511" y="594"/>
      <point x="625" y="478"/>
      <point x="626" y="315" type="curve" smooth="yes"/>
      <point x="627" y="211"/>
      <point x="574" y="107"/>
      <point x="489" y="43" type="curve" smooth="yes"/>
      <point x="445" y="10"/>
      <point x="365" y="-17"/>
      <point x="297" y="-17" type="curve" smooth="yes"/>
      <point x="96" y="-17"/>
      <point x="35" y="160"/>
      <point x="35" y="276" type="curve"/>
      <point x="37" y="359"/>
      <point x="79" y="478"/>
      <point x="181" y="542" type="curve" smooth="yes"/>
      <point x="221" y="568"/>
      <point x="297" y="594"/>
    </contour>
    <contour>
      <point x="343" y="562" type="curve" smooth="yes"/>
      <point x="216" y="562"/>
      <point x="112" y="464"/>
      <point x="112" y="278" type="curve" smooth="yes"/>
      <point x="112" y="139"/>
      <point x="206" y="16"/>
      <point x="320" y="16" type="curve" smooth="yes"/>
      <point x="451" y="16"/>
      <point x="552" y="136"/>
      <point x="552" y="311" type="curve"/>
      <point x="543" y="499"/>
      <point x="414" y="562"/>
    </contour>
    <contour>
      <point x="419" y="707" type="curve" smooth="yes"/>
      <point x="442" y="707"/>
      <point x="454" y="695"/>
      <point x="454" y="680" type="curve" smooth="yes"/>
      <point x="454" y="661"/>
      <point x="428" y="648"/>
      <point x="406" y="648" type="curve" smooth="yes"/>
      <point x="390" y="648"/>
      <point x="375" y="659"/>
      <point x="375" y="672" type="curve" smooth="yes"/>
      <point x="375" y="690"/>
      <point x="398" y="707"/>
    </contour>
    <contour>
      <point x="277" y="707" type="curve" smooth="yes"/>
      <point x="300" y="707"/>
      <point x="313" y="695"/>
      <point x="313" y="680" type="curve" smooth="yes"/>
      <point x="313" y="661"/>
      <point x="286" y="648"/>
      <point x="265" y="648" type="curve" smooth="yes"/>
      <point x="248" y="648"/>
      <point x="234" y="659"/>
      <point x="234" y="672" type="curve" smooth="yes"/>
      <point x="234" y="690"/>
      <point x="256" y="707"/>
    </contour>
  </outline>
</glyph>
<glyph name="multiply" format="1">
  <advance width="416"/>
  <unicode hex="00D7"/>
  <outline>
    <contour>
      <point x="82" y="363" type="curve"/>
      <point x="114" y="327"/>
      <point x="176" y="261"/>
      <point x="210" y="226" type="curve"/>
      <point x="249" y="261"/>
      <point x="316" y="334"/>
      <point x="341" y="360" type="curve"/>
      <point x="350" y="353"/>
      <point x="359" y="345"/>
      <point x="362" y="334" type="curve"/>
      <point x="329" y="304"/>
      <point x="265" y="237"/>
      <point x="231" y="204" type="curve"/>
      <point x="266" y="167"/>
      <point x="330" y="102"/>
      <point x="366" y="67" type="curve"/>
      <point x="360" y="58"/>
      <point x="353" y="48"/>
      <point x="344" y="42" type="curve"/>
      <point x="310" y="78"/>
      <point x="246" y="146"/>
      <point x="210" y="183" type="curve"/>
      <point x="176" y="151"/>
      <point x="110" y="87"/>
      <point x="71" y="47" type="curve"/>
      <point x="62" y="52"/>
      <point x="52" y="67"/>
      <point x="49" y="72" type="curve"/>
      <point x="82" y="102"/>
      <point x="153" y="169"/>
      <point x="189" y="204" type="curve"/>
      <point x="155" y="241"/>
      <point x="93" y="305"/>
      <point x="57" y="340" type="curve"/>
      <point x="62" y="346"/>
      <point x="76" y="360"/>
    </contour>
  </outline>
</glyph>
<glyph name="Oslash" format="1">
  <advance width="662"/>
  <unicode hex="00D8"/>
  <outline>
    <contour>
      <point x="357" y="594" type="curve" smooth="yes"/>
      <point x="389" y="594"/>
      <point x="419" y="589"/>
      <point x="447" y="580" type="curve"/>
      <point x="473" y="633" type="line"/>
      <point x="482" y="633"/>
      <point x="497" y="629"/>
      <point x="501" y="624" type="curve"/>
      <point x="474" y="569" type="line"/>
      <point x="565" y="526"/>
      <point x="625" y="433"/>
      <point x="626" y="315" type="curve" smooth="yes"/>
      <point x="627" y="211"/>
      <point x="574" y="107"/>
      <point x="489" y="43" type="curve" smooth="yes"/>
      <point x="445" y="10"/>
      <point x="365" y="-17"/>
      <point x="297" y="-17" type="curve" smooth="yes"/>
      <point x="258" y="-17"/>
      <point x="225" y="-11"/>
      <point x="196" y="0" type="curve"/>
      <point x="168" y="-58" type="line"/>
      <point x="158" y="-56"/>
      <point x="150" y="-57"/>
      <point x="139" y="-49" type="curve"/>
      <point x="170" y="13" type="line"/>
      <point x="69" y="69"/>
      <point x="35" y="189"/>
      <point x="35" y="276" type="curve"/>
      <point x="37" y="359"/>
      <point x="79" y="478"/>
      <point x="181" y="542" type="curve" smooth="yes"/>
      <point x="221" y="568"/>
      <point x="297" y="594"/>
    </contour>
    <contour>
      <point x="451" y="524" type="curve"/>
      <point x="377" y="373"/>
      <point x="293" y="201"/>
      <point x="220" y="50" type="curve"/>
      <point x="250" y="28"/>
      <point x="284" y="16"/>
      <point x="320" y="16" type="curve" smooth="yes"/>
      <point x="451" y="16"/>
      <point x="552" y="136"/>
      <point x="552" y="311" type="curve"/>
      <point x="547" y="419"/>
      <point x="502" y="486"/>
    </contour>
    <contour>
      <point x="343" y="562" type="curve" smooth="yes"/>
      <point x="216" y="562"/>
      <point x="112" y="464"/>
      <point x="112" y="278" type="curve" smooth="yes"/>
      <point x="112" y="195"/>
      <point x="145" y="117"/>
      <point x="197" y="68" type="curve"/>
      <point x="427" y="539" type="line"/>
      <point x="397" y="555"/>
      <point x="367" y="562"/>
    </contour>
  </outline>
</glyph>
<glyph name="Udieresis" format="1">
  <advance width="579"/>
  <unicode hex="00DC"/>
  <outline>
    <contour>
      <point x="35" y="582" type="curve"/>
      <point x="72" y="580"/>
      <point x="94" y="580"/>
      <point x="123" y="584" type="curve"/>
      <point x="125" y="444"/>
      <point x="131" y="305"/>
      <point x="149" y="182" type="curve" smooth="yes"/>
      <point x="161" y="102"/>
      <point x="213" y="20"/>
      <point x="297" y="20" type="curve" smooth="yes"/>
      <point x="382" y="20"/>
      <point x="449" y="76"/>
      <point x="467" y="192" type="curve" smooth="yes"/>
      <point x="485" y="302"/>
      <point x="487" y="494"/>
      <point x="479" y="573" type="curve"/>
      <point x="506" y="578"/>
      <point x="529" y="588"/>
      <point x="554" y="601" type="curve"/>
      <point x="538" y="487"/>
      <point x="518" y="328"/>
      <point x="501" y="215" type="curve" smooth="yes"/>
      <point x="483" y="89"/>
      <point x="424" y="-14"/>
      <point x="284" y="-14" type="curve" smooth="yes"/>
      <point x="140" y="-14"/>
      <point x="92" y="63"/>
      <point x="72" y="204" type="curve"/>
      <point x="55" y="337"/>
      <point x="52" y="468"/>
    </contour>
    <contour>
      <point x="382" y="707" type="curve" smooth="yes"/>
      <point x="405" y="707"/>
      <point x="417" y="695"/>
      <point x="417" y="680" type="curve" smooth="yes"/>
      <point x="417" y="661"/>
      <point x="391" y="648"/>
      <point x="369" y="648" type="curve" smooth="yes"/>
      <point x="353" y="648"/>
      <point x="338" y="659"/>
      <point x="338" y="672" type="curve" smooth="yes"/>
      <point x="338" y="690"/>
      <point x="361" y="707"/>
    </contour>
    <contour>
      <point x="240" y="707" type="curve" smooth="yes"/>
      <point x="263" y="707"/>
      <point x="276" y="695"/>
      <point x="276" y="680" type="curve" smooth="yes"/>
      <point x="276" y="661"/>
      <point x="249" y="648"/>
      <point x="228" y="648" type="curve" smooth="yes"/>
      <point x="211" y="648"/>
      <point x="197" y="659"/>
      <point x="197" y="672" type="curve" smooth="yes"/>
      <point x="197" y="690"/>
      <point x="219" y="707"/>
    </contour>
  </outline>
</glyph>
<glyph name="Thorn" format="1">
  <advance width="451"/>
  <unicode hex="00DE"/>
  <outline>
    <contour>
      <point x="55" y="583" type="curve"/>
      <point x="72" y="579"/>
      <point x="114" y="581"/>
      <point x="136" y="583" type="curve"/>
      <point x="132" y="542"/>
      <point x="130" y="498"/>
      <point x="128" y="454" type="curve"/>
      <point x="150" y="454"/>
      <point x="176" y="455"/>
      <point x="218" y="455" type="curve" smooth="yes"/>
      <point x="341" y="455"/>
      <point x="426" y="444"/>
      <point x="426" y="330" type="curve" smooth="yes"/>
      <point x="426" y="261"/>
      <point x="332" y="186"/>
      <point x="194" y="151" type="curve" smooth="yes"/>
      <point x="191" y="151"/>
      <point x="186" y="166"/>
      <point x="186" y="173" type="curve"/>
      <point x="289" y="206"/>
      <point x="354" y="246"/>
      <point x="354" y="329" type="curve" smooth="yes"/>
      <point x="354" y="394"/>
      <point x="292" y="426"/>
      <point x="224" y="428" type="curve" smooth="yes"/>
      <point x="176" y="430"/>
      <point x="145" y="428"/>
      <point x="127" y="426" type="curve"/>
      <point x="122" y="272"/>
      <point x="124" y="106"/>
      <point x="130" y="-2" type="curve"/>
      <point x="104" y="1"/>
      <point x="72" y="3"/>
      <point x="48" y="0" type="curve"/>
      <point x="61" y="133"/>
      <point x="62" y="424"/>
    </contour>
  </outline>
</glyph>
<glyph name="germandbls" format="1">
  <advance width="416"/>
  <unicode hex="00DF"/>
  <outline>
    <contour>
      <point x="207" y="2" type="curve"/>
      <point x="206" y="8"/>
      <point x="209" y="18"/>
      <point x="211" y="26" type="curve"/>
      <point x="279" y="18"/>
      <point x="312" y="31"/>
      <point x="312" y="90" type="curve" smooth="yes"/>
      <point x="312" y="146"/>
      <point x="275" y="191"/>
      <point x="257" y="218" type="curve" smooth="yes"/>
      <point x="236" y="250"/>
      <point x="205" y="288"/>
      <point x="205" y="321" type="curve" smooth="yes"/>
      <point x="205" y="348"/>
      <point x="234" y="395"/>
      <point x="263" y="448" type="curve" smooth="yes"/>
      <point x="285" y="487"/>
      <point x="293" y="513"/>
      <point x="293" y="551" type="curve" smooth="yes"/>
      <point x="293" y="598"/>
      <point x="260" y="668"/>
      <point x="201" y="668" type="curve" smooth="yes"/>
      <point x="186" y="668"/>
      <point x="165" y="658"/>
      <point x="154" y="633" type="curve" smooth="yes"/>
      <point x="137" y="594"/>
      <point x="132" y="536"/>
      <point x="132" y="383" type="curve" smooth="yes"/>
      <point x="132" y="280"/>
      <point x="134" y="90"/>
      <point x="146" y="-2" type="curve"/>
      <point x="122" y="2"/>
      <point x="83" y="1"/>
      <point x="61" y="-2" type="curve"/>
      <point x="72" y="119"/>
      <point x="71" y="238"/>
      <point x="71" y="354" type="curve"/>
      <point x="64" y="354"/>
      <point x="51" y="355"/>
      <point x="37" y="354" type="curve"/>
      <point x="37" y="365"/>
      <point x="37" y="370"/>
      <point x="39" y="383" type="curve"/>
      <point x="70" y="383" type="line"/>
      <point x="71" y="408"/>
      <point x="71" y="484"/>
      <point x="72" y="529" type="curve" smooth="yes"/>
      <point x="76" y="621"/>
      <point x="170" y="702"/>
      <point x="214" y="702" type="curve" smooth="yes"/>
      <point x="312" y="702"/>
      <point x="347" y="638"/>
      <point x="347" y="574" type="curve" smooth="yes"/>
      <point x="347" y="538"/>
      <point x="315" y="486"/>
      <point x="294" y="448" type="curve" smooth="yes"/>
      <point x="275" y="414"/>
      <point x="259" y="377"/>
      <point x="259" y="347" type="curve" smooth="yes"/>
      <point x="259" y="320"/>
      <point x="295" y="271"/>
      <point x="313" y="250" type="curve" smooth="yes"/>
      <point x="345" y="212"/>
      <point x="372" y="163"/>
      <point x="372" y="109" type="curve" smooth="yes"/>
      <point x="371" y="13"/>
      <point x="289" y="-15"/>
    </contour>
  </outline>
</glyph>
<glyph name="acircumflex" format="1">
  <advance width="375"/>
  <unicode hex="00E2"/>
  <outline>
    <contour>
      <point x="73" y="359" type="curve"/>
      <point x="119" y="378"/>
      <point x="177" y="387"/>
      <point x="221" y="387" type="curve" smooth="yes"/>
      <point x="258" y="387"/>
      <point x="282" y="377"/>
      <point x="301" y="360" type="curve" smooth="yes"/>
      <point x="309" y="353"/>
      <point x="320" y="337"/>
      <point x="320" y="311" type="curve" smooth="yes"/>
      <point x="319" y="260"/>
      <point x="319" y="119"/>
      <point x="320" y="64" type="curve" smooth="yes"/>
      <point x="321" y="48"/>
      <point x="321" y="22"/>
      <point x="327" y="-2" type="curve"/>
      <point x="292" y="2"/>
      <point x="291" y="2"/>
      <point x="256" y="-2" type="curve"/>
      <point x="254" y="9"/>
      <point x="254" y="29"/>
      <point x="254" y="37" type="curve"/>
      <point x="202" y="20"/>
      <point x="134" y="-9"/>
      <point x="110" y="-9" type="curve" smooth="yes"/>
      <point x="75" y="-9"/>
      <point x="59" y="-4"/>
      <point x="42" y="33" type="curve" smooth="yes"/>
      <point x="36" y="46"/>
      <point x="28" y="86"/>
      <point x="31" y="105" type="curve" smooth="yes"/>
      <point x="38" y="159"/>
      <point x="81" y="182"/>
      <point x="122" y="192" type="curve" smooth="yes"/>
      <point x="162" y="202"/>
      <point x="212" y="211"/>
      <point x="254" y="216" type="curve"/>
      <point x="256" y="240"/>
      <point x="256" y="294"/>
      <point x="255" y="313" type="curve"/>
      <point x="251" y="347"/>
      <point x="205" y="352"/>
      <point x="166" y="352" type="curve" smooth="yes"/>
      <point x="128" y="352"/>
      <point x="87" y="341"/>
      <point x="79" y="337" type="curve"/>
      <point x="75" y="342"/>
      <point x="74" y="350"/>
    </contour>
    <contour>
      <point x="153" y="36" type="curve" smooth="yes"/>
      <point x="174" y="37"/>
      <point x="229" y="54"/>
      <point x="253" y="62" type="curve"/>
      <point x="253" y="99"/>
      <point x="253" y="160"/>
      <point x="254" y="192" type="curve"/>
      <point x="217" y="187"/>
      <point x="184" y="182"/>
      <point x="145" y="167" type="curve" smooth="yes"/>
      <point x="107" y="152"/>
      <point x="95" y="123"/>
      <point x="97" y="92" type="curve"/>
      <point x="101" y="54"/>
      <point x="121" y="33"/>
    </contour>
    <contour>
      <point x="93" y="454" type="curve"/>
      <point x="90" y="458"/>
      <point x="87" y="464"/>
      <point x="86" y="474" type="curve"/>
      <point x="119" y="494"/>
      <point x="148" y="516"/>
      <point x="197" y="551" type="curve"/>
      <point x="230" y="523"/>
      <point x="263" y="499"/>
      <point x="297" y="475" type="curve"/>
      <point x="295" y="468"/>
      <point x="291" y="462"/>
      <point x="286" y="456" type="curve"/>
      <point x="247" y="473"/>
      <point x="227" y="484"/>
      <point x="195" y="492" type="curve"/>
      <point x="162" y="484"/>
      <point x="135" y="472"/>
    </contour>
  </outline>
</glyph>
<glyph name="atilde" format="1">
  <advance width="375"/>
  <unicode hex="00E3"/>
  <outline>
    <contour>
      <point x="73" y="359" type="curve"/>
      <point x="119" y="378"/>
      <point x="177" y="387"/>
      <point x="221" y="387" type="curve" smooth="yes"/>
      <point x="258" y="387"/>
      <point x="282" y="377"/>
      <point x="301" y="360" type="curve" smooth="yes"/>
      <point x="309" y="353"/>
      <point x="320" y="337"/>
      <point x="320" y="311" type="curve" smooth="yes"/>
      <point x="319" y="260"/>
      <point x="319" y="119"/>
      <point x="320" y="64" type="curve" smooth="yes"/>
      <point x="321" y="48"/>
      <point x="321" y="22"/>
      <point x="327" y="-2" type="curve"/>
      <point x="292" y="2"/>
      <point x="291" y="2"/>
      <point x="256" y="-2" type="curve"/>
      <point x="254" y="9"/>
      <point x="254" y="29"/>
      <point x="254" y="37" type="curve"/>
      <point x="202" y="20"/>
      <point x="134" y="-9"/>
      <point x="110" y="-9" type="curve" smooth="yes"/>
      <point x="75" y="-9"/>
      <point x="59" y="-4"/>
      <point x="42" y="33" type="curve" smooth="yes"/>
      <point x="36" y="46"/>
      <point x="28" y="86"/>
      <point x="31" y="105" type="curve" smooth="yes"/>
      <point x="38" y="159"/>
      <point x="81" y="182"/>
      <point x="122" y="192" type="curve" smooth="yes"/>
      <point x="162" y="202"/>
      <point x="212" y="211"/>
      <point x="254" y="216" type="curve"/>
      <point x="256" y="240"/>
      <point x="256" y="294"/>
      <point x="255" y="313" type="curve"/>
      <point x="251" y="347"/>
      <point x="205" y="352"/>
      <point x="166" y="352" type="curve" smooth="yes"/>
      <point x="128" y="352"/>
      <point x="87" y="341"/>
      <point x="79" y="337" type="curve"/>
      <point x="75" y="342"/>
      <point x="74" y="350"/>
    </contour>
    <contour>
      <point x="153" y="36" type="curve" smooth="yes"/>
      <point x="174" y="37"/>
      <point x="229" y="54"/>
      <point x="253" y="62" type="curve"/>
      <point x="253" y="99"/>
      <point x="253" y="160"/>
      <point x="254" y="192" type="curve"/>
      <point x="217" y="187"/>
      <point x="184" y="182"/>
      <point x="145" y="167" type="curve" smooth="yes"/>
      <point x="107" y="152"/>
      <point x="95" y="123"/>
      <point x="97" y="92" type="curve"/>
      <point x="101" y="54"/>
      <point x="121" y="33"/>
    </contour>
    <contour>
      <point x="223" y="474" type="curve" smooth="yes"/>
      <point x="206" y="474"/>
      <point x="169" y="492"/>
      <point x="152" y="493" type="curve"/>
      <point x="128" y="493"/>
      <point x="111" y="485"/>
      <point x="88" y="470" type="curve"/>
      <point x="77" y="484" type="line"/>
      <point x="104" y="509"/>
      <point x="149" y="543"/>
      <point x="170" y="542" type="curve" smooth="yes"/>
      <point x="189" y="542"/>
      <point x="222" y="526"/>
      <point x="242" y="525" type="curve"/>
      <point x="265" y="525"/>
      <point x="283" y="534"/>
      <point x="304" y="546" type="curve"/>
      <point x="316" y="532" type="line"/>
      <point x="284" y="502"/>
      <point x="244" y="474"/>
    </contour>
  </outline>
</glyph>
<glyph name="aring" format="1">
  <advance width="375"/>
  <unicode hex="00E5"/>
  <outline>
    <contour>
      <point x="73" y="359" type="curve"/>
      <point x="119" y="378"/>
      <point x="177" y="387"/>
      <point x="221" y="387" type="curve" smooth="yes"/>
      <point x="258" y="387"/>
      <point x="282" y="377"/>
      <point x="301" y="360" type="curve" smooth="yes"/>
      <point x="309" y="353"/>
      <point x="320" y="337"/>
      <point x="320" y="311" type="curve" smooth="yes"/>
      <point x="319" y="260"/>
      <point x="319" y="119"/>
      <point x="320" y="64" type="curve" smooth="yes"/>
      <point x="321" y="48"/>
      <point x="321" y="22"/>
      <point x="327" y="-2" type="curve"/>
      <point x="292" y="2"/>
      <point x="291" y="2"/>
      <point x="256" y="-2" type="curve"/>
      <point x="254" y="9"/>
      <point x="254" y="29"/>
      <point x="254" y="37" type="curve"/>
      <point x="202" y="20"/>
      <point x="134" y="-9"/>
      <point x="110" y="-9" type="curve" smooth="yes"/>
      <point x="75" y="-9"/>
      <point x="59" y="-4"/>
      <point x="42" y="33" type="curve" smooth="yes"/>
      <point x="36" y="46"/>
      <point x="28" y="86"/>
      <point x="31" y="105" type="curve" smooth="yes"/>
      <point x="38" y="159"/>
      <point x="81" y="182"/>
      <point x="122" y="192" type="curve" smooth="yes"/>
      <point x="162" y="202"/>
      <point x="212" y="211"/>
      <point x="254" y="216" type="curve"/>
      <point x="256" y="240"/>
      <point x="256" y="294"/>
      <point x="255" y="313" type="curve"/>
      <point x="251" y="347"/>
      <point x="205" y="352"/>
      <point x="166" y="352" type="curve" smooth="yes"/>
      <point x="128" y="352"/>
      <point x="87" y="341"/>
      <point x="79" y="337" type="curve"/>
      <point x="75" y="342"/>
      <point x="74" y="350"/>
    </contour>
    <contour>
      <point x="153" y="36" type="curve" smooth="yes"/>
      <point x="174" y="37"/>
      <point x="229" y="54"/>
      <point x="253" y="62" type="curve"/>
      <point x="253" y="99"/>
      <point x="253" y="160"/>
      <point x="254" y="192" type="curve"/>
      <point x="217" y="187"/>
      <point x="184" y="182"/>
      <point x="145" y="167" type="curve" smooth="yes"/>
      <point x="107" y="152"/>
      <point x="95" y="123"/>
      <point x="97" y="92" type="curve"/>
      <point x="101" y="54"/>
      <point x="121" y="33"/>
    </contour>
    <contour>
      <point x="199" y="561" type="curve" smooth="yes"/>
      <point x="244" y="561"/>
      <point x="282" y="545"/>
      <point x="282" y="511" type="curve" smooth="yes"/>
      <point x="282" y="464"/>
      <point x="220" y="443"/>
      <point x="174" y="444" type="curve" smooth="yes"/>
      <point x="130" y="445"/>
      <point x="101" y="462"/>
      <point x="101" y="496" type="curve" smooth="yes"/>
      <point x="101" y="533"/>
      <point x="146" y="561"/>
    </contour>
    <contour>
      <point x="194" y="540" type="curve" smooth="yes"/>
      <point x="168" y="540"/>
      <point x="148" y="524"/>
      <point x="148" y="500" type="curve" smooth="yes"/>
      <point x="148" y="482"/>
      <point x="161" y="466"/>
      <point x="186" y="466" type="curve" smooth="yes"/>
      <point x="217" y="466"/>
      <point x="235" y="484"/>
      <point x="235" y="509" type="curve" smooth="yes"/>
      <point x="235" y="525"/>
      <point x="215" y="540"/>
    </contour>
  </outline>
</glyph>
<glyph name="ae" format="1">
  <advance width="613"/>
  <unicode hex="00E6"/>
  <outline>
    <contour>
      <point x="301" y="360" type="curve" smooth="yes"/>
      <point x="306" y="355"/>
      <point x="315" y="341"/>
      <point x="316" y="325" type="curve"/>
      <point x="356" y="373"/>
      <point x="408" y="392"/>
      <point x="444" y="392" type="curve" smooth="yes"/>
      <point x="506" y="392"/>
      <point x="541" y="380"/>
      <point x="560" y="352" type="curve" smooth="yes"/>
      <point x="576" y="328"/>
      <point x="568" y="279"/>
      <point x="545" y="259" type="curve" smooth="yes"/>
      <point x="521" y="238"/>
      <point x="479" y="228"/>
      <point x="420" y="228" type="curve" smooth="yes"/>
      <point x="396" y="228"/>
      <point x="347" y="230"/>
      <point x="323" y="234" type="curve"/>
      <point x="321" y="224" type="line"/>
      <point x="309" y="132"/>
      <point x="342" y="26"/>
      <point x="442" y="26" type="curve" smooth="yes"/>
      <point x="497" y="26"/>
      <point x="531" y="33"/>
      <point x="576" y="47" type="curve"/>
      <point x="581" y="41"/>
      <point x="583" y="32"/>
      <point x="584" y="27" type="curve"/>
      <point x="536" y="8"/>
      <point x="486" y="-10"/>
      <point x="405" y="-10" type="curve" smooth="yes"/>
      <point x="348" y="-10"/>
      <point x="308" y="12"/>
      <point x="285" y="47" type="curve"/>
      <point x="210" y="12"/>
      <point x="134" y="-9"/>
      <point x="110" y="-9" type="curve" smooth="yes"/>
      <point x="75" y="-9"/>
      <point x="59" y="-4"/>
      <point x="42" y="33" type="curve" smooth="yes"/>
      <point x="36" y="46"/>
      <point x="28" y="86"/>
      <point x="31" y="105" type="curve" smooth="yes"/>
      <point x="38" y="159"/>
      <point x="81" y="182"/>
      <point x="122" y="192" type="curve" smooth="yes"/>
      <point x="162" y="202"/>
      <point x="212" y="211"/>
      <point x="254" y="216" type="curve"/>
      <point x="258" y="241"/>
      <point x="258" y="294"/>
      <point x="255" y="313" type="curve" smooth="yes"/>
      <point x="249" y="347"/>
      <point x="205" y="352"/>
      <point x="166" y="352" type="curve" smooth="yes"/>
      <point x="128" y="352"/>
      <point x="82" y="342"/>
      <point x="78" y="338" type="curve"/>
      <point x="75" y="344"/>
      <point x="74" y="348"/>
      <point x="73" y="359" type="curve"/>
      <point x="119" y="378"/>
      <point x="177" y="387"/>
      <point x="221" y="387" type="curve" smooth="yes"/>
      <point x="258" y="387"/>
      <point x="282" y="377"/>
    </contour>
    <contour>
      <point x="153" y="35" type="curve" smooth="yes"/>
      <point x="175" y="35"/>
      <point x="251" y="57"/>
      <point x="275" y="66" type="curve"/>
      <point x="260" y="103"/>
      <point x="253" y="159"/>
      <point x="254" y="191" type="curve"/>
      <point x="217" y="186"/>
      <point x="184" y="182"/>
      <point x="145" y="168" type="curve" smooth="yes"/>
      <point x="107" y="154"/>
      <point x="95" y="122"/>
      <point x="97" y="92" type="curve"/>
      <point x="101" y="54"/>
      <point x="121" y="35"/>
    </contour>
    <contour>
      <point x="414" y="253" type="curve" smooth="yes"/>
      <point x="444" y="253"/>
      <point x="474" y="259"/>
      <point x="491" y="280" type="curve" smooth="yes"/>
      <point x="500" y="292"/>
      <point x="504" y="322"/>
      <point x="497" y="335" type="curve" smooth="yes"/>
      <point x="487" y="355"/>
      <point x="474" y="367"/>
      <point x="438" y="367" type="curve" smooth="yes"/>
      <point x="392" y="367"/>
      <point x="344" y="313"/>
      <point x="330" y="260" type="curve"/>
      <point x="344" y="256"/>
      <point x="380" y="253"/>
    </contour>
  </outline>
</glyph>
<glyph name="ccedilla" format="1">
  <advance width="377"/>
  <unicode hex="00E7"/>
  <outline>
    <contour>
      <point x="136" y="-105" type="curve"/>
      <point x="150" y="-83"/>
      <point x="169" y="-41"/>
      <point x="184" y="-7" type="curve"/>
      <point x="94" y="-7"/>
      <point x="35" y="53"/>
      <point x="35" y="166" type="curve" smooth="yes"/>
      <point x="35" y="296"/>
      <point x="132" y="388"/>
      <point x="254" y="388" type="curve" smooth="yes"/>
      <point x="283" y="388"/>
      <point x="304" y="380"/>
      <point x="325" y="371" type="curve"/>
      <point x="321" y="362"/>
      <point x="318" y="356"/>
      <point x="313" y="350" type="curve"/>
      <point x="303" y="354"/>
      <point x="275" y="360"/>
      <point x="256" y="360" type="curve" smooth="yes"/>
      <point x="149" y="360"/>
      <point x="99" y="267"/>
      <point x="99" y="168" type="curve" smooth="yes"/>
      <point x="99" y="78"/>
      <point x="156" y="26"/>
      <point x="209" y="26" type="curve" smooth="yes"/>
      <point x="256" y="26"/>
      <point x="280" y="30"/>
      <point x="337" y="47" type="curve"/>
      <point x="343" y="39"/>
      <point x="345" y="33"/>
      <point x="346" y="25" type="curve"/>
      <point x="295" y="7"/>
      <point x="260" y="-4"/>
      <point x="212" y="-7" type="curve"/>
      <point x="202" y="-27"/>
      <point x="192" y="-51"/>
      <point x="186" y="-69" type="curve"/>
      <point x="207" y="-84"/>
      <point x="235" y="-108"/>
      <point x="235" y="-138" type="curve" smooth="yes"/>
      <point x="235" y="-158"/>
      <point x="207" y="-216"/>
      <point x="167" y="-261" type="curve"/>
      <point x="162" y="-259"/>
      <point x="158" y="-256"/>
      <point x="153" y="-251" type="curve"/>
      <point x="168" y="-227"/>
      <point x="186" y="-191"/>
      <point x="186" y="-160" type="curve" smooth="yes"/>
      <point x="186" y="-143"/>
      <point x="156" y="-118"/>
    </contour>
  </outline>
</glyph>
<glyph name="igrave" format="1">
  <advance width="183"/>
  <unicode hex="00EC"/>
  <outline>
    <contour>
      <point x="38" y="616" type="curve"/>
      <point x="66" y="582"/>
      <point x="121" y="520"/>
      <point x="166" y="474" type="curve"/>
      <point x="154" y="459" type="line"/>
      <point x="101" y="500"/>
      <point x="59" y="528"/>
      <point x="-2" y="564" type="curve"/>
      <point x="13" y="578"/>
      <point x="29" y="599"/>
    </contour>
    <contour>
      <point x="49" y="0" type="curve"/>
      <point x="60" y="92"/>
      <point x="59" y="298"/>
      <point x="48" y="379" type="curve"/>
      <point x="77" y="380"/>
      <point x="100" y="385"/>
      <point x="127" y="391" type="curve"/>
      <point x="117" y="327"/>
      <point x="121" y="74"/>
      <point x="134" y="-2" type="curve"/>
      <point x="108" y="6"/>
      <point x="62" y="1"/>
    </contour>
  </outline>
</glyph>
<glyph name="iacute" format="1">
  <advance width="183"/>
  <unicode hex="00ED"/>
  <outline>
    <contour>
      <point x="162" y="603" type="curve"/>
      <point x="170" y="585"/>
      <point x="184" y="563"/>
      <point x="198" y="548" type="curve"/>
      <point x="135" y="516"/>
      <point x="92" y="492"/>
      <point x="35" y="455" type="curve"/>
      <point x="23" y="470" type="line"/>
      <point x="72" y="513"/>
      <point x="132" y="570"/>
    </contour>
    <contour>
      <point x="49" y="0" type="curve"/>
      <point x="60" y="92"/>
      <point x="59" y="298"/>
      <point x="48" y="379" type="curve"/>
      <point x="77" y="380"/>
      <point x="100" y="385"/>
      <point x="127" y="391" type="curve"/>
      <point x="117" y="327"/>
      <point x="121" y="74"/>
      <point x="134" y="-2" type="curve"/>
      <point x="108" y="6"/>
      <point x="62" y="1"/>
    </contour>
  </outline>
</glyph>
<glyph name="icircumflex" format="1">
  <advance width="183"/>
  <unicode hex="00EE"/>
  <outline>
    <contour>
      <point x="49" y="0" type="curve"/>
      <point x="60" y="92"/>
      <point x="59" y="298"/>
      <point x="48" y="379" type="curve"/>
      <point x="77" y="380"/>
      <point x="100" y="385"/>
      <point x="127" y="391" type="curve"/>
      <point x="117" y="327"/>
      <point x="121" y="74"/>
      <point x="134" y="-2" type="curve"/>
      <point x="108" y="6"/>
      <point x="62" y="1"/>
    </contour>
    <contour>
      <point x="-7" y="454" type="curve"/>
      <point x="-10" y="458"/>
      <point x="-13" y="464"/>
      <point x="-14" y="474" type="curve"/>
      <point x="19" y="494"/>
      <point x="48" y="516"/>
      <point x="97" y="551" type="curve"/>
      <point x="130" y="523"/>
      <point x="163" y="499"/>
      <point x="197" y="475" type="curve"/>
      <point x="195" y="468"/>
      <point x="191" y="462"/>
      <point x="186" y="456" type="curve"/>
      <point x="147" y="473"/>
      <point x="127" y="484"/>
      <point x="95" y="492" type="curve"/>
      <point x="62" y="484"/>
      <point x="35" y="472"/>
    </contour>
  </outline>
</glyph>
<glyph name="idieresis" format="1">
  <advance width="183"/>
  <unicode hex="00EF"/>
  <outline>
    <contour>
      <point x="167" y="513" type="curve" smooth="yes"/>
      <point x="191" y="513"/>
      <point x="203" y="502"/>
      <point x="203" y="487" type="curve" smooth="yes"/>
      <point x="203" y="468"/>
      <point x="176" y="456"/>
      <point x="155" y="456" type="curve" smooth="yes"/>
      <point x="138" y="456"/>
      <point x="124" y="465"/>
      <point x="124" y="479" type="curve" smooth="yes"/>
      <point x="124" y="497"/>
      <point x="146" y="513"/>
    </contour>
    <contour>
      <point x="30" y="513" type="curve" smooth="yes"/>
      <point x="53" y="513"/>
      <point x="66" y="502"/>
      <point x="66" y="487" type="curve" smooth="yes"/>
      <point x="66" y="468"/>
      <point x="39" y="456"/>
      <point x="17" y="456" type="curve" smooth="yes"/>
      <point x="1" y="456"/>
      <point x="-13" y="465"/>
      <point x="-13" y="479" type="curve" smooth="yes"/>
      <point x="-13" y="497"/>
      <point x="9" y="513"/>
    </contour>
    <contour>
      <point x="49" y="0" type="curve"/>
      <point x="60" y="92"/>
      <point x="59" y="298"/>
      <point x="48" y="379" type="curve"/>
      <point x="77" y="380"/>
      <point x="100" y="385"/>
      <point x="127" y="391" type="curve"/>
      <point x="117" y="327"/>
      <point x="121" y="74"/>
      <point x="134" y="-2" type="curve"/>
      <point x="108" y="6"/>
      <point x="62" y="1"/>
    </contour>
  </outline>
</glyph>
<glyph name="eth" format="1">
  <advance width="488"/>
  <unicode hex="00F0"/>
  <outline>
    <contour>
      <point x="95" y="521" type="curve"/>
      <point x="149" y="539"/>
      <point x="223" y="566"/>
      <point x="290" y="591" type="curve"/>
      <point x="240" y="643"/>
      <point x="171" y="679"/>
      <point x="87" y="675" type="curve"/>
      <point x="85" y="682"/>
      <point x="84" y="692"/>
      <point x="87" y="698" type="curve"/>
      <point x="196" y="707"/>
      <point x="281" y="670"/>
      <point x="342" y="610" type="curve"/>
      <point x="373" y="621"/>
      <point x="400" y="632"/>
      <point x="420" y="640" type="curve"/>
      <point x="424" y="630"/>
      <point x="428" y="624"/>
      <point x="427" y="613" type="curve"/>
      <point x="360" y="591" type="line"/>
      <point x="427" y="513"/>
      <point x="459" y="406"/>
      <point x="459" y="310" type="curve" smooth="yes"/>
      <point x="459" y="196"/>
      <point x="421" y="108"/>
      <point x="363" y="51" type="curve" smooth="yes"/>
      <point x="327" y="16"/>
      <point x="253" y="-12"/>
      <point x="197" y="-12" type="curve" smooth="yes"/>
      <point x="77" y="-12"/>
      <point x="26" y="84"/>
      <point x="34" y="199" type="curve" smooth="yes"/>
      <point x="43" y="321"/>
      <point x="158" y="396"/>
      <point x="273" y="394" type="curve" smooth="yes"/>
      <point x="309" y="394"/>
      <point x="355" y="384"/>
      <point x="386" y="375" type="curve"/>
      <point x="381" y="440"/>
      <point x="353" y="514"/>
      <point x="306" y="572" type="curve"/>
      <point x="242" y="549"/>
      <point x="173" y="523"/>
      <point x="103" y="497" type="curve"/>
      <point x="97" y="504"/>
      <point x="94" y="515"/>
    </contour>
    <contour>
      <point x="228" y="22" type="curve" smooth="yes"/>
      <point x="368" y="22"/>
      <point x="406" y="237"/>
      <point x="389" y="344" type="curve"/>
      <point x="355" y="361"/>
      <point x="289" y="364"/>
      <point x="278" y="363" type="curve" smooth="yes"/>
      <point x="172" y="355"/>
      <point x="105" y="282"/>
      <point x="102" y="176" type="curve" smooth="yes"/>
      <point x="99" y="92"/>
      <point x="153" y="22"/>
    </contour>
  </outline>
</glyph>
<glyph name="ograve" format="1">
  <advance width="458"/>
  <unicode hex="00F2"/>
  <outline>
    <contour>
      <point x="241" y="391" type="curve" smooth="yes"/>
      <point x="366" y="391"/>
      <point x="417" y="307"/>
      <point x="417" y="201" type="curve" smooth="yes"/>
      <point x="417" y="148"/>
      <point x="390" y="76"/>
      <point x="341" y="37" type="curve" smooth="yes"/>
      <point x="305" y="8"/>
      <point x="247" y="-10"/>
      <point x="202" y="-10" type="curve" smooth="yes"/>
      <point x="75" y="-10"/>
      <point x="30" y="101"/>
      <point x="32" y="178" type="curve"/>
      <point x="32" y="248"/>
      <point x="67" y="315"/>
      <point x="117" y="348" type="curve" smooth="yes"/>
      <point x="149" y="370"/>
      <point x="202" y="391"/>
    </contour>
    <contour>
      <point x="228" y="360" type="curve" smooth="yes"/>
      <point x="203" y="360"/>
      <point x="176" y="353"/>
      <point x="157" y="337" type="curve" smooth="yes"/>
      <point x="120" y="307"/>
      <point x="99" y="246"/>
      <point x="99" y="179" type="curve" smooth="yes"/>
      <point x="99" y="119"/>
      <point x="135" y="20"/>
      <point x="212" y="20" type="curve" smooth="yes"/>
      <point x="237" y="20"/>
      <point x="268" y="27"/>
      <point x="286" y="39" type="curve" smooth="yes"/>
      <point x="331" y="72"/>
      <point x="353" y="142"/>
      <point x="351" y="200" type="curve" smooth="yes"/>
      <point x="348" y="287"/>
      <point x="294" y="360"/>
    </contour>
    <contour>
      <point x="149" y="562" type="curve"/>
      <point x="186" y="539"/>
      <point x="260" y="500"/>
      <point x="319" y="473" type="curve"/>
      <point x="312" y="455" type="line"/>
      <point x="247" y="475"/>
      <point x="199" y="486"/>
      <point x="130" y="499" type="curve"/>
      <point x="139" y="518"/>
      <point x="147" y="543"/>
    </contour>
  </outline>
</glyph>
